<?xml version="1.0" encoding="utf-8"?>
<!-- Generator: Adobe Illustrator 21.0.0, SVG Export Plug-In . SVG Version: 6.00 Build 0)  -->
<svg version="1.1" id="Capa_1" xmlns="http://www.w3.org/2000/svg" xmlns:xlink="http://www.w3.org/1999/xlink" x="0px" y="0px"
	 viewBox="0 0 1177 598.5" style="enable-background:new 0 0 1177 598.5;" xml:space="preserve">
<style type="text/css">
	.st0{fill:#6E6F75;}
	.st1{fill:none;stroke:#3F3D56;stroke-width:4;stroke-miterlimit:10;}
	.st2{fill:#57B894;}
	.st3{opacity:0.1;enable-background:new    ;}
	.st4{fill:#656380;}
	.st5{opacity:0.2;enable-background:new    ;}
	.st6{fill:#F2F2F2;}
	.st7{fill:#FF6347;}
	.st8{fill:none;stroke:#F2F2F2;stroke-width:2;stroke-miterlimit:10;}
	.st9{fill:#FFC1C7;}
	.st10{fill:#FF6584;}
	.st11{fill:#575A89;}
	.st12{fill:#CBCEDA;}
	.st13{fill:#3C354C;}
</style>
<ellipse class="st0" cx="585.4" cy="485.6" rx="570.3" ry="20.3"/>
<path class="st1" d="M120.2,479c-2.9-5.3,0.4-11.9,4.2-16.6c3.8-4.8,8.3-9.7,8.2-15.8c-0.1-8.7-9.4-13.9-16.8-18.5
	c-5.5-3.4-10.6-7.5-15.1-12.1c-1.9-1.8-3.5-3.8-4.7-6.2c-1.5-3.4-1.5-7.3-1.4-11c0.3-12.4,0.9-24.9,1.9-37.3"/>
<path class="st2" d="M82.5,360.7c0.2-4.6,2.8-8.8,6.8-11.1l3,6l-0.1-7.3c1.5-0.4,3-0.6,4.5-0.5c7.5,0.4,13.3,6.7,12.9,14.2
	c-0.4,7.5-6.7,13.3-14.2,12.9C87.9,374.5,82.1,368.2,82.5,360.7z"/>
<path class="st2" d="M106.7,452.8c3.4,6.7,11.6,9.3,18.3,5.8c6.7-3.4,9.3-11.6,5.8-18.3c-3.4-6.7-11.6-9.3-18.3-5.8
	c-3,1.5-5.3,4.2-6.5,7.3l8.5,6.9l-9.3-2.1C105.2,448.8,105.7,450.9,106.7,452.8z"/>
<path class="st2" d="M113.5,426.4c7.5,0.5,14-5.1,14.5-12.6c0.5-6.5-3.8-12.5-10.2-14.1l0.1,5.6l-3.1-6.1l0,0
	c-7.5-0.4-13.8,5.4-14.2,12.9c0,0,0,0,0,0.1c-0.1,1.6,0.1,3.1,0.6,4.6C102.8,422.3,107.8,426.1,113.5,426.4z"/>
<path class="st2" d="M80.4,404.4c7.5,0.3,13.8-5.6,14.1-13.1c0.3-7.5-5.6-13.8-13.1-14.1c-2.4-0.1-4.9,0.5-7,1.7l2.4,6.6l-4.9-4.7
	c-2.6,2.4-4.2,5.8-4.4,9.4c-0.1,1.3,0,2.5,0.3,3.8C69.2,399.9,74.3,404.2,80.4,404.4z"/>
<path class="st3" d="M84.3,364.4c3.1,0.3,6.2,1.3,9.3,1.5c3.1,0.2,6.6-0.6,8.6-3c1.1-1.3,1.6-3,2.5-4.4c0.9-1.3,2-2.4,3.4-3.2
	c3.2,6.8,0.4,14.9-6.4,18.1c-6.8,3.2-14.9,0.4-18.1-6.4c-0.4-0.9-0.7-1.8-1-2.7C83.3,364.2,83.8,364.3,84.3,364.4z"/>
<path class="st3" d="M80.4,404.4c7.5,0.4,13.9-5.4,14.2-12.9c0.1-2.2-0.3-4.5-1.3-6.5c-1.1,0.7-2,1.7-2.7,2.7
	c-1,1.5-1.6,3.2-2.7,4.5c-2.1,2.5-5.7,3.3-9,3.2c-3.3-0.1-6.5-1.1-9.7-1.4c-0.5,0-0.9-0.1-1.4-0.1C69.2,399.9,74.4,404.1,80.4,404.4
	z"/>
<path class="st3" d="M113.5,426.4c7.5,0.4,13.9-5.4,14.2-12.9c0.1-2.2-0.3-4.3-1.2-6.3c-1.1,0.7-2.1,1.7-2.9,2.8
	c-1.1,1.5-1.7,3.2-2.9,4.6c-2.3,2.5-6.2,3.4-9.6,3.4c-3.5-0.1-6.6-0.9-10-1.2C102.8,422.3,107.8,426.1,113.5,426.4z"/>
<path class="st3" d="M106.7,452.8c3.1,6.8,11.1,9.9,17.9,6.9c6.8-3.1,9.9-11.1,6.9-17.9c-1.1,0.7-2.1,1.6-3,2.7
	c-1.3,1.6-2.2,3.4-3.6,4.8c-2.8,2.7-7.3,3.9-11.3,4C111.3,453.2,109,453.1,106.7,452.8z"/>
<path class="st4" d="M140.7,472.8c0,0-10.7-0.3-14-2.6c-3.2-2.3-16.5-5-17.3-1.4c-0.8,3.7-16.1,18.4-4,18.5s28.2-1.9,31.4-3.9
	C140,481.5,140.7,472.8,140.7,472.8z"/>
<path class="st5" d="M105.2,486c12.1,0.1,28.2-1.9,31.4-3.9c2.5-1.5,3.4-6.9,3.8-9.4h0.4c0,0-0.7,8.7-3.9,10.7
	c-3.2,2-19.3,3.9-31.4,3.9c-3.5,0-4.7-1.3-4.6-3.1C101.2,485.4,102.6,486,105.2,486L105.2,486z"/>
<path class="st6" d="M201.1,33.8h768.6c10.9,0,19.8,8.9,19.8,19.8v402.3c0,10.9-8.9,19.8-19.8,19.8H201.1
	c-10.9,0-19.8-8.9-19.8-19.8V53.6C181.3,42.7,190.2,33.8,201.1,33.8z"/>
<path class="st0" d="M989.5,53.6v11.2H181.3V53.6c0-10.9,8.9-19.8,19.8-19.8c0,0,0,0,0,0h768.6C980.6,33.8,989.5,42.7,989.5,53.6z"
	/>
<circle class="st7" cx="202.2" cy="49.8" r="5.8"/>
<circle class="st7" cx="216.7" cy="49.8" r="5.8"/>
<circle class="st7" cx="231.2" cy="49.8" r="5.8"/>
<path class="st8" d="M340.7,246.5"/>
<path class="st8" d="M327.2,245.5"/>
<path class="st9" d="M951.9,368.1l-1.7,1.9c0,0-20.4,1.9-19.6,5.2s24.6-4.4,24.6-4.4L951.9,368.1z"/>
<path class="st10" d="M988.8,366.4c0,0-21.8,7.8-33.7,4.4l5.5,11c0,0,28.2-0.8,33.1-5.8C998.8,371.1,988.8,366.4,988.8,366.4z"/>
<path class="st3" d="M988.8,366.4c0,0-21.8,7.8-33.7,4.4l5.5,11c0,0,28.2-0.8,33.1-5.8C998.8,371.1,988.8,366.4,988.8,366.4z"/>
<circle class="st9" cx="974.1" cy="292.6" r="14.6"/>
<path class="st9" d="M986.6,306.3c0.5,1,1.2,1.8,1.9,2.6c2,2.2,4.4,4,7.1,5.3c-8.3,1.7-16.7,2.9-25.1,3.7c0.9-3.1-0.3-6.5-1.9-9.3
	c-1.6-2.8-3.6-5.5-4.6-8.6l9.9,0.3c1.8,0,3.6,0.1,5.4,0c1.3-0.1,3.6-0.9,4.8-0.6C986.7,300.3,985.4,304,986.6,306.3L986.6,306.3z"/>
<path class="st11" d="M1019.8,375l8.3,9.9c0,0,13.8,32.3-16.3,35.6s-52.4-2.5-52.4-2.5s-12.1-5.8-12.4-1.4s-1.4,16.8-8,29l-5.8,13.2
	c-1.8,1.9-2.6,4.6-2.2,7.2c0.8,4.1-18.5,5.5-18.2,0c0,0,2.8-4.7,2.8-7.5s4.4-9.4,4.4-9.4l8-39.7c0,0-0.6-20.4,18.2-16.6
	c18.8,3.9,45.5-0.8,45.5-0.8l6.1-21.2L1019.8,375z"/>
<path class="st3" d="M1019.8,375l8.3,9.9c0,0,13.8,32.3-16.3,35.6s-52.4-2.5-52.4-2.5s-12.1-5.8-12.4-1.4s-1.4,16.8-8,29l-5.8,13.2
	c-1.8,1.9-2.6,4.6-2.2,7.2c0.8,4.1-18.5,5.5-18.2,0c0,0,2.8-4.7,2.8-7.5s4.4-9.4,4.4-9.4l8-39.7c0,0-0.6-20.4,18.2-16.6
	c18.8,3.9,45.5-0.8,45.5-0.8l6.1-21.2L1019.8,375z"/>
<path class="st0" d="M972.2,479.4c-0.1,2.9,2.1,5.5,5,5.8l130.7,3.2c0.1,0,0.2,0,0.3-0.1l0,0c0.1,0,0.1-0.1,0.1-0.2l1.7-8.1
	c0.1-0.5,0.1-0.9,0.1-1.4l-2.8-58.5c0-1-0.3-1.9-0.8-2.7l-1.9-3.3c-0.1-0.1-0.1-0.2-0.2-0.3c-0.2-0.1-0.4-0.2-0.6-0.2l-123.1,1.8
	c-3,0-5.4,2.4-5.5,5.4L972.2,479.4z"/>
<path class="st3" d="M1104.4,413.9l3.9,74.4l0,0l0.1-0.2l1.7-8.1c0.1-0.5,0.1-0.9,0.1-1.4l-2.8-58.5c0-1-0.3-1.9-0.8-2.7l-1.9-3.3
	C1104.6,414.1,1104.5,414,1104.4,413.9z"/>
<path class="st11" d="M988.7,374.2c0,0,25.3-9.5,39.3,10.7c0,0,3.6,31.2-10.8,32.6c-14.4,1.4-33.1,1.1-37.5-3.6
	s-32.3-17.9-32.3-17.9s-13.9-7.1-16.6,2.1s-3,11.4-3,11.4s-14.4,10.5-20.1,12.4c0,0-3.9,5.5-6.1,5.5s-15.7,3-14.4-7.2l22.4-20.4
	L932,378c0,0,6.3-9.4,22.6-4.4c10.8,3.2,21.8,5.9,32.8,8L988.7,374.2z"/>
<path class="st12" d="M930.1,465.5c0,0,5.2,13.2,0.8,14.9c-4.4,1.7-13.8,0.6-13.8,0.6s-11-1.4-13.8-1.1c-2.8,0.3-14.1-1.9-12.4-6.3
	c1.7-4.4,10.2-3.3,10.2-3.3l7.8-3.6c0,0,0.8-2.8,2.8-1.7C913.5,466,919,470.2,930.1,465.5z"/>
<path class="st12" d="M901.4,426.3c0,0,5.8,13-3.6,11.9c-9.4-1.1-16.6-3-19.3-3.3c-2.8-0.3-10.2-2.8-9-7.9c0.1-0.3,0.1-0.6,0.1-1
	c0-0.7,1-2,8.4-1.8c0,0,5.5,0,7.8-3.9C885.6,420.2,893.9,430.7,901.4,426.3L901.4,426.3z"/>
<path class="st10" d="M964,315.9c0,0,19.9-12.4,36.4,0c16.6,12.4,27.6,69,27.6,69l-38.4-8.6c0,0-1.6-6.6-3.9-7.8
	c-2.2-1.1-2.5-5.8-2.5-5.8s-11.9-3.6-11-17.4C973.1,331.6,964,315.9,964,315.9L964,315.9z"/>
<path class="st10" d="M974.2,316.4H964c0,0-6.1,6.9-6.9,24.3l-3.3,13.8c0,0-6.9,16.6-2.8,19.3s12.2,2.5,13.8-3
	c1.6-5.5,13-37.6,13-37.6L974.2,316.4z"/>
<path class="st13" d="M971.3,273.5c5.2-2.1,11.1-1.1,15.3,2.5c5.3,4.7,6.4,12.5,7.8,19.4c1.4,6.9,4,14.7,10.7,17.4
	c-3,0.4-6,0.3-8.9-0.3l9.9,8.9l-16.7-5.5c-5.3-1.7-10.8-3.4-16.2-2.5c-9,1.6-15.3,10.1-23.9,13.1l1-4.7h-5.8c1.4-1,2.5-2.3,3.3-3.9
	c-0.5-0.7-1.4-1.1-2.2-1.2c-2.4-15.1,6.6-30,18.2-39.9c2.3-1.9,4.8-3.8,7.8-4.3s6.4,0.8,7.5,3.7"/>
<path class="st7" d="M181.8,64.8v392c0,10.7,8.9,19.4,19.8,19.4h239.9V64.8H181.8z M358,285.1c-1.5,10.3-7.2,18.9-15.1,24.2
	c0,0,0.1,0,0.1,0c-0.2,0.1-0.3,0.2-0.5,0.3c-2.3,1.5-4.7,2.7-7.3,3.6c-4.2,1.7-8.6,2.9-13.3,3.5c-27.7,3.7-53.1-14-56.6-39.6
	c-3.6-25.6,16-49.3,43.7-53c7.8-1,15.4-0.4,22.3,1.6c-3.2-0.2-6.5-0.1-9.9,0.4c-25.5,3.4-43.6,25.3-40.3,48.9
	c1.2,8.5,5,16.1,10.7,22.2c1.6,1.6,3.4,3.4,5.6,5.1c1.2,0.9,2.4,1.7,3.7,2.5c2.8,1.6,6,3,9.9,3.8c15.7,3,30.5-8.4,32.8-24.5
	c1.7-11.5-3.5-22.5-12.4-28.8c-0.2-0.1-0.4-0.2-0.6-0.3c-10.1-5.3-22.5-1.2-27.5,9c-5.1,10.3-1,22.9,9.2,28.2c6.1,3.2,13,3,18.6,0.1
	c-7.3,5.4-17.3,6.6-26,2c-12.3-6.4-17.3-21.7-11.1-34.1c0.2-0.4,0.4-0.9,0.7-1.3c0,0,0,0,0,0c6.9-13.1,20.1-16.9,33.6-14.7
	C347.6,247.4,360.8,265.6,358,285.1z"/>
<g>
	<path class="st0" d="M796.8,212c-2-10.2-5.9-20.1-11-29.2c-2.2-4-4.8-7.9-7.7-11.5c0-1.1-0.9-2.3-2-2.5c-2.6-3-5.4-5.8-8.5-8.4
		c-11.3-9.1-25.1-15.3-39.5-17.9c-3.3-0.7-6.7-1.1-10.1-1.3c-1.6-0.1-3.1-0.1-4.7-0.1c-3.2,0-6.3,0.1-9.5,0.5
		c-0.7,0.1-1.3,0.2-2,0.2c-0.6,0.1-1.1,0.1-1.7,0.2c-5.4,0.5-10.7,1.5-16,3.1c-14.1,4.4-26.2,13-35.9,23.9c-0.8,0.9-1.6,1.9-2.4,2.8
		c-0.1,0.1-0.2,0.2-0.3,0.3c-0.1,0.1-0.1,0.1-0.2,0.2l0,0c-2.7,3.3-5.2,6.8-7.5,10.5c-5.4,8.6-9.7,18.2-12.4,28.1
		c-2.6,9.4-2.1,19.4-0.2,28.9c2,10.2,5.9,20.1,10.9,29.2c4.7,8.4,10.7,16.3,18.2,22.4c11.3,9.1,25.1,15.3,39.5,17.9
		c3.3,0.7,6.7,1.1,10.1,1.3c1.6,0.1,3.1,0.1,4.7,0.1c3.2,0,6.3-0.1,9.5-0.5c0.7-0.1,1.3-0.2,2-0.2c0.6-0.1,1.1-0.1,1.7-0.2
		c5.4-0.5,10.7-1.5,16-3.1c14.9-4.6,27.6-14.1,37.6-25.9c0.1-0.2,0.3-0.3,0.4-0.5c0.3-0.3,0.6-0.7,0.8-1c0.1-0.1,0.2-0.2,0.2-0.3
		l0,0c2.6-3.2,5-6.6,7.2-10.1c5.4-8.6,9.7-18.2,12.4-28.1C799.2,231.5,798.7,221.4,796.8,212z M793.3,219.1c0.2,1.8,0.3,3.6,0.4,5.4
		c-8.9,0.1-17.8,0.5-26.7,0.9c0.3-8.3-0.5-16.6-2.7-24.6c0.5-0.6,1.1-1.2,1.6-1.8c2-2.4,4.7-5.1,5.2-8.3c0.1-0.8-0.9-1.1-1.2-0.4
		c-1.2,3.2-3.8,6-6.2,8.4c-0.4-1.2-0.7-2.4-1.2-3.6c2.2-2.4,4.3-4.8,6.5-7.3c0.7-0.8-0.4-2.1-1.2-1.2c-2,2.2-4,4.3-6.1,6.4
		c-0.4-0.9-0.7-1.8-1.1-2.7c-1.2-2.7-2.6-5.3-4.1-7.8c6.2-2.5,12.2-5.3,18.1-8.3c3.7,4.7,6.8,9.9,9.5,15.2
		C788.8,198.7,792.1,208.9,793.3,219.1z M747.6,271.4c-3.2-1.3-6.5-2.5-9.9-3.5c-9-2.6-18.4-4.3-27.8-4.9c0.2-11,1-22,1.4-33
		c13.7,0.4,27.5,0.7,41.3,0.5c3.1-0.1,6.3-0.2,9.4-0.3c-1.3,12.6-5.3,25.1-11.2,35.9C749.8,267.9,748.7,269.7,747.6,271.4z
		 M761.8,288.3C761.8,288.3,761.8,288.2,761.8,288.3c-2.8-1.7-5.8-2.6-8.5-4.2c-2.1-1.3-4.4-2.4-6.5-3.7c0.8-1,1.6-2,2.3-3
		c1.1,0.5,2.1,1,3.1,1.5c4.2,2.1,8.2,4.8,12.5,6.9C763.9,286.5,762.9,287.4,761.8,288.3z M757,292c-2-1.5-4.5-2.5-6.6-3.6
		c-2.4-1.3-4.7-2.6-6.7-4.3c0.9-1,1.7-1.9,2.6-3c1.8,1.5,3.8,2.7,5.6,4.1c2.4,1.9,5.1,3.6,8.1,4.7C758.9,290.6,758,291.4,757,292z
		 M732.9,288c-6.9,5.8-15.1,9.8-22.2,15.3c-0.8-11.9-1.1-23.9-1-35.8c8.7,0.7,17.4,2.4,25.7,4.8c3.1,0.9,6.2,1.9,9.2,3.1
		C741.3,280,737.4,284.2,732.9,288z M739.1,301.3c-2.9-1.7-5.4-3.8-7.5-6.4c1.2-0.9,2.4-1.8,3.6-2.8c1.9,3,4.9,5.6,7.9,7.6
		C741.8,300.2,740.4,300.7,739.1,301.3z M744.9,298.3c-1.5-1.1-3.2-2.1-4.7-3.2c-1.5-1.1-2.8-2.4-4.1-3.8c1.1-0.9,2.2-1.9,3.3-2.9
		c1.2,1.8,2.8,3.3,4.5,4.6c1.2,0.9,2.5,1.7,3.8,2.4c0.6,0.4,1.3,0.9,2,1.3c-1.5,0.7-3,1.3-4.4,2
		C745.2,298.6,745.1,298.4,744.9,298.3z M727.8,304.3c-0.8-0.6-1.7-1.2-2.6-1.8c-0.8-0.6-1.5-1.4-2-2.1c1.1-0.7,2.1-1.3,3.2-2
		c1.3,1.9,2.8,3.9,4.6,5.4C730,304,728.9,304.2,727.8,304.3z M722.6,305c-0.6-0.6-1.4-1-2-1.6c-0.3-0.3-0.6-0.6-0.8-0.9
		c0.8-0.5,1.7-1.1,2.5-1.6c0.9,1.4,2,2.7,3.2,3.8c-0.9,0.1-1.8,0.2-2.7,0.3C722.8,305,722.7,305,722.6,305z M667.2,242.3
		c-1.4-4.8-2.5-9.7-3.1-14.6c1.2,0.1,2.3,0.2,3.5,0.3c13.2,1,26.3,1.5,39.5,2c-0.1,3-0.2,5.9-0.3,8.9c-0.4,8-0.9,16-1.1,24
		c-0.4,0-0.9,0-1.3,0c-9.2-0.2-18.4,0.8-27.3,2.9C673.1,258.2,669.7,250.4,667.2,242.3z M664.8,203.3c1-5.4,2.7-10.6,4.9-15.6
		c12.1,3.6,25.1,4.9,37.2,4.7c0.1,0,0.3,0,0.4,0c0.1,9.1,0.2,18.2,0.1,27.4c-0.1,1.5-0.1,3-0.2,4.4c0,0.5,0,1-0.1,1.5
		c-13.2-0.4-26.4-0.8-39.6-1.6c-1.3-0.1-2.6-0.2-3.9-0.2C663.2,217,663.5,210.1,664.8,203.3z M723.8,155.5
		c5.3,3.4,10.2,7.4,14.8,11.8c4.2,4,8,8.3,11.3,13c-3,1.1-6.1,2.1-9.1,3c-9.2,2.7-18.8,4.1-28.4,4.6c0-0.9,0-1.8,0.1-2.7
		c0.2-11.4-0.6-22.9,0.9-34.2c0.2-1,0.3-2,0.5-3C716.7,151.1,720.3,153.2,723.8,155.5z M709.7,145.8c-0.2,0.8-0.4,1.7-0.5,2.5
		c-1-0.2-2-0.1-3-0.2c1-0.8,2-1.6,3.1-2.3C709.4,145.8,709.5,145.8,709.7,145.8z M703.3,150.2c0.5-0.4,1-0.7,1.6-1.2
		c0.4,0.1,0.7,0.3,1.1,0.4c0.9,0.2,1.9,0.5,2.9,0.7c-0.1,0.7-0.2,1.5-0.3,2.2c-2.5-0.3-5-0.2-7.6-0.6
		C701.8,151.3,702.5,150.8,703.3,150.2z M699.6,152.8c2.6,1.2,5.9,1.8,8.8,1.7c-0.1,0.7-0.1,1.4-0.2,2.1c-2-0.9-4.5-0.6-6.6-0.5
		c-2.1,0.1-4.1,0.2-6.1-0.2C696.8,154.8,698.1,153.8,699.6,152.8z M694.3,156.8c1.6,0.7,3.4,1,5.2,1.2c1.3,0.1,2.7,0.1,4,0.2
		c1.5,0.1,3,0.5,4.4,0.5c0,0,0.1,0,0.1,0c0,1-0.1,2-0.1,3c-5.5-1.1-11.4-1.6-17.1-1.9C692.1,158.8,693.2,157.8,694.3,156.8z
		 M689.7,160.9c5.9,1.5,12.2,2.3,18.2,3.1c-0.1,0.9-0.1,1.8-0.2,2.8c-2-0.5-4.1-0.7-6.1-1.2c-1.5-0.4-3-0.6-4.5-0.8
		c-3.2-0.3-6.8-0.2-9.7-1.8C688.2,162.2,688.9,161.6,689.7,160.9z M686.5,163.9c2.5,1.9,5.6,2.3,8.7,2.7c2,0.2,3.9,0.5,5.8,1.1
		c2.1,0.7,4.4,1.3,6.6,1.3c0,0.4,0,0.7,0,1.1c-4.3-0.6-8.6-1.2-12.9-1.7c-2.3-0.3-4.7-0.6-7-1c-1.2-0.2-2.6-0.3-3.8-0.8
		C684.8,165.6,685.6,164.7,686.5,163.9z M683,167.4c1,0.6,2.1,0.9,3.2,1.2c2.2,0.5,4.3,1,6.6,1.4c4.9,0.8,9.8,1.9,14.7,2.4
		c0,0.3,0,0.6,0,1c-1.8-0.3-3.8-0.2-5.6-0.2c-2.4-0.1-4.8-0.2-7.2-0.3c-4.7-0.3-9.5-1-13.9-2.9C681.5,169.1,682.2,168.2,683,167.4z
		 M680,170.9c4.1,2.1,8.6,3.2,13.2,3.8c2.4,0.3,4.8,0.5,7.2,0.7c2.3,0.2,4.7,0.6,7,0.5c0,0.4,0,0.8,0,1.2
		c-5.2,0.3-10.4,0.5-15.6,0.3c-5.2-0.2-10.4-1.1-15.6-1.4C677.3,174.3,678.6,172.5,680,170.9z M675.4,177.2c4.9,1.6,10.4,2,15.5,2.4
		c5.5,0.4,11,0.5,16.5,0.1c0,0.9,0,1.8,0,2.6c-0.2-0.1-0.4-0.2-0.6-0.2c-3.6,0-7.3,0.1-10.9-0.1c-3.7-0.2-7.3-0.7-10.9-1.1
		c-2.7-0.3-5.4-0.5-8-0.9c-0.9-0.1-2.1-0.3-3.1-0.2C674.2,178.9,674.8,178.1,675.4,177.2z M673,181.1c1.8,0,3.5,0.4,5.2,0.7
		c2.5,0.5,5,0.8,7.5,1.1c7,1,13.9,1.5,21,1.4c0.3,0,0.5-0.1,0.7-0.2c0,1.3,0,2.7,0,4c-10.8,0.3-21.5-0.6-32-2.8
		c-1.4-0.3-2.7-0.6-4.1-0.9C671.7,183.4,672.3,182.2,673,181.1z M704.3,267.2c0.5,0,0.9,0,1.4,0.1c-0.1,12.4,0.3,24.8,1,37.2
		c-9.3-6.4-15.7-16.1-21.7-25.5c-2-3.2-4-6.4-5.9-9.7C687.3,267.6,695.9,267,704.3,267.2z M752.6,226c-13.7,0.4-27.5,0.1-41.2-0.3
		c0-0.7,0-1.4,0.1-2.1c0.1-4,0.1-8,0-12c0.3-6.5,0.5-13,0.7-19.5c9.7-0.5,19.5-1.9,28.8-4.4c3.8-1,7.6-2.3,11.3-3.6
		c2.4,3.9,4.4,8.1,6,12.6c-2.2,2.3-4.3,4.7-6.3,7.3c-0.7,0.9,0.8,2,1.5,1.2c1.9-2.1,3.7-4.1,5.6-6.2c0.4,1.1,0.7,2.3,1,3.4
		c-1.5,1.5-2.9,3.1-4,5c-0.7,1.2,1.1,2.3,1.8,1.1c0.8-1.4,1.7-2.6,2.8-3.8c1.5,6.8,2,13.9,1.6,20.9
		C759.1,225.8,755.9,225.9,752.6,226z M725.9,145.9c4.2,0.8,8.4,1.8,12.5,3.2c10.4,3.5,20.4,9.1,28.5,16.5c1.7,1.6,3.3,3.2,4.8,5
		c-5.8,2.9-11.7,5.7-17.7,8.1c-4-5.5-8.7-10.5-13.8-15.1c-4.2-3.8-8.8-7.2-13.6-10.3c-4-2.5-8.3-4.7-11.7-7.9
		C718.6,145.4,722.3,145.5,725.9,145.9z M669.8,156.6c0.9-0.5,1.7-1,2.6-1.5c4.8-2.2,9.8-4.4,14.9-6.1c3.9-1.1,7.9-1.8,12-2.2
		c1.4-0.1,2.8-0.3,4.2-0.4c-2.3,1.5-4.7,3-7,4.6c-4.9,3.4-9.6,7.3-13.9,11.4c-6.4,6.2-11.5,13.3-15.5,21.1c-6.4-2-12.6-4.6-18.5-7.9
		C654.7,168.1,661.7,161.6,669.8,156.6z M632.7,204.1c3.5-9.6,8.5-18.9,14.8-27.1c5.5,4,11.7,7.1,18.3,9.4c-0.7,1.6-1.4,3.2-2,4.8
		c-4.1,10.6-5.3,21.5-4.5,32.3c-10.2-0.5-20.5-0.8-30.6,0.4c0-2,0.2-4,0.4-5.9C629.5,213.3,631.1,208.6,632.7,204.1z M629,232.6
		c-0.2-2.1-0.4-4.2-0.4-6.2c10.3-0.3,20.7,0.3,31,1c1.6,13.7,6.3,27.2,12.8,39.5c-4.9,1.4-9.6,3.2-14.2,5.4c-3.4,1.6-7,3.5-10.1,5.8
		c-3.9-4.9-7.1-10.3-9.9-15.8C633.5,253,630.2,242.9,629,232.6z M683.9,302.6c-10.4-3.5-20.4-9.1-28.5-16.5c-2.2-2-4.3-4.2-6.2-6.5
		c3.3-1.6,6.5-3.3,9.9-4.7c4.7-1.9,9.6-3.3,14.5-4.5c0.2,0,0.4-0.1,0.5-0.1c4.3,7.8,9.2,15.2,14.5,22.4c3.8,5.2,7.9,9.9,12.8,13.7
		c-0.9,0-1.7-0.1-2.6-0.2C693.8,305.5,688.8,304.2,683.9,302.6z M715,305.8c1.3-0.9,2.5-1.8,3.8-2.7c0.2,0.4,0.5,0.7,0.7,1.1
		c0.2,0.3,0.5,0.7,0.8,1C718.6,305.4,716.8,305.6,715,305.8z M733.5,303.1C733.5,303.1,733.4,303.1,733.5,303.1
		c-2.4-1.6-4.3-3.4-6.1-5.4c1.2-0.8,2.4-1.6,3.6-2.4c1.5,2.5,3.5,5,5.9,6.8c-0.6,0.2-1.3,0.5-1.9,0.7
		C734.4,302.9,734,303,733.5,303.1z M751.7,295.6c-1.3-1.4-3.6-2.1-5.2-3c-2.4-1.3-4.7-2.7-6.3-4.9c0.2-0.2,0.4-0.4,0.6-0.6
		c0.8-0.8,1.5-1.5,2.3-2.3c1.6,1.6,3.4,3,5.3,4.3c2.1,1.5,4.4,3,6.8,4.3c-0.9,0.6-1.7,1.2-2.6,1.7
		C752.2,295.3,751.9,295.4,751.7,295.6z M789.5,247.6c-4.6,12.6-11.7,24.6-21,34.4c-4.6-2.3-8.7-5.4-13.4-7.4
		c-1-0.4-2.1-0.9-3.1-1.3c3-4.6,5.5-9.6,7.6-14.6c3.8-9,6.2-18.7,7.1-28.6c9-0.3,18-0.7,27-0.8c-0.1,1.5-0.2,2.9-0.3,4.4
		C792.7,238.4,791.2,243.1,789.5,247.6z"/>
	<path class="st0" d="M647,167.8c1.8-4.1,5.7-6.8,9.3-9.3c4.2-2.9,8.3-5.9,12.7-8.6c8.8-5.3,18.4-9,28.8-9.5c1.4-0.1,1.4-2.3,0-2.2
		c-10.8,0.6-20.5,4.6-29.7,10.1c-4.7,2.8-9.1,6.2-13.6,9.4c-3.5,2.5-7,5.4-8.3,9.7C646,167.9,646.8,168.3,647,167.8z"/>
	<path class="st0" d="M650,158.4c4.1-5.1,10.8-8.7,16.5-11.7c6.9-3.6,14.2-6.2,21.7-8.5c1.4-0.4,0.8-2.6-0.6-2.2
		c-7.6,2.4-15.1,5-22.1,8.8c-5.8,3.1-12.7,7.3-16.1,13.1C649.1,158.5,649.7,158.8,650,158.4z"/>
	<path class="st0" d="M681.8,222c3.7,0.5,7.5,0.4,11.3,0.7c3.7,0.2,7.4,0.6,11.1,0.8c0.2,0.1,0.5,0.1,0.7,0c0.2,0,0.4,0,0.6,0
		c1.2,0,1.3-1.9,0-1.9c-0.1,0-0.2,0-0.4,0c-0.4-1.6-0.1-3.4,0-5c0.2-2.2,0.2-4.4,0.3-6.6c0.2-4.4,0.1-8.9-0.7-13.3
		c0-0.2-0.4-0.2-0.4,0c0.2,5-0.4,9.9-0.8,14.9c-0.2,3-1,6.7-0.3,9.8c-5.9-0.2-21.2-0.9-21.2-0.3c0-0.1-0.1-0.1-0.1-0.1l-0.4,0.2
		C681.3,221.5,681.5,222,681.8,222z"/>
	<path class="st0" d="M688.6,219c3.8,0.1,7.4,0.1,11.2,0.6c0.5,0.2,1.2-0.1,1.2-0.8c0.2-5.2,0.8-10.5,0.4-15.7c0-0.4-0.6-0.4-0.6,0
		c-0.2,4.9-1.5,9.8-1.6,14.7c-3.5-0.6-7.1,0-10.6,0.1C687.9,217.9,687.9,219,688.6,219z"/>
	<path class="st0" d="M762.4,264c1.5-3,2.8-6.1,3.9-9.3c2.4-6.9,3.2-14.3,3.9-21.5c0.1-0.7-1.1-0.9-1.2-0.2
		c-1.3,7.1-2.5,14.3-4.7,21.1c-1.1,3.5-2.6,6.9-4.3,10.1c-1.4,2.6-3.7,4.9-4.7,7.8c-0.4,1.2,1.5,1.8,1.9,0.6
		c0.5-1.5,1.6-2.8,2.5-4.1C760.7,267,761.6,265.5,762.4,264z"/>
	<path class="st0" d="M771.6,244.1c-3.5,10.3-6.4,21.3-13.3,29.9c-0.8,1,0.9,2.4,1.7,1.4c7.4-9,9.8-20.1,12.5-31.1
		C772.7,243.7,771.9,243.5,771.6,244.1z"/>
	<path class="st0" d="M742.8,306.2c-9.3,5-20.1,6.8-30.6,6.8c-5.7,0-11.3-0.7-16.9-1.9c-2.9-0.6-5.7-1.3-8.5-2
		c-2.4-0.6-5.3-0.8-7.5-2c-0.5-0.2-0.8,0.4-0.4,0.7c1.7,1.3,4,1.8,6,2.5c3,1,6,1.9,9.1,2.6c5.8,1.4,11.5,2.2,17.5,2.3
		c11.1,0.2,22.6-1.7,32.5-7C745.2,307.5,744.1,305.5,742.8,306.2z"/>
	<path class="st0" d="M730.6,314.9c-6.2,1.7-12.4,2-18.8,2.1c-2.8,0-5.7,0-8.5-0.3c-1.6-0.2-3.2-0.2-4.7-0.6
		c-1.2-0.3-2.2-0.6-3.4-0.5c-0.4,0-0.4,0.6,0,0.6c1.6,0.1,2.9,0.9,4.5,1.2c1.4,0.2,2.8,0.4,4.2,0.6c2.9,0.5,5.9,0.5,8.8,0.6
		c6.3,0.2,12.4,0,18.5-1.7C732.3,316.5,731.8,314.6,730.6,314.9z"/>
	<path class="st0" d="M646.9,228.7c-4.4-0.6-8.8,0.1-13.2-0.2c-0.4,0-0.7,0.2-0.9,0.4c-0.3-1-1.9-0.8-1.9,0.3
		c0.1,3.8,1.2,7.7,2.1,11.3c1,4.2,2.5,8.2,4,12.3c0.1,0.3,0.6,0.2,0.5-0.1c-1-3.9-1.8-7.9-2.6-11.8c-0.7-3.5-1.1-7.1-1.9-10.6
		c0.1,0.1,0.3,0.2,0.5,0.2c4.4,0.7,8.9-0.6,13.2-1C647.4,229.4,647.5,228.7,646.9,228.7z"/>
	<path class="st0" d="M802.3,224.2c-0.6-8.8-2.6-17.7-5.8-26c-0.1-0.3-0.6-0.1-0.6,0.2c3.7,16.6,7.8,34.7,1.3,51.2
		c-0.5,1.3,1.7,2,2,0.7C801.6,241.7,802.9,233.2,802.3,224.2z"/>
	<path class="st0" d="M722,272.6c6,1.4,11.6,3,16.7,6.6c1.1,0.7,2.4-1,1.4-1.8c-5-4-11.8-5.1-18-5.6
		C721.7,271.8,721.5,272.5,722,272.6z"/>
	<path class="st0" d="M713.8,249.8c0.1-3.6,0.2-7.1-0.1-10.6c0-0.4-0.6-0.5-0.7,0c-0.2,3.8-0.7,7.6-1,11.4
		c-0.3,3.4-0.7,7.2,0.1,10.5c0.3,1.2,2.2,0.7,1.9-0.5C713.2,257.2,713.7,253.2,713.8,249.8z"/>
	<path class="st0" d="M715.8,244.2c0.6,5.8-1.2,11.7-0.2,17.6c0.2,1.1,2.1,0.9,1.9-0.2c-0.6-5.8-0.2-11.7-1.1-17.4
		C716.4,243.7,715.7,243.8,715.8,244.2z"/>
	<path class="st0" d="M686.5,293.3c-2.8-3.7-5.5-7.5-8.2-11.2c-0.2-0.2-0.5,0.1-0.4,0.3c2.3,3.8,4.6,7.6,7.2,11.2
		c2.7,3.6,6.1,6.6,9.2,9.9c0.6,0.7,1.7-0.4,1-1C692.1,299.5,689.1,296.7,686.5,293.3z"/>
	<path class="st0" d="M691.6,302.4c-2.7-1.7-4.5-4.3-6.6-6.6c-2.2-2.4-4.9-4.8-6-7.9c-0.1-0.3-0.5-0.2-0.4,0.1
		c0.7,3,2.7,5.5,4.7,7.7c2.4,2.6,4.6,5.9,7.7,7.8C691.6,303.9,692.3,302.8,691.6,302.4z"/>
	<path class="st0" d="M635,211.2c3.9-2.6,7.2-6.3,10.9-9.3c0.4-0.3-0.1-1-0.5-0.7c-3.8,2.7-7.6,5.8-11.2,8.8
		C633.5,210.5,634.3,211.6,635,211.2z"/>
	<path class="st0" d="M635.5,207.3c1.6-1.6,3.6-2.8,5.5-4.1c1.8-1.2,3.4-2.7,5.3-3.7c0.8-0.4,0.1-1.8-0.7-1.3
		c-2.1,1.2-3.9,2.8-5.9,4.1c-1.9,1.2-3.7,2.3-5.3,3.8C633.8,206.9,634.8,208,635.5,207.3z"/>
	<path class="st0" d="M636.4,202.7c3.6-2.1,6.6-5,10.2-7.2c0.6-0.4,0.1-1.4-0.6-1c-3.6,2.1-6.9,4.6-10.3,7
		C635,202,635.6,203.2,636.4,202.7z"/>
	<path class="st0" d="M639.6,197.4c2.5-1.5,4.7-3.5,7-5.3c0.4-0.3-0.1-0.9-0.5-0.7c-2.3,1.7-4.8,3.3-7.1,5.1
		C638.5,196.9,639.1,197.6,639.6,197.4z"/>
	<path class="st0" d="M640.9,193.8c2.2-1,4.3-2.9,6-4.6c0.5-0.5-0.2-1.2-0.7-0.7c-0.9,0.8-1.8,1.5-2.8,2.2c-1,0.7-2.1,1.2-3.1,1.9
		C639.5,193.1,640.1,194.1,640.9,193.8z"/>
	<path class="st0" d="M642.1,189.9c1.9-1,3.6-2.6,5.1-4.1c0.5-0.5-0.2-1.2-0.7-0.7c-1.5,1.5-3.3,2.5-5,3.8
		C641,189.3,641.5,190.3,642.1,189.9z"/>
	<path class="st0" d="M644.2,186.5c1.1-0.7,1.9-1.9,2.9-2.7c0.4-0.3-0.1-1.1-0.6-0.8c-1.1,0.7-2.1,1.7-3,2.7
		C643.2,186,643.6,186.8,644.2,186.5z"/>
	<path class="st0" d="M633,220.3c4.5-5,8.9-10.1,13.7-14.9c0.7-0.7-0.3-1.8-1.1-1.1c-4.9,4.6-10.1,9.3-14.1,14.8
		C630.9,220,632.3,221.1,633,220.3z"/>
	<path class="st0" d="M646.8,209.5c0.3-0.4-0.4-0.8-0.7-0.4c-1.6,2.2-3.6,4-5.5,5.8c-1.7,1.6-3.1,3.7-5,5.1c-0.8,0.6,0.2,1.9,1,1.3
		c2-1.3,3.3-3.8,4.9-5.6C643.3,213.8,645.2,211.8,646.8,209.5z"/>
	<path class="st0" d="M646.9,212.8c-1.1,1.2-2.2,2.4-3.3,3.5c-1.1,1-2.4,2.2-3,3.5c-0.3,0.6,0.6,1,1,0.6c1.1-0.9,1.9-2.3,2.8-3.3
		c1.1-1.2,2.2-2.4,3.3-3.6C648.1,213,647.4,212.3,646.9,212.8z"/>
	<path class="st0" d="M646.8,216c-0.4,0.7-0.8,1.3-1.2,1.9c-0.4,0.6-1,1.1-1.4,1.8c-0.4,0.7,0.4,1.4,1,1c0.7-0.4,1.1-1.2,1.5-1.9
		c0.4-0.8,0.8-1.6,1.2-2.4C648.1,215.9,647.1,215.4,646.8,216z"/>
</g>
<g>
	<path class="st0" d="M654.1,373.1c0.3,0,0.6-0.1,0.6-0.5c0.1-0.5,0.2-1,0.2-1.5c1.3-3.2,2.5-6.4,3.8-9.5c1.6-3.8,3.1-7.7,4-11.8
		c0.2,0,0.4-0.1,0.5-0.3c3.1-5.5,8.8-9.4,10.6-15.6c0.2-0.6-0.6-0.9-0.9-0.4c-0.1-0.1-0.2-0.2-0.3-0.2c-3.4-1.5-7.1-2.2-10.7-2.9
		c-3.9-0.8-7.7-1.9-11.5-3c-7.9-2.3-15.8-4.6-23.8-6.7c-2.2-0.6-4.4-1.1-6.6-1.7c0.1-0.1,0.2-0.1,0.3-0.2c0.5-0.3,0.1-1-0.4-0.8
		c-0.4,0.2-0.8,0.4-1.3,0.6c-0.2-0.1-0.5-0.1-0.7-0.2c0.5-0.3,1-0.6,1.4-1c0.3-0.3-0.1-0.8-0.4-0.6c-0.7,0.4-1.5,0.8-2.2,1.2
		c-4.5-1.1-9.1-2.2-13.6-3.3c-3.8-0.9-7.5-2-11.2-3c-3.4-1-7.2-2.5-10.8-2c-0.1,0-0.1,0.1-0.1,0.1c-0.1,0-0.2,0.1-0.3,0.2
		c-0.2,0.1-0.4,0.3-0.2,0.5c2.5,5.5,6.8,10.1,9.9,15.2c3.4,5.7,6.8,11.4,10.1,17.1c3.1,5.4,6.2,11,9,16.6c1.4,2.9,2.6,6,3.6,9
		c0.9,2.6,1.5,5.3,3,7.7c0,0,0,0,0,0c-0.2,0.4,0.3,0.9,0.8,0.6c2.6-2.1,5.8-3.3,8.8-4.6c3.3-1.4,6.6-3,9.9-4.5
		c2.5-1.2,5.1-2.3,7.6-3.5c1.4,1.8,3.3,3.3,5,4.8c1.6,1.4,2.7,3.4,4.7,4.4c0.1,0,0.2,0.1,0.3,0.1
		C653.2,373.7,653.9,373.7,654.1,373.1z M650.8,369.9c0.5-0.2,1-0.4,1.6-0.6c0.4-0.2,0.9-0.3,1.3-0.4c0,0.2-0.1,0.5-0.1,0.7
		c-0.7,0.4-1.3,0.8-2,1.1C651.3,370.4,651.1,370.2,650.8,369.9z M646.4,365.9c1.6-0.5,3.1-1.2,4.6-1.9c1.4-0.6,2.8-1.2,4.2-1.8
		c-0.1,0.5-0.3,1-0.4,1.6c-1.2,0.2-2.3,0.9-3.4,1.3c-1.3,0.5-2.5,1.2-3.8,1.7C647.1,366.5,646.8,366.2,646.4,365.9z M645.1,364.9
		c1.7-0.9,3.5-1.6,5.2-2.3c1.9-0.8,3.6-1.7,5.5-2.6c-0.1,0.4-0.2,0.8-0.4,1.2c0,0,0,0-0.1,0c-3,1.6-6.1,3.3-9.3,4.5
		C645.8,365.4,645.5,365.1,645.1,364.9z M657.8,360.7c-0.6,1.4-1.3,2.8-1.9,4.2c0.4-2.4,0.8-4.8,1.2-7.1c0.7-0.3,0.6-1.3,0-1.4
		c-0.1-0.1-0.2-0.2-0.4-0.3c-3.2-1.1-6.1-3.2-8.8-5.1c-3.2-2.2-6.4-4.4-9.7-6.5c-6.3-4-12.9-7.3-19.5-10.9
		c-6.5-3.6-12.8-7.6-19-11.6c-5.5-3.5-10.8-7.4-16.5-10.7c2.2,0.9,4,2,6.1,3.2c2.6,1.5,5.6,2.6,8.3,4.1c7.1,3.9,14.3,7.7,21.6,11.3
		c7.1,3.5,14.2,7,21.3,10.5c6.9,3.3,14,6.7,21.3,9.1c0.1,0,0.2,0,0.3,0c0,0,0,0,0,0.1C660.9,353.4,659.4,357,657.8,360.7z
		 M592.1,312.9c3.7,1.2,7.4,2.3,11.1,3.2c3.9,1,7.8,2,11.7,3c-0.4,0.3-0.8,0.5-1.2,0.8c-0.3,0.2,0,0.7,0.3,0.5
		c0.6-0.4,1.2-0.7,1.9-1c0.3,0.1,0.6,0.2,1,0.2c-0.8,0.5-1.6,1.1-2.4,1.4c-0.3,0.1-0.1,0.6,0.2,0.5c1.2-0.4,2.3-1,3.5-1.6
		c2.9,0.7,5.7,1.5,8.6,2.2c7.8,2.1,15.5,4.4,23.2,6.6c3.8,1.1,7.6,2.3,11.5,3c3.6,0.7,7.3,1.5,10.7,2.9c0.1,0,0.2,0.1,0.2,0.1
		c-2.2,5.1-7,8.5-9.9,13.2c-0.1,0-0.1-0.1-0.2-0.1c-7-2.7-13.9-5.8-20.7-8.9c0.6-0.1,1.3-0.3,1.9-0.4c1.6-0.3,3.4-0.4,4.9-0.9
		c0.2,0,0.1-0.3-0.1-0.2c-2.4,0.5-4.9,0.9-7.4,1.3c-0.7-0.3-1.4-0.7-2.1-1c1.1-0.2,2.1-0.5,3.2-0.7c1.5-0.2,3-0.5,4.5-1
		c0.1,0,0.1-0.2-0.1-0.2c-1.5,0.4-2.9,0.6-4.4,0.8c-1.3,0.2-2.6,0.5-3.9,0.8c-0.5-0.2-1-0.5-1.5-0.7c2.6-0.5,5.1-1.1,7.7-1.6
		c0.1,0,0.1-0.1,0-0.1c-2.8,0.3-5.6,0.9-8.4,1.4c-0.6-0.3-1.2-0.6-1.8-0.9c2.7-0.3,5.6-0.9,8.2-1.7c0.1,0,0.1-0.2-0.1-0.2
		c-2.9,0.6-5.9,1-8.8,1.5c-0.6-0.3-1.3-0.6-1.9-0.9c2.7-0.3,5.5-0.9,8-1.7c0.1,0,0-0.1,0-0.1c-2.9,0.2-5.9,1-8.8,1.4
		c-0.4-0.2-0.9-0.4-1.3-0.6c2.5-0.5,4.9-1.5,7.4-1.6c0.2,0,0.2-0.3,0-0.3c-1.3,0-2.6,0.3-3.9,0.6c-1.4,0.3-2.8,0.5-4.1,0.9
		c0,0,0,0-0.1,0c-0.5-0.2-1-0.5-1.5-0.7c2.2-0.5,4.4-1.2,6.6-1.5c0.2,0,0.2-0.3,0-0.3c-2.5,0.3-4.9,0.9-7.3,1.4
		c-0.5-0.2-1-0.5-1.5-0.7c2-0.3,4-0.6,6-1.2c0.2-0.1,0.1-0.4-0.1-0.3c-2.2,0.6-4.4,0.8-6.6,1.2c-0.4-0.2-0.8-0.4-1.2-0.6
		c1.7-0.3,3.4-0.6,5.1-0.9c0.2,0,0.2-0.4,0-0.3c-1.9,0.3-3.8,0.7-5.7,0.9c-0.4-0.2-0.7-0.3-1.1-0.5c1.4-0.2,2.8-0.5,4.2-0.8
		c0.2,0,0.1-0.3,0-0.3c-1.6,0.3-3.2,0.4-4.8,0.8c-0.5-0.2-0.9-0.4-1.4-0.7c1.3-0.2,2.6-0.5,4-0.7c0.2,0,0.2-0.3,0-0.3
		c-1.5,0.2-3.1,0.5-4.6,0.7c-0.1-0.1-0.3-0.1-0.4-0.2c-0.3-0.1-0.5-0.3-0.8-0.4c0.8-0.1,1.6-0.3,2.5-0.4c0.2,0,0.2-0.3,0-0.3
		c-1.1,0.1-2.1,0.2-3.2,0.3c-0.3-0.1-0.5-0.3-0.8-0.4c0.5-0.1,0.9-0.2,1.4-0.3c0.2-0.1,0.1-0.4-0.1-0.3c-0.6,0.2-1.3,0.3-1.9,0.3
		c-0.3-0.2-0.6-0.3-0.9-0.5c0,0,0.1,0,0.1,0c0.3,0,0.6-0.1,0.9-0.1c0.2,0,0.2-0.3,0-0.3c-0.5,0-1.2,0-1.8,0.1
		c-5.7-2.8-11.3-5.7-16.9-8.7c-4.6-2.5-10.6-5.6-15.1-6.6C585.2,310.4,588.7,311.9,592.1,312.9z M635.2,366.1
		c-3.5,1.6-6.9,3.3-10.4,4.9c-2.7,1.2-5.4,2.4-7.8,4.2c-1.4-2.4-2-5-2.9-7.6c-1-2.8-2.1-5.6-3.4-8.3c-2.7-5.6-5.9-11.1-9-16.5
		c-3.3-5.7-6.8-11.4-10.2-17c-3-5-6.6-9.5-9.9-14.3c5.6,4.1,11.5,7.8,17.3,11.6c6.3,4.2,12.8,8.3,19.4,12.1c6.5,3.6,13.1,7,19.4,11
		c3.3,2.1,6.5,4.3,9.7,6.6c2.2,1.6,4.6,3.2,7.1,4.4c-2.9,1.1-5.7,2.5-8.5,3.9C642.6,362.7,638.9,364.3,635.2,366.1z M643.7,363.7
		c0.7-0.3,1.4-0.7,2.2-1c3.5-1.7,6.9-3.5,10.6-4.7c-0.1,0.3-0.2,0.7-0.3,1c0,0-0.1,0-0.1,0c-1.9,0.8-3.6,1.8-5.5,2.7
		c-2,0.9-3.9,1.8-5.7,3C644.5,364.3,644.1,364,643.7,363.7z M647.8,367c1.1-0.3,2.1-0.8,3.2-1.1c1.1-0.4,2.3-1,3.5-1.3
		c-0.1,0.4-0.2,0.7-0.3,1.1c-1.7,0.8-3.5,1.6-5.3,2.2c0,0,0,0,0,0C648.6,367.6,648.2,367.3,647.8,367z M649.4,368.4
		c0.8-0.2,1.6-0.5,2.4-0.8c0.8-0.3,1.5-0.6,2.3-0.9c-0.1,0.4-0.2,0.8-0.2,1.2c-1.1,0.5-2.3,1-3.4,1.5
		C650.1,369.1,649.8,368.7,649.4,368.4z M652,371.1c0.5-0.1,1-0.3,1.4-0.6c-0.2,0.4-0.3,0.9-0.5,1.3
		C652.7,371.6,652.3,371.4,652,371.1z"/>
	<path class="st0" d="M803.2,374c-12.2-2.7-25.8-2.7-37.8,0.9c-5.1,1.5-10.2,4-13.7,8c-1.2-0.1-2.4-0.1-3.5-0.1
		c-5.3,0.1-10.7,1.3-15.6,3.4c-2.7,1.1-5.2,2.7-7.8,4c-3.4,1.8-6.8,3.5-10.4,4.9c-6.7,2.6-14.7,4.6-21.6,1.5
		c-1.3-0.6-2.7-1.4-3.8-2.4c6-2.4,11.3-7.2,12.1-13.9c0.8-6-4.7-11.2-10.7-10.5c-4.6,0.5-6.9,5.2-7.7,9.3c-0.8,4.5-0.3,10,2.5,13.8
		c0.2,0.2,0.3,0.4,0.5,0.6c-0.4,0.1-0.8,0.2-1.2,0.3c-6.1,1.4-13.2,0.3-18.7-2.7c-5.6-3-9.5-8.4-11.4-14.4c-0.2-0.6-1.1-0.4-1,0.2
		c2,6.7,6.2,12.4,12.3,15.7c6.2,3.4,14.2,4.2,21,2.2c0,0,0.1,0,0.1,0c4.1,4,10.3,5.5,16,5c7.4-0.6,14.4-3.7,20.9-7.1
		c5.2-2.6,9.9-5.5,15.6-7c3.5-0.9,7.2-1.4,10.8-1.2c-3.1,4.4-4.3,10.2-2.1,15.2c2.6,5.9,10.4,6.2,15,2.6c4.7-3.7,2.6-11.4-0.9-15.1
		c-2.2-2.3-5.3-3.6-8.4-4.1c0.1-0.1,0.3-0.3,0.4-0.4c4-3.7,9.4-5.7,14.6-6.9c10.9-2.6,23-2.5,33.8,0
		C803.8,376,804.3,374.2,803.2,374z M685.7,390.4c-1.1-2.2-1.6-4.7-1.6-7.2c-0.1-4.1,1-10.3,5.7-11.6c2.2-0.6,4.8,0.4,6.7,1.6
		c2.6,1.7,3.2,5.1,2.7,8c-1.1,5.8-6.3,9.7-11.6,11.7C686.8,392.1,686.2,391.3,685.7,390.4z M755.8,385.5c5.2,1.6,9.5,7.2,7.8,12.9
		c-1,3.6-5.6,4.8-8.9,4.5c-3.2-0.3-5-3.1-5.7-6c-1-4.3,0.6-8.7,3.2-12.1C753.4,384.9,754.6,385.2,755.8,385.5z"/>
	<path class="st0" d="M633.6,370.1c-2.8,1-5.7,1.8-8.5,3c-3.1,1.4-6.1,3.2-9.2,4.7c0,0-0.1,0-0.1,0.1c-1-1.7-1.5-3.6-2.2-5.4
		c-1-2.2-2.1-4.3-3.1-6.5c-2.1-4.5-3.8-9.2-6.1-13.6c-0.1-0.1-0.2,0-0.2,0.1c1.5,4.5,3.4,9,5.4,13.3c1,2.2,2.1,4.4,3.1,6.6
		c0.9,2,1.4,4.2,2.6,6.1c0.1,0.2,0.4,0.2,0.6,0.1c0.1,0.1,0.3,0.2,0.6,0.1c2.8-1.3,5.4-2.9,8-4.3c3-1.5,6.1-2.9,9.2-4.1
		C633.7,370.2,633.7,370.1,633.6,370.1z"/>
	<path class="st0" d="M631.6,372.3c-3,0.7-5.6,2.4-8.3,3.7c-2.9,1.3-5.8,2.8-8.6,4.4c0,0-0.1,0-0.1,0.1c-0.8-1.2-1.1-2.6-1.4-4
		c-0.4-1.6-1.2-2.9-1.9-4.4c-1.8-3.5-3.4-7-4.8-10.6c0-0.1-0.2-0.1-0.2,0c0.5,3.7,2.3,7.2,3.9,10.5c0.9,1.7,1.7,3.3,2.2,5.1
		c0.4,1.4,0.8,2.8,1.7,4c0.1,0.2,0.4,0.1,0.5,0c0.1,0.1,0.3,0.1,0.5,0c2.6-1.5,5.3-2.9,8-4.2c2.8-1.3,5.6-3.3,8.6-4.1
		C632.1,372.8,632,372.2,631.6,372.3z"/>
	<path class="st0" d="M652.2,357.4c0.1,0,0.2-0.1,0.2-0.2c0.1,0,0.2,0.1,0.2,0.1c0.5,0.2,0.7-0.6,0.2-0.7c-4.2-1.6-7.3-5.1-11.3-7.1
		c-0.2-0.1-0.4,0.2-0.2,0.3c3.4,2.3,6.4,5.3,10.1,7c-1.6,0.7-3,1.6-4.5,2.4c-2.2,1.1-4.5,2.1-6.7,3.2c-0.2,0.1-0.1,0.4,0.1,0.3
		c1.9-0.8,3.9-1.5,5.8-2.4C648.2,359.4,650.1,358.2,652.2,357.4z"/>
	<path class="st0" d="M597.3,323.1c-4.1-2.4-7.7-5.8-11.7-8.4c-0.5-0.3-0.9,0.4-0.4,0.7c4,2.6,7.6,5.8,11.9,8.1
		C597.4,323.5,597.6,323.2,597.3,323.1z"/>
	<path class="st0" d="M582.3,314.9c-1.2-2-2.5-4-3.5-6.1c-0.1-0.1-0.3,0-0.2,0.1c0.5,2,1.8,4,2.9,5.8c1.2,2.1,2.7,4.1,3.7,6.3
		c0.2,0.4,0.8,0.1,0.6-0.3C584.8,318.7,583.4,316.9,582.3,314.9z"/>
	<path class="st0" d="M581.7,316.1c-1-1.5-2.5-3-3-4.8c-0.1-0.2-0.3-0.1-0.3,0.1c0.2,1.5,1.3,2.8,2.1,4c1.1,1.7,2.3,3.4,3.3,5.2
		c0.3,0.4,0.9,0,0.7-0.4C583.5,318.8,582.6,317.4,581.7,316.1z"/>
	<path class="st0" d="M664.8,342.7c-1.1,1.3-2.3,2.8-3.1,4.3c-0.2,0.3,0.3,0.6,0.5,0.3c1-1.8,2.4-3.5,3.8-5.1
		c1.2-1.4,2.6-2.5,3.5-4.1c0.1-0.2-0.2-0.3-0.3-0.2C668,339.7,666.2,341.1,664.8,342.7z"/>
	<path class="st0" d="M660.6,346.5c-0.2,0.3,0.3,0.6,0.5,0.3c1.8-2.9,4.3-5.4,6.6-7.9c0.1-0.1-0.1-0.4-0.2-0.2
		C664.9,341.1,662.4,343.6,660.6,346.5z"/>
	<path class="st0" d="M659.6,346.2c-0.2,0.3,0.3,0.6,0.5,0.3c1.7-2.3,3.4-5.1,5.6-6.9c0.1,0,0-0.1-0.1-0.1c-1.1,0.3-2.1,1.8-2.8,2.6
		C661.6,343.4,660.6,344.8,659.6,346.2z"/>
	<path class="st0" d="M660.5,342.9c-0.7,0.8-1.7,1.6-2.2,2.6c-0.1,0.3,0.3,0.6,0.4,0.3c0.5-0.9,1.4-1.7,2.1-2.5
		c0.9-1,1.8-1.9,2.8-2.8c0.2-0.2-0.1-0.4-0.2-0.2C662.4,341,661.4,341.9,660.5,342.9z"/>
	<path class="st0" d="M658,345.6c0.8-1.7,2.5-3,3.3-4.7c0,0,0-0.1,0,0c-0.4,0.1-1.1,1.1-1.3,1.4c-0.8,0.9-1.8,1.9-2.4,3
		C657.4,345.6,657.8,345.9,658,345.6z"/>
	<path class="st0" d="M656.9,345.1c0.4-0.4,0.6-0.9,1-1.4c0.5-0.6,0.9-1.3,1.3-1.9c0.1-0.2-0.1-0.4-0.3-0.2c-0.9,1-1.6,2.1-2.4,3.1
		C656.4,345,656.7,345.3,656.9,345.1z"/>
	<path class="st0" d="M669.6,342.6c-1.1,1.2-2.1,2.4-3.2,3.6c-1,1.1-2.2,2.4-2.9,3.8c0,0.1,0,0.1,0,0.2c-0.4,1.4-0.9,2.8-1.3,4.3
		c-0.3,1.2-0.8,2.3-0.9,3.5c0,0.1,0.2,0.1,0.2,0c0.5-2.6,1.7-5.2,2.5-7.6c0-0.1,0-0.1,0-0.2c1.5-2.7,4.1-4.8,5.7-7.4
		C669.8,342.6,669.7,342.5,669.6,342.6z"/>
</g>
</svg>
