<svg version="1.1" id="Capa_1" xmlns="http://www.w3.org/2000/svg" x="0" y="0" viewBox="0 0 1177 598.5" xml:space="preserve"><style>.st2{fill:tomato}.st3{stroke:#f2f2f2;stroke-width:2;stroke-miterlimit:10}.st3,.st4{fill:none}.st5{fill:#fff;stroke:#fff;stroke-width:2;stroke-miterlimit:10}.st7{fill:#f38855}.st9{fill:#e57d58}.st10{fill:#792c1d}.st11{opacity:.29;fill:#6c1d08;enable-background:new}.st12{fill:#ffa765}.st13{fill:#3f1b08}.st14{fill:#ffead7}.st15{fill:#d87258}.st16{fill:#b05658}.st17{fill:#814a3b}.st18{fill:#fff}.st19{fill:#8b3c2c}.st20{fill:#b45a47}.st21{fill:#ce6a58}.st22{fill:#84301f}.st23{opacity:.15;fill:#6c1d08;enable-background:new}.st24{fill:#ffb176}.st25,.st26,.st27{fill:#9b90ac}.st26,.st27{opacity:.5;enable-background:new}.st27{fill:#fff}.st28{fill:#b2a9bf}.st29{fill:#c4bdce}.st30{opacity:.29;fill:#901d40;enable-background:new}.st31{fill:#e4754c}.st32{fill:#ffbf4d}.st33{fill:#e1671f}.st34{fill:#cb4f18}.st35{opacity:.5;fill:#f38855;enable-background:new}.st36{fill:#b35a3e}.st37{fill:#b04718}.st38{fill:#76668d}.st39{fill:#88a9bf}.st40{opacity:.2;fill:#9b90ac;enable-background:new}.st41{fill:#c2431f}.st42{opacity:.8;fill:#f38855;enable-background:new}.st43{fill:#d06b4c}.st44{fill:#e14a1f}.st45{fill:#cb431f}.st46{fill:#eb5b1f}.st48{fill:#472345}.st49{fill:#3f0b13}.st50{fill:#998b98}.st51{fill:#603566}.st52{fill:#71556f}.st55{fill:#847799}.st57{fill:#6b3047}.st58{fill:#59a9bf}.st59{fill:#72c5d4}.st61{fill:#38b4ac}.st63{fill:#3fd1db}.st66{fill:#d4cfdb}.st68{opacity:.57;fill:#ffffed;enable-background:new}</style><path d="M102.9 25.7h967.8c13.7 0 24.9 11.2 24.9 24.9v506.6c0 13.7-11.2 24.9-24.9 24.9H102.9c-13.7 0-24.9-11.2-24.9-24.9V50.7c-.1-13.8 11.1-25 24.9-25z" fill="#f2f2f2"/><path d="M1095.6 50.7v14.1H77.9V50.7c0-13.7 11.2-24.9 24.9-24.9h967.8c13.8-.1 25 11.1 25 24.9z" fill="#6e6f75"/><circle class="st2" cx="104.2" cy="45.9" r="7.3"/><circle class="st2" cx="122.5" cy="45.9" r="7.3"/><circle class="st2" cx="140.8" cy="45.9" r="7.3"/><path class="st4" d="M262.7 290.7c-17-2.8-33.7 2-42.4 18.5-.4.5-.6 1.1-.9 1.6-7.8 15.6-1.5 34.9 14 42.9 11 5.8 23.6 4.3 32.8-2.5-7.1 3.7-15.7 3.9-23.5-.1-12.8-6.7-18-22.5-11.6-35.5 6.3-12.8 21.9-18 34.7-11.3.3.1.5.3.8.4 11.2 7.9 17.8 21.8 15.6 36.3-2.9 20.3-21.5 34.6-41.4 30.9-4.9-1-8.9-2.8-12.5-4.8-1.6-1-3.1-2-4.7-3.1-2.8-2.1-5-4.4-7.1-6.4-7.2-7.7-12-17.3-13.5-28-4.2-29.7 18.6-57.3 50.8-61.6 4.3-.6 8.4-.8 12.5-.5-8.7-2.5-18.3-3.3-28.2-2-35 4.7-59.7 34.5-55.1 66.7 4.4 32.2 36.5 54.5 71.5 49.9 5.9-.8 11.5-2.3 16.7-4.4 3.3-1.1 6.3-2.6 9.2-4.5.3-.1.4-.3.6-.4h-.1c9.9-6.7 17.1-17.5 19-30.5 3.8-24.7-12.9-47.6-37.2-51.6z"/><path class="st4" d="M265.8 267.4h.7c-8.7-2.5-18.3-3.3-28.2-2-10.9 1.4-20.8 5.4-29.3 11 8.3-5.6 18.1-9.5 29.1-10.9 9.7-1.3 19.1-.5 27.7 1.9zM203 329.6c1.5 10.7 6.3 20.3 13.5 28 2.1 2 4.3 4.3 7.1 6.4 1.6 1.1 3.1 2.1 4.7 3.1 3.6 2 7.6 3.8 12.5 4.8 5.6 1 11.1.7 16.1-.9-5 1.5-10.4 1.8-15.9.8-4.9-1-9-2.8-12.5-4.8-1.7-1-3.2-2-4.7-3.1-2.8-2.1-5.1-4.4-7.1-6.4-7.2-7.7-12-17.3-13.5-28-3.3-23.2 9.9-45 31.1-55.6-21.3 10.5-34.6 32.5-31.3 55.7z"/><path class="st4" d="M231.1 315.6c-6.4 13-1.2 28.8 11.6 35.5 7.3 3.8 15.3 3.8 22.2.7-6.7 3-14.8 3-22-.8-12.9-6.7-18-22.5-11.6-35.5 2.5-5.2 6.6-9.1 11.4-11.5-4.9 2.4-9 6.4-11.6 11.6zM281 372.8c-.1.1-.2.2-.3.2.1 0 .1-.1.3-.2zM262.6 353.5c1.3-.7 2.6-1.5 3.8-2.4-.2.1-.4.2-.5.3.1-.1.2-.1.3-.2-1.1.8-2.3 1.6-3.6 2.3z"/><path class="st4" d="M262.7 290.7c24.4 4 41 26.9 37.3 51.6-1.9 13-9.1 23.8-19 30.5h.1c.1 0 .1-.1.2-.1h-.1c9.9-6.7 17.1-17.5 19-30.5 3.5-24.6-13.1-47.5-37.3-51.6-9.6-1.6-19.1-.7-27.2 3.3 8.1-3.9 17.5-4.8 27-3.2zM276.1 375.7c1.5-.8 3-1.6 4.5-2.6 0 0-.1.1-.2.1-1.4.9-2.8 1.8-4.3 2.5z"/><path class="st4" d="M183.2 332.1c4.4 32.3 36.5 54.6 71.5 49.9 5.9-.7 11.4-2.3 16.7-4.4 1.6-.5 3.2-1.2 4.7-1.9s2.9-1.6 4.3-2.5c.1 0 .1 0 .2-.1s.2-.2.3-.2h-.1c9.9-6.7 17.1-17.5 19-30.5 3.7-24.7-12.9-47.6-37.3-51.6-9.5-1.6-18.9-.7-27 3.2-6.2 3.1-11.4 8-15.2 15.2-.4.5-.6 1.1-.9 1.6-7.8 15.6-1.5 34.8 14 42.9 9.5 5 20.2 4.6 29-.1 1.2-.7 2.4-1.4 3.6-2.3-.1.1-.2.1-.3.2-.3.1-.6.3-.9.4-6.9 3.1-14.9 3.1-22.2-.7-12.8-6.7-18-22.5-11.6-35.5 2.6-5.2 6.7-9.2 11.6-11.6 7.1-3.6 15.7-3.8 23.2.2.3.1.5.3.8.4 11.2 8 17.7 21.8 15.6 36.3-2.1 14.7-12.4 26.2-25.5 30.1-5.1 1.5-10.5 1.9-16.1.9-4.9-1-8.9-2.8-12.5-4.8-1.6-1-3.1-2-4.7-3.1-2.8-2.1-5-4.4-7.1-6.4-7.2-7.7-12-17.3-13.5-28-3.3-23.2 10-45.2 31.3-55.7 6-3 12.6-5.1 19.7-6 4.1-.6 8-.8 11.8-.5-8.6-2.4-18-3.1-27.7-1.9-10.8 1.5-20.7 5.3-29.1 10.9-18 12.4-28.7 33.5-25.6 55.6z"/><path class="st2" d="M308.7 224.2c8.3 0 12.7-4.6 12.7-13.1 0-8.6-4.4-13.1-12.7-13.1-8.3 0-12.7 4.6-12.7 13.1s4.4 13.1 12.7 13.1z"/><path class="st2" d="M77.9 64.8v493.6c0 13.5 11.2 24.4 25 24.4h302.7v-518H77.9zm230.8 128.8c11 0 17.5 6.5 17.5 17.5s-6.5 17.5-17.5 17.5-17.5-6.5-17.5-17.5c.1-11.1 6.5-17.5 17.5-17.5zm-57.9-12.3h4.6v17.1c3-3.1 7.3-4.8 12.8-4.8 10.8 0 17.1 6.5 17.1 17.5s-6.3 17.5-17.1 17.5c-5.6 0-9.9-1.7-12.9-4.9l-.9 4.6h-3.6v-47zm-27.3 12.3c5.5 0 9.9 1.6 12.8 4.8l1-4.6h3.5v34.5h-3.5l-1-4.6c-2.9 3.2-7.3 4.9-12.8 4.9-10.8 0-17.1-6.5-17.1-17.5 0-11.1 6.3-17.5 17.1-17.5zm-45.4-10s17.4-.4 20.5 14.2h-4.4c-3.5-11-16-10.2-16-10.2-11.4 0-17.7 6.6-17.7 18.4 0 11.9 6.3 18.5 17.7 18.5 10.6 0 17.1-6 17.5-15.1h-17.5v-4.1h22.1c.3 2 .4 7.7-2.5 13.1-3.5 6.5-10.4 10.1-19.6 10.1-14.2 0-22.5-8.3-22.5-22.5-.1-14.1 8.2-22.4 22.4-22.4zm-28.3 266.5h-24.2v-33.4h23.5v3h-19.8v12.2h19.1v3.1h-19.1v12h20.5v3.1zm29 0h-3.4v-14.3c0-1.6 0-4.8-1.9-6.6-1.2-1.2-3.5-2-5.9-2-2 0-4.2.5-6 1.8-2.8 1.9-3.1 4.8-3.2 6.5v14.6H155v-25.9h2.7l.8 3.4c1.1-1 4.2-3.6 9.7-3.6 6.4 0 10.6 3.3 10.6 10.8v15.3zm26 0h-3.4v-35.4h3.4v35.4zm32.5 0h-2.7l-.7-3.5c-2.2 2.4-5.5 3.7-9.6 3.7-8.1 0-12.9-4.9-12.9-13.2 0-8.3 4.8-13.2 12.9-13.2 4.2 0 7.4 1.2 9.6 3.6l.7-3.4h2.7v26zM183 332.2c-3.2-22.2 7.6-43.3 26.1-55.8 8.3-5.7 18.2-9.6 29.3-11 9.8-1.3 19.4-.5 28.2 2h-.7c.2 0 .3.1.5.1-4.1-.3-8.2-.1-12.5.5-7 .9-13.5 3-19.5 5.9-21.2 10.6-34.4 32.4-31.1 55.6 1.5 10.7 6.3 20.3 13.5 28 2 2 4.3 4.3 7.1 6.4 1.5 1.1 3 2.1 4.7 3.1 3.5 2 7.6 3.8 12.5 4.8 5.5 1.1 10.9.7 15.9-.8 12.9-3.9 23.1-15.4 25.3-30 2.2-14.5-4.4-28.4-15.6-36.3-.3-.1-.5-.3-.8-.4-7.5-4-16-3.8-23-.3-4.8 2.4-8.8 6.3-11.4 11.5-6.4 13-1.3 28.8 11.6 35.5 7.2 3.7 15.3 3.8 22 .8.3-.1.6-.3.9-.4.2-.1.4-.2.5-.3-1.2.9-2.5 1.7-3.8 2.4-8.7 4.8-19.5 5.3-29.2.2-15.5-8-21.8-27.3-14-42.9.3-.5.5-1.1.9-1.6 3.8-7.3 9.2-12.2 15.4-15.3 8-4 17.5-4.9 27.2-3.3 24.2 4.1 40.8 27 37.3 51.6-1.9 13-9.1 23.8-19 30.5h.1c-.1 0-.1.1-.2.1-.1.1-.2.2-.3.2 0 0-.1 0-.1.1-1.5 1-3 1.8-4.5 2.6-1.6.8-3.2 1.4-4.9 2-5.2 2.1-10.8 3.6-16.7 4.4-35.2 4.6-67.3-17.7-71.7-49.9zm109.7 117.9h-3.4l-9.4-27.4-9.4 27.4H267l-11.3-33.4h3.9l9.1 28.5 9.8-28.5h2.5l9.8 28.5 9.1-28.5h3.9l-11.1 33.4zm39.2-11.6h-21.8v.2c0 5.4 3.6 8.4 9.5 8.4 3.6 0 6.7-1.2 8.6-3.5l2.2 2.3c-2.3 2.9-6.2 4.5-10.9 4.5-8.3 0-13.2-4.9-13.2-13.2s4.9-13.2 13.2-13.2c4.2 0 7.6 1.3 9.8 3.8 2.4 2.4 3.2 6.2 2.6 10.7zm19.3 11.8c-4.2 0-7.4-1.3-9.7-3.7l-.7 3.5h-2.7v-35.4h3.4v12.8c2.2-2.3 5.5-3.6 9.6-3.6 8.1 0 12.9 4.9 12.9 13.2s-4.7 13.2-12.8 13.2z"/><path class="st2" d="M350.9 427.2c-6.3 0-9.6 3.4-9.6 9.9s3.3 9.9 9.6 9.9 9.5-3.4 9.5-9.9-3.2-9.9-9.5-9.9zM224.6 427.2c-6.3 0-9.6 3.4-9.6 9.9 0 6.4 3.3 9.9 9.6 9.9s9.6-3.4 9.6-9.9-3.4-9.9-9.6-9.9zM319.6 427.2c-5.8 0-9.5 3.1-9.5 8.4v.1h18.7c.1-2.7-.5-4.6-1.9-6-1.6-1.6-4.1-2.5-7.3-2.5zM223.9 224.2c8.3 0 12.7-4.6 12.7-13.1 0-8.6-4.4-13.1-12.7-13.1-8.3 0-12.7 4.5-12.7 13.1-.1 8.5 4.4 13.1 12.7 13.1zM267.8 224.2c8.3 0 12.7-4.6 12.7-13.1 0-8.6-4.4-13.1-12.7-13.1-8.4 0-12.7 4.6-12.7 13.1-.1 8.5 4.3 13.1 12.7 13.1zM265 351.8c.3-.1.6-.3.9-.4-.3.1-.6.2-.9.4zM281 372.8zM254 267.9c-7.1.9-13.7 3-19.7 6 5.9-2.9 12.5-5 19.5-5.9 4.3-.6 8.4-.8 12.5-.5-.2 0-.3-.1-.5-.1-3.8-.3-7.7-.1-11.8.5z"/><path class="st2" d="M282.4 340.9c2.1-14.5-4.4-28.3-15.6-36.3-.3-.1-.5-.3-.8-.4-7.6-4-16.2-3.8-23.2-.2 7-3.5 15.5-3.7 23 .3.3.1.5.3.8.4 11.2 7.9 17.8 21.8 15.6 36.3-2.1 14.6-12.3 26.1-25.3 30 13.1-3.9 23.4-15.4 25.5-30.1zM280.6 373.1z"/><path class="st2" d="M276.1 375.7c-1.5.7-3 1.4-4.7 1.9-5.3 2.1-10.8 3.7-16.7 4.4-35 4.7-67-17.6-71.5-49.9-3.1-22.1 7.6-43.2 25.9-55.7-18.4 12.5-29.3 33.5-26.1 55.8 4.4 32.2 36.5 54.5 71.5 49.9 5.9-.8 11.5-2.3 16.7-4.4 1.7-.6 3.3-1.2 4.9-2z"/><path class="st2" d="M233.6 353.6c-15.5-8.1-21.8-27.3-14-42.9.3-.5.5-1.1.9-1.6 3.8-7.2 9.1-12.1 15.2-15.2-6.2 3.1-11.6 8.1-15.4 15.3-.4.5-.6 1.1-.9 1.6-7.8 15.6-1.5 34.9 14 42.9 9.6 5.1 20.4 4.6 29.2-.2-8.7 4.7-19.4 5.1-29 .1z"/><path class="st5" d="M178.1 228.5c9.3 0 16.2-3.5 19.6-10.1 2.9-5.3 2.7-11 2.5-13.1h-22.1v4.1h17.5c-.4 9.1-6.9 15.1-17.5 15.1-11.4 0-17.7-6.6-17.7-18.5s6.3-18.4 17.7-18.4c0 0 12.6-.8 16 10.2h4.4c-3-14.6-20.5-14.2-20.5-14.2-14.2 0-22.5 8.3-22.5 22.4.1 14.2 8.4 22.5 22.6 22.5zM223.5 228.5c5.5 0 9.9-1.7 12.8-4.9l1 4.6h3.5v-34.5h-3.5l-1 4.6c-2.9-3.2-7.3-4.8-12.8-4.8-10.8 0-17.1 6.5-17.1 17.5s6.3 17.5 17.1 17.5zm.4-30.6c8.3 0 12.7 4.5 12.7 13.1s-4.4 13.1-12.7 13.1c-8.3 0-12.7-4.6-12.7-13.1-.1-8.6 4.4-13.1 12.7-13.1zM255.3 223.7c3 3.2 7.3 4.9 12.9 4.9 10.8 0 17.1-6.5 17.1-17.5s-6.3-17.5-17.1-17.5c-5.5 0-9.8 1.7-12.8 4.8v-17.1h-4.6v47h3.6l.9-4.6zm12.5-25.8c8.3 0 12.7 4.6 12.7 13.1 0 8.6-4.4 13.1-12.7 13.1-8.4 0-12.7-4.6-12.7-13.1-.1-8.5 4.3-13.1 12.7-13.1zM308.7 228.5c11 0 17.5-6.5 17.5-17.5s-6.5-17.5-17.5-17.5-17.5 6.5-17.5 17.5c.1 11.1 6.5 17.5 17.5 17.5zm0-30.6c8.3 0 12.7 4.5 12.7 13.1s-4.4 13.1-12.7 13.1c-8.3 0-12.7-4.6-12.7-13.1s4.4-13.1 12.7-13.1zM129.2 434.9h19.2v-3h-19.2v-12.2h19.9v-3h-23.5v33.4h24.2V447h-20.6zM168.2 423.9c-5.5 0-8.6 2.6-9.7 3.6l-.8-3.4H155V450h3.4v-14.6c0-1.7.3-4.6 3.2-6.5 1.8-1.2 4-1.8 6-1.8 2.4 0 4.6.8 5.9 2 1.9 1.8 1.9 5 1.9 6.6V450h3.4v-15.4c0-7.3-4.2-10.7-10.6-10.7zM201.3 414.7h3.4v35.4h-3.4zM233.9 427.6c-2.2-2.4-5.5-3.6-9.6-3.6-8.1 0-12.9 4.9-12.9 13.2 0 8.3 4.8 13.2 12.9 13.2 4.2 0 7.4-1.3 9.6-3.7l.7 3.5h2.7v-26h-2.7l-.7 3.4zm-9.3 19.4c-6.3 0-9.6-3.4-9.6-9.9s3.3-9.9 9.6-9.9 9.6 3.4 9.6 9.9-3.4 9.9-9.6 9.9zM291 445.2l-9.9-28.5h-2.6l-9.8 28.5-9.1-28.5h-3.9l11.3 33.4h3.4l9.4-27.4 9.5 27.4h3.4l11.3-33.4h-3.9zM319.6 423.9c-8.3 0-13.2 4.9-13.2 13.2s4.9 13.2 13.2 13.2c4.7 0 8.5-1.6 10.9-4.5l-2.2-2.3c-2 2.3-5 3.5-8.6 3.5-5.9 0-9.5-3-9.5-8.4v-.2H332c.6-4.5-.2-8.3-2.4-10.8-2.4-2.3-5.7-3.7-10-3.7zm9.2 11.8h-18.7v-.1c0-5.3 3.7-8.4 9.5-8.4 3.2 0 5.6.9 7.3 2.5 1.4 1.4 2 3.4 1.9 6zM351.2 423.9c-4.2 0-7.4 1.3-9.6 3.6v-12.8h-3.4v35.4h2.7l.7-3.5c2.2 2.4 5.5 3.7 9.7 3.7 8.1 0 12.9-4.9 12.9-13.2s-4.9-13.2-13-13.2zm-.3 23.1c-6.3 0-9.6-3.4-9.6-9.9s3.3-9.9 9.6-9.9 9.5 3.4 9.5 9.9-3.2 9.9-9.5 9.9z"/><g><ellipse cx="744.4" cy="500.6" rx="290.4" ry="23" opacity=".29" fill="#bf9c93"/><path class="st7" d="M511.8 303.6l-1.3.1-1.6-2.2 1.3-.1z"/><path d="M513.7 302.8c-.3.4-1.6 1.1-1.9.8l-1.7-1.7.3 1.8s-.2.3-.4.5c-.2.3-.7.4-1.1.4-.4.1-1.2.2-1.3.4s-.6.1-1.1.3c-.4.1-.9.4-1.9.3-.4-.1-1.2-.3-2.1-.7-1.2-.4-2.6-1.2-3.8-2.1-2-1.5-4.7-2.1-4.7-2.4-.1-.4.1-1.8.1-1.8s3.1-4.8 3.9-4.9 3.5 2.5 3.5 2.5.2.1.4.4c1.2.8 4.1 3 5.3 3.2 1.3.4 4.6.2 4.8.4.3 0 2 2.2 1.7 2.6z" fill="#fa9f57"/><path class="st7" d="M499.2 301.8c.7.5 2.9 2.7 3.3 3-1.2-.4-2.6-1.2-3.8-2.1-2-1.5-4.7-2.1-4.7-2.4-.1-.4.1-1.8.1-1.8s3.1-4.8 3.9-4.9c.7-.1 3.5 2.5 3.5 2.5s.2.1.4.4c-.2 0-2.9-.6-3.3-.5-.5.1-2.2 2.1-2.1 3 0 .5 1.9 2.1 2.7 2.8z"/><path class="st9" d="M523.6 294l.2 1.6s8.9-.9 11.8-1.5c3-.6 7.6-1.3 7.8-1.5.2-.3-.8-2.2-1.3-2.5-.4-.3-6.9 0-9.7.4s-5.3.1-5.6-.2c-.4-.3-.8-.5-1.7-.4-.7.1-1.5 4.1-1.5 4.1z"/><path class="st10" d="M526.8 270.1s-1.1-.2-1.3-1.4c0 0 2 13.6.2 19.6l1.3 2s-.6-.5-1.4-.1c-.8.4-1.6 3.8-1.9 3.9-.3.1-.3-2.4-.3-2.4l-.7.1s.5-2.1.4-2.9-6.1-14.9-7.4-17.1c-1.3-2.2-9-10.5-9-10.5l.8-9.7.2-2.5 5.8-1.9 3.5-1.2s.4.6.9 1.8c2.2 4.9 8.9 18.5 8.9 22.3z"/><path class="st11" d="M526.9 290.3s-.6-.5-1.4-.1c-.8.4-1.6 3.8-1.9 3.9-.3.1-.3-2.4-.3-2.4l-.7.1s.5-2.1.4-2.9-6.1-14.9-7.4-17.1-9-10.5-9-10.5l.8-9.7 1.6-1.2 4.3-3.2 3.5-1.2s.4.6.9 1.8c0 0-.5 13.9-2.1 18.7 0 0 2 5 3.3 8.8s4.7 11.5 5.4 12 1.3.9 1.3.9l1.3 2.1z"/><path class="st12" d="M562.2 203.5s-.3 3.8-2.8 7.8c-1.3 2.1-3.1 4.1-5.8 5.7-.2.1-.4.3-.5.4 0 0-.9-.4-2.3-.9-.9-.3-2.1-.6-3.4-.9-.4-.1-.6-.1-1-.2-2.7-.4-5.9-.4-9.2.5l1.1-1.2s-2.1.3-3.7 1.1c0 0 .2-1.4 1-3.4 1-2.4 3-5.6 6.7-8.1.2-.2.4-.3.7-.4 0 0-2.5-3.3-1.2-7.1 0 0 .4-.1 2.1-.3 1-.1 2.8 0 4.5-.4 2.7-.6 6.2-1 6.2-1 0 .4.1 1.1.3 1.8.3 1.4.8 3.1 1.7 4l4.6 2.7 1-.1z"/><path class="st7" d="M559.4 211.3c-1.3 2.1-3.1 4.1-5.8 5.7 0 0-1.3-.2-2.9-.5-1.3-.3-3-.6-4.5-1.1-1.8-.4-3.4-1.1-4.3-1.6-2.5-1.6-2.7-5.3-2.7-5.3l2.9-4.2c.2-.2.4-.3.7-.4 0 0-2.5-3.3-1.2-7.1 0 0 .4-.1 2.1-.3 1-.1 2.8 0 4.5-.4 2.7-.6 6.2-1 6.2-1l.1.9s-5.7 3.6-9.8 2.6c0 0-.5 3.5 2.3 5.7 0 0-.9 5.1 3.4 7.8 4 2.8 8.8-.6 9-.8zM540.7 281.2s-2 2.1-2.5 2.9c-.5.7-.9 8.5-.7 9.9.1.6 1.8-.4 2.4-1.8.6-1.4 0-4.9.4-5.4.4-.4 1.1 2.8 1 3.6-.1.9-.8 2-1.2 2.1-.3 0-1.8-.1-2.1.4s3.3 1.5 3.9 1.4c.4-.1 1.1-.7 1.6-.8.5-.1 1.5-.1 1.7-.4s.6-.6 1-.7-1-12.2-1-12.2l-2.6-1.4-1.9 2.4z"/><path class="st10" d="M543.7 221.5v10.6c0 14.9 0 40.6-.2 45.1l1.1 3.2s-2.2-.4-2.6-.6c0 0-.7 1.4-1.9 1.6 0 0 .2-5.8-.1-7.9s-4.4-22.5-4.8-25.5c-.4-3-1.2-13.3-1.2-13.3l6.8-9.3 2.9-3.9z"/><path class="st11" d="M543.7 221.5v10.6l-6.4 14.3-2.4-9.4 5.9-11.5 2.9-4z"/><path class="st9" d="M550.8 216.5c-.1 0-.8-.1-1.9.3-1 .3-2.2.8-3.6 2.1-1.1 1-2.5 4.3-3.9 7.8-1.8 4.7-3.7 9.8-5.1 10.7-2.4 1.5-12.8 4.8-17.9 7.7-2.9 1.6-4 5-5.9 7.3-1.5 1.8-4.1 2.6-4.1 2.6s-.9-4-1.4-8.1c-.2-1.8-.4-3.7-.3-5.2.2-5.1 18.9-18.2 18.9-18.2l11.9-10.4 4.8.1h.3l1.2.8 2.4 1.7.8.2 3.8.6z"/><path class="st13" d="M554.8 203.8c.3.2 1.8-.5 1.9-.7.1-.2-.2-.1-.2-.1s.8-.5 1.8-.2c0 0-1-1-1.9-.7-1 .4-1.6 1.7-1.6 1.7z"/><path class="st7" d="M548.8 204c1.7.3 3.3-.9 3.8-1.7.4-.8-.5-4.4-1-4.7s-6.4.2-7.1.9c-.5.7.2 4.8 4.3 5.5z"/><path class="st14" d="M550.8 200.2s-.9 0-1.3.1-2.9 1.7-2.9 1.7 1.7 1.4 2.9 1.3c1.1-.2 1.6-1 1.6-1s.4-1.5.3-1.8c0-.3-.6-.3-.6-.3z"/><path class="st15" d="M551.4 199.9s-2.2-1.3-2.7-1.1c-1 .4-2.1 2.9-2.1 3.3 0 0 1.8-2 4.8-2.2z"/><path class="st16" d="M547.4 202.5s1.4.7 2.2.5c.8-.1 1.4-.8 1.4-.8s-.6 1.2-1.5 1.3c-.6 0-2.1-1-2.1-1z"/><path class="st17" d="M549 200.6s.5 2.2 1.3 2.1c1.3-.1 1.2-2 1.1-2.6 0 0-1.5-.5-2.4.5z"/><path class="st13" d="M546.6 202.1s2.9-1.9 5.3-2.1c0 0-.9-.4-1.6-.3-2 .5-3.7 2.4-3.7 2.4z"/><path class="st16" d="M546.6 202.1s.4-1.2 1.3-2.7c.1 0-1.3 1-1.3 2.7z"/><ellipse transform="rotate(-7.325 549.195 201.805)" class="st18" cx="549.2" cy="201.8" rx=".4" ry=".2"/><path class="st19" d="M558.9 202.6l-.6.4s-1-.7-1.9-.3-1.6 1.3-1.6 1.3c-1.6.4-1.5-.5-1.5-.5 1.1-1.3 4.4-3.3 4.7-3s.9 2.1.9 2.1z"/><path class="st20" d="M558 200.4s-.1.7-1.8 1.3c-1.6.4-2.9 1.6-3 1.8 1.1-1.5 4.5-3.4 4.8-3.1z"/><path class="st7" d="M542.6 292s-1.7.2-1.5 1.2 1.3 2.9 1.3 2.9l1.3-1-1.1-3.1z"/><path class="st20" d="M560.4 203.5s-3.2 1.4-5.3 3.1c0 0 4.5-2.4 7.1-3l-1.3.2-.5-.3z"/><path class="st10" d="M549 216.8c-1 .3-2.2.8-3.6 2.1-.4.3-.6.7-1 1.3-.9 1.5-1.9 3.9-2.9 6.4-3.2-3.9-8.5-4.3-12 .3-3.5 4.5-16.2 14.4-18.4 17.3-1 1.3-1.6 3.5-2 5.6-.5 2.7-.6 5.1-.6 5.1-2.1 1-4.1 1.3-5.8 1.2-7.2-.7-10.8-9.2-10.8-9.2 3.7-6.4 13.5-11.6 20.2-16.8 6.7-5.3 19-18.2 19-18.2l4.6-2.6 6.7 3.9 1.3.8 3.3 1.9 1.7 1c.2-.2.3-.1.3-.1z"/><path class="st11" d="M549 216.8c-1 .3-2.2.8-3.6 2.1-.4.3-.6.7-1 1.3 0 0-6.1-4.8-9.9-4.3 0 0 3.2-1.8 6-2.1 2.4-.3 7.2 2.2 8.3 2.9.1 0 .2.1.2.1zM512.6 252.3c-1.5 1.8-4.1 2.6-4.1 2.6-2.1 1-4.1 1.3-5.8 1.2l-.9-6.8 3.8-5.9s.5 1.6 1.5 3.5c.5 1 1.3 2.1 2.1 3 .9.9 2.1 1.8 3.4 2.4zM527.9 220.6s-5.9 18.4-6.4 20.2c-.2.9-.5 2.9-.5 2.9l9-3.8-2.1-19.3z"/><path class="st19" d="M554.3 195.1c-3.8 1.3-6.3 1.8-8.7 1.9-1.5 0-3-.2-3-.2-.8 5.1 3.3 7.4 3.3 7.4s-3.9 1.4-3.3 5.3c.6 4.9 4.5 5.9 4.7 6-2.9-.5-6.4-.7-10.2.4l1.1-1.2s-2.1.3-3.7 1.1c0 0 .2-1.4 1-3.4-.8-2.2-3.4-2.9-3.4-2.9-2-5.1-3-11.7-2.7-14.8.1-.7.3-1.3.5-1.4 1.5-1.2 8.6-3.9 14.9-2.8 4.4.8 7.5 2.9 8.9 4 .5.4.6.6.6.6z"/><path class="st11" d="M541.1 203.7s-4.7 5.9-5.6 8.7c-.8-2.2-3.4-2.9-3.4-2.9-2-5.1-3-11.7-2.7-14.8 0 .1 3.9 6.2 11.7 9z"/><path class="st9" d="M539 206.6s-3-5.5-6.4-6.1c-3.4-.7-6.1 2.6-5.6 6 .4 2.9 3.9 6.4 7 5.6 2.1-.5 2.5-2.2 3.6-3.7.7-1 1.4-1.8 1.4-1.8z"/><path class="st21" d="M536.8 207.4s-2-3-4-3.9c-2.1-.8-4.3 1.3-4.3 1.3s2-.3 4.2.4c2.3.8 4.1 2.2 4.1 2.2z"/><path class="st21" d="M532.1 209.5s1.4 0 2.3-.9c1.1-1.1.8-2.7.8-2.7l-1-.8s.6 1.6-.2 3c-.6 1.2-1.9 1.4-1.9 1.4z"/><path class="st12" d="M544.1 281.4s-.9 3.6-1.3 6.2-.2 7-.2 7l-.4.6s-.5-2.5-1.3-2.4.3 5.4.7 5.6c.4.4 2-.7 2.3-.7.4-.1 1.4.2 2.1.1.6-.1 2.1-.7 2.9-.8.8-.1 1.8-.8 2.1-1.4.2-.4-2.7-11.9-3.1-12.8-.3-.5-2-3.4-2-3.4l-1.8 2z"/><path class="st19" d="M548.9 279.8l-2.7.1c.4 2.6-2.1 4.1-2.1.6 0 0-1.1 1.6-1.6 1.7l1.3-2.5c-.4-.5-11.6-16.6-13.4-20.9 0 0 0 .1-.1.2 0 .1-.1.2-.1.4v.1c-.3.8-.5 1.2-.6 1.1-.1 0-.2-.1-.3-.3-.1-.4-.2-1.2-.2-2.2v-.3c0 .2-.4 1.7-.7 2.1h-.1c-.3-.7 2.3-11.1 1-21.2-.4-2.8-2.2-7.7-3.9-11.6-.4-1.1-.3-.8-.6-1.6 0-4.4 5-11.4 6.1-11.6 3.6-.4 3.3 10.3 4.9 21.4 1.2 8.1 3.2 15.6 4.1 19.2.1.4.3.9.4 1.4.1.2.1.4.2.5.1.4.2.7.3 1.1.1.3.1.4.2.7.3 1.2.6 2.3 1 3.6.1.3.1.4.2.7.1.2.1.4.2.6l.3.9c.2.9.4 1.7.7 2.6.1.4.2.7.3 1 .1.2.1.4.2.6.1.4.3.9.4 1.3.2.7.4 1.5.5 2.1.1.2.1.4.2.6.4 1.5.8 3 1.1 4.1.1.2.1.4.2.5v.1c0 .2.1.4.1.4.2.5.3 1.1.4 1.4.1.4.1.4.2.5l1.9.6zM507.9 275.9c1 4.7-.4 3-.9 2-.9 2.2-2.7 5.5-4.5 8.4-2.2 3.8-3.7 7-3.7 7.2.1.4 3.9 2.8 3.9 3-.2-.1-4-.6-4.5-.5s-4.1 3.9-4.1 3.9l-.3-.9-2 1.8c.2-.2 2.1-3.3 3-5.8.2-.4.3-.8.4-1.1.6-2.8 1.8-19.4 1.7-20.1-.1-1.3-.5-6.5-2.7-12.9-2.1-6.4-2.6-13.9-2.6-13.9 1.4-3.7 12.7-10.5 13.8-9.7 0 0-.4 7.5.7 14.4.1.5.2 1.1.3 1.5 1.7 5.3 4.3 13.8 1.5 22.7z"/><path class="st22" d="M541.1 203.7s-5.4 7.3-6.6 12.2c0 0 .5-3.3.8-4.5.1-1.1 3.3-5.8 5.8-7.7z"/><path class="st19" d="M542.2 215.3s6.4.7 9.9 3.4l-.2-1.3s1.2.6 3 2.7l-1.3-3c-.1 0-7-2.5-11.4-1.8z"/><ellipse transform="rotate(-23.059 555.614 201.884)" class="st14" cx="555.6" cy="201.9" rx=".5" ry=".2"/><path class="st7" d="M530.3 200.8s.1 1.4 1.2 1.9c1.5.5 3 1.2 4.8 3.6 0 0 1.1-.3 1.3-1.3.1-.8-3.9-5.2-7.3-4.2z"/><path class="st20" d="M529.9 193.2s2.4 1.2 10.9 2.2c8.6 1.1 13.5-.4 13.5-.4s-1.3-1.5-3.6-2.6c-4.4-2.1-12.6-4.3-20.8.8z"/><path class="st19" d="M551.7 196s2.8-.1 4.2-.8l-1.1-.2s1.8-1.3 1.4-1.5c-.4-.3-2.2 1.2-2.2 1.2s-.3.7-2.3 1.3z"/><path class="st23" d="M499.5 266.9c-1.5 5.4.6 16.1.7 17.5.1.8 1.3 1.4 2.3 1.9-2.2 3.8-3.7 7-3.7 7.2l-3.9 1.3c.2-.4.3-.8.4-1.1.6-2.8 1.8-19.4 1.7-20.1-.1-1.3-.5-6.5-2.7-12.9s-2.6-13.9-2.6-13.9c1.4-3.7 12.7-10.5 13.8-9.7 0 0-.4 7.5.7 14.4-2.2 4.3-5.8 11.8-6.7 15.4zM546.3 278.7c-1.4 1.8-2.6.9-2.6 1-.4-.5-11.6-16.6-13.4-20.9 0 0 0 .1-.1.2 0 .1-.1.2-.1.4v.1c-.2.4-.4 1.1-.6 1.1-.1 0-.2-.1-.2-.3-.2-.5-.2-1.7-.2-2.2v-.4c0 .2-.4 1.7-.7 2.1h-.1c-.3-.7 2.3-11.1 1-21.2-.4-2.8-2.2-7.7-3.9-11.6 1.7 4 6.3 13.8 6.5 21.4.2 4.8 4.4 7.3 8.1 6 .1.4.3.9.4 1.4.1.2.1.4.2.5.1.4.2.7.3 1.1.1.3.1.4.2.7.3 1.2.6 2.3 1 3.6.1.3.1.4.2.7.1.2.1.4.2.6l.3.9c.2.9.4 1.7.7 2.6.1.4.2.7.3 1 .1.2.1.4.2.6.1.4.3.9.4 1.3.2.7.4 1.5.5 2.1.1.2.1.4.2.6.4 1.5.8 3 1.1 4.1.1.2.1.4.2.5v.1c0 .2.1.4.1.4-.4.7-.3 1.2-.2 1.5z"/><path class="st24" d="M544.7 283s-.8 5.7-1 9c-.1 1.3-.4 3.5 0 4 .4.7 2-.3 2-.3s1.3.1 1.7.1c.4-.1 2.8-1.1 3.1-1.5s-2.3-10.4-2.8-11.2c-.4-.8-1-1.1-1-1.1l-2 1z"/><path class="st7" d="M509.3 304.5s-.4-1.5-.7-1.7c-.3-.2-1.9-.7-1.9-.7s1.4.7 1.6.9.5 1.6.5 1.6l.5-.1z"/><path class="st11" d="M525 226l-3.8.5 4.7 1.6z"/><path class="st10" d="M513.3 241.9s1.4-.8 2.5-.9c1.1-.2 1.5.1 1.5.1l-.5-.9s2 0 2.4-.6.4-2.9.4-2.9l.5 1.1 1-2.7c0-.1-7.5 4.5-7.8 6.8z"/><g><path class="st12" d="M681.5 260.9c-.1.1-1.5.7-1.5.7s.1.9-.1 1c-.4.4-1.4.7-1.8 1.2-.3.4-3.5 1.3-6.8 1.8l-1.5.3c-3.9.4-8.4.4-8.9.2-.4-.4-.4-2.8-.4-2.8l.8-2 .7-.3s1.3.5 2.2.7c.4.1 1.1.1 2 .1 1.7 0 3.8-.2 4.7-.3 1.3-.2 6.8-2.3 7.4-2.2.8-.1 3.3 1.5 3.2 1.6z"/><path class="st7" d="M680 261.6s-.9-.6-1.2-.7c-.5-.2-2.4-.1-2.4-.1s2.4-.4 2.8-.4 1.6.9 1.6.9l-.8.3zM679.1 263.1s-1.7-.5-1.8-.4c-.2.2 1 .9 1 .9l.8-.5zM671.3 265.6l-1.5.3c-3.9.4-8.4.4-8.9.2-.4-.4-.4-2.8-.4-2.8l.8-2 .7-.3s1.3.5 2.2.7c.4.1 1.1.1 2 .1 0 0-2.1.2-1.8 1.5.6 1.5 5.9 2.2 6.9 2.3z"/><path class="st9" d="M639.4 256s-2.9 2.5-2.9 3c0 .4 4 4.3 5.6 6 1.5 1.7 3.5 2.2 4.5 2.4 1 .2 6.1-.5 6.3-.8s.2-1 .2-1 1.2-.9 1.1-1.2c0-.3-.4-1-.5-1.2-.2-.2-3.2.5-4.1.3-.8-.4-6-4.8-6.3-5.9-.4-1.1-.9-1.8-.9-1.8l-2.1-.3-.9.5z"/><path class="st10" d="M661.2 234.8c-.4 1.6-1.1 3.9-1.9 6.3-.9 2.7-2 5.3-3 6.9-.3.5-.6.9-.8 1.2-.8.8-3.6 2.6-6.3 4.3-2.2 1.4-4.5 2.8-5.3 3.2-.1.1-.2.1-.2.1-.1 0-.1.1-.1.1s1.3 2 .9 2.1c-.4 0-1.6-1.5-1.6-1.5s.4 2.4-.4 2.5c-.9.1-2.6-3.9-2.6-3.9s-2.1-.1-2.1-.3 2-.4 2.3-.8c.4-.4 6-9.8 6.5-12.2s.1-16.1.1-16.1 15.6 3.9 14.5 8.1z"/><path class="st11" d="M658.7 236.1l.6 4.9c-.9 2.7-2 5.3-3 6.9 0 0-5.6-8.1-6.1-8.1-.5.1-.6 13-1 13.5-.4.4-4.1 2.6-5.3 3.2-.1.1-.2.1-.2.1-.1 0-.1.1-.1.1l-3.5-1.9c.4-.4 6-9.8 6.5-12.2.5-2.3.1-16.1.1-16.1l12 9.6z"/><path class="st12" d="M682.7 156.3s-.9 2-3.1 4c-1.7 1.6-4.1 3.2-7.4 4.1 0 0-6-1.9-9.3-3.9-1.1-.6-1.8-1.5-2.3-2.5l-.4-.6c-.7-1.6-.8-3.1-.8-3.1l.3-12 5.6-1.3 13 3.1v1.6c-.1 1.6-.1 3.8-.1 3.9 0 .3 2.5 3.8 3.5 6l1 .7z"/><path class="st7" d="M668.2 151.4s-3 4.9 1 8c3.9 3 10.4 1 10.4 1-1.7 1.6-4.1 3.2-7.4 4.1 0 0-6-1.9-9.3-3.9-1.1-.6-1.8-1.5-2.3-2.5v-.1l-.4-.6 3.4-7.2-1.1-8.1s2.2.6 4.2 1.2 11.5 1.3 11.5 1.3v1.1l-2.8.5s-.6 5.1-2.2 5.7c-1.6.7-5-.5-5-.5zM674.8 218.8s1.3 1.7 1.9 2.8c.5 1 1.3 4.5 1.3 4.5s-2-3-2-3.2c-.1-.2-1.2-4.1-1.2-4.1zM680.4 223.1s.7 1.6 1.3 2.7.6 2 .7 2.2c0 .3-.4 1.9-.4 2.6.1.7.6 1.8.9 1.9.3.1 1.2-3.1 1.3-4.7.1-1.6-1.9-6.6-1.9-6.6l-1.9 1.9z"/><path class="st12" d="M679.3 216.8s-1.4 4-1.3 4.7c.1.7 1.4 3.8 1.6 5.1s.4 3 .7 3.2c.4.3 1.9-1.5 1.7-2.5s-1.1-2.8-1.2-3.6c-.1-.8.5-1.7.7-1.7s1.4 3.2 1.9 4.7c.4 1.5-.4 4.7-.2 5.6.1.9.4 1.4.6 1.3.2 0 2.3-5.2 2.4-6.4.1-1.3-1.3-7.1-2.2-8.9-.9-1.8-2.7-3.9-2.7-3.9l-.4-.3-1.6 2.7zM670.4 218.5s.2 3.9.8 6.5c.6 2.7 1.4 7.3 1.4 7.3s-1.3 2.8-1.2 4c.2 1.3.4 1.3.5 1.3s.8-.8.8-.8.8-.4 1.3-.7 2.9-3.5 2.9-3.5v3.9c0 .4.5.4.7.1.3-.3 1.3-5.5 1.3-5.9-.1-.4-.4-2.3-1.3-4.6-.8-2.2-2.9-7.3-3.6-8-.7-.5-3.9-.9-3.9-.9l.3 1.3z"/><path class="st10" d="M683.3 214.7c0 .3-2.1-.2-2.1-.2s-1.7 2.9-2.4 3-.2-2.6-.2-2.6-11-7.8-14.1-14c0 0-4.9-12.3-6.4-15.7v-.1c-1.3-3.4 5.4-5.6 5.4-5.6s.1.3.3.7c.4.9 1 2.4 1.7 4.1 1.1 2.6 2.4 5.6 3.3 7.3 1 1.8 4.4 7.9 7.3 13.3 2.6 4.7 4.9 8.8 5 9 .2.2 2.1.4 2.2.8z"/><path class="st10" d="M668.9 163.4s-2.8 1.4-3.9 2c-.3.2-.4.4-.6.9-1.3 3-.1 11.7.4 15.1 0 0-7.6 13.2-9.6 17.9s-.9 9.5-.9 9.5-3 7.6-12.2 8.8c0 0-3.1-19.9-2.2-32.3.9-12.5 13.1-31 13.1-31l7 3.9 8.9 5.2z"/><path class="st13" d="M676.1 152s1.7.7 2.1.2c0 0 .3-.2 1 .1 0 0-.5-.5-1.4-.7-.9-.2-1.7.4-1.7.4z"/><path class="st14" d="M673 148.1s-.8 0-1.2.1-2.7 1.6-2.7 1.6 1.6 1.3 2.7 1.2c1.1-.2 1.5-1 1.5-1s.3-1.4.3-1.7c-.1-.2-.6-.2-.6-.2z"/><path class="st15" d="M673.5 147.7s-2.1-1.2-2.5-1c-1 .4-2.1 2.7-2 3.1 0 0 1.7-1.9 4.5-2.1z"/><path class="st16" d="M669.8 150.2s1.3.6 2.1.5c.7-.1 1.3-.8 1.3-.8s-.5 1.1-1.4 1.2c-.7.1-2-.9-2-.9z"/><path class="st17" d="M671.2 148.4s.5 2.1 1.3 2.1c1.2-.1 1.2-1.9 1.1-2.5-.1 0-1.5-.5-2.4.4z"/><path class="st13" d="M669 149.8s2.7-1.8 5-1.9c0 0-.9-.4-1.5-.3-1.9.5-3.5 2.2-3.5 2.2z"/><path class="st16" d="M669 149.8s.4-1.1 1.3-2.5c-.1 0-1.3 1-1.3 2.5z"/><ellipse transform="rotate(-7.325 671.4 149.602)" class="st18" cx="671.4" cy="149.6" rx=".4" ry=".2"/><path class="st11" d="M681.3 214.1l-2.6.9s-11-7.8-14.1-14c0 0-4.9-12.3-6.4-15.7v-.1l5.6-4.9c.4.9 1 2.4 1.7 4.1 0 .3-1.2 5.5-.6 9.9.3 2.1 5.3 6.7 7.9 8.8 1.3.9 2.4 1.5 3.4 1.8 2.6 4.7 4.9 8.9 5.1 9.2zM668.9 163.4s-2.8 1.4-3.9 2c-.3.2-.4.4-.6.9 0 0-5.4-6.5-9.4-6.1 0 0 3.7-1.9 4.8-2.1l9.1 5.3z"/><path class="st19" d="M679.7 152.6s-.4.1-.6 0c-.4-.3-.9-.6-1.7-.7-1.1-.1-1.8.4-1.8.4-.8 0-.9-.8-.9-.8 2-1.6 4.7-1.5 4.9-1.5.5.9.1 2.6.1 2.6z"/><path class="st20" d="M679.7 149.9s-.3.8-2.1.7c-1.6 0-2.7.6-2.9.8 2-1.6 4.7-1.5 5-1.5zM681.9 155.7l.9.6s-3-.3-7.1.5c-.1.1 2.8-1 6.2-1.1z"/><path class="st19" d="M678.1 144.1s-3.5 1.3-7.3.8c-3.2-.4-6.5-2.1-7.5-2 0 0 2.1 5.5 4.7 9.2 0 0-4.7.9-5.4 3.9-.8 4 4.6 6.2 5.2 6.4-.6-.2-6.8-2.1-9.8-1.6l1.6-2.1s-5.8 1.5-6.7 2.8c0 0-.8-3.6 2.8-8.1 0 0-2-3-3-5-.4-.7-.7-1.4-.7-1.8-.3-2.1.5-4.7 1.8-6.9 1.1-2 2.6-3.7 4.1-4.3 2.4-1 12.5-.6 19.6 7.7.1.4.4.7.6 1z"/><path class="st11" d="M661.7 149.2l-4.8 2.9-4.3-3.8c-.4-.7-.7-1.4-.7-1.8-.3-2.1.5-4.7 1.8-6.9-.1.2 1.9 7.9 8 9.6z"/><path class="st9" d="M659.2 150.6s-2.9-5.1-6.1-5.7c-3.2-.6-5.7 2.4-5.3 5.6.4 2.7 3.8 6.1 6.6 5.3 2.1-.5 2.3-2.1 3.4-3.5.8-1 1.4-1.7 1.4-1.7z"/><path class="st21" d="M657.3 151.3s-1.9-2.9-3.8-3.6c-2-.7-4 1.3-4 1.3s1.9-.3 4 .4c2 .6 3.8 1.9 3.8 1.9z"/><path class="st21" d="M652.8 153.4s1.3 0 2.1-.9c1-1 .8-2.5.8-2.5l-.9-.8s.6 1.5-.2 2.8c-.6 1.2-1.8 1.4-1.8 1.4z"/><path class="st7" d="M651.2 145.1s.1 1.3 1.2 1.8c1.4.5 2.8 1.2 4.6 3.4 0 0 1.1-.2 1.2-1.3-.1-.7-3.9-4.9-7-3.9z"/><path class="st22" d="M661.7 149.2s-9.8 3.3-9.4 12.7l2.3-1.4c0-.1 1.9-7.9 7.1-11.3z"/><path class="st9" d="M663.9 172.8s-3.5-.1-7.3 1.3c-3.7 1.4-7 11.7-6.3 17.2.7 5.4 1.4 15.6 3.2 18.4s6.2 8.3 6.2 8.3-2.5-12.4-4.6-18.7c0 0 8.6-13.3 9.6-17.9.1 0-.2-4-.8-8.6z"/><path class="st11" d="M646.5 178.3l3 .6 5.1 11.6 1.8 13.2s-4.8-8.6-6-11.7c-1.3-3.1-1.5-12.2-1.5-12.2l-2.4-1.5z"/><path class="st19" d="M675.9 217.7c.1.7-2.1.3-2.1.3s-1.1 2-1.9 2.1c-.8.1-1-2-1-2l-1.7 1.4 1-1.7s-9.3-6.9-12.5-11.5c0 0-.5 1.4-1.1 1-.5-.4-.4-2.4-.4-2.6-.1.1-.3.5-.5.4-.1 0-.1 0-.2-.1-.4-.3-1.7-3.9-1.7-3.9s-.8-7.1-2.5-13c-.1-.2-.1-.4-.2-.5-.1-.2-.1-.3-.2-.4l-.3-.6c-1.3-2.7-3.3-5.1-3.4-5.6-.2-1.3 1.4-17.6 5.6-19.6.8-.4 3 1.5 4.9 8.5 2.1 8.1 1.6 15.2 3.1 20 .8 2.6 2.5 6.6 4.4 10.7l.1.2c3.2 7.1 6.9 14.4 7.6 15.8l.1.1.1.1c0 .1 2.7.2 2.8.9zM669.3 242.6c-.4.4-1.3.2-1.3.2-.4 5.7-4.2 17.3-4.5 18 0 0 1.2.6.8 1.2-.4.5-2.7-.4-2.7-.4s-1.9 3.3-2.2 3c-.4-.4.8-4.2.8-4.2s-2.1-12.5-4.5-18.2c-2.4-5.6-13.2-22-13.5-24.6-.4-2.6 1.3-18.3 3.3-18.5.4-.1 1.4.9 2.7 2.5 3.6 4.3 9.7 13.3 13.8 19.9s6.6 14.8 7.3 18.8c.1 1.3.1 2.2 0 2.3zM665 161.2s4.7 2.6 6.1 4.1c1.5 1.6 1.6 2.3 1.6 2.3v-2.1l2.2 1.8s-.9-2.8-3.5-3.9c-1.8-.5-6.4-2.2-6.4-2.2zM672 145s4.7-1.4 6.9-2.6l-.5 1s1.3.3 3.1-.2c0 0-3.6 1.8-5.6 2.1-2.1.3-3.9-.3-3.9-.3z"/><path class="st14" d="M676.2 150.8c0 .3 1.2.2 1.3-.1.3-.4-1.3-.3-1.3.1z"/><path class="st20" d="M677.3 143.2s-6.4 1.1-12.2-2.1c-5.8-3.3-7.4-5.6-7.4-5.6 2.4-1.1 12.5-.7 19.6 7.7z"/><path class="st23" d="M673.1 216.9s-1.2.7-3 1c0 0-9.3-6.9-12.5-11.5 0 0-.5 1.4-1.1 1-.5-.4-.4-2.4-.4-2.6-.1.1-.3.3-.5.4-.1 0-.1 0-.2-.1-.4-.3-1.7-3.9-1.7-3.9s-.8-7.1-2.5-13c-.1-.2-.1-.4-.2-.5-.1-.2-.1-.3-.2-.4-1.1-2.8-3-4.8-3.7-6.3.2.4 5.5 3.1 7.1 8.1 1.7 5.2 2.1 9.2 3.7 11.7s7.3-.4 7.3-.4l.1.2 7.6 15.8.1.1.1.4zM669.3 242.6c-.4.4-1.3.2-1.3.2-.4 5.7-4.2 17.3-4.5 18l-3.4-.5s-2.1-12.5-4.5-18.2c-2.4-5.6-13.2-22-13.5-24.6-.4-2.6 1.3-18.3 3.3-18.5.4-.1 1.4.9 2.7 2.5 0 .4-.4 12.4 4.1 21.1 4.7 8.9 12.3 17.6 13.9 17.9 1.1.2 2.4-.1 3.1-.3.2 1.4.2 2.3.1 2.4z"/><path class="st10" d="M650.6 194.4s1.6 4.4 2.3 4.9c0 0-1-.2-2.1-1.7 0 0 1 1.3 2 3.2s1.2 2.2 1.2 2.2-.6-.6-2.1-1.7c-1.3-1.1-2.6-3.6-2.6-3.6l1.3-3.3zM658.3 173.7s3.1-.1 4.7 2.1c0 0 1.3-1.2 1-3-.3-1.9-3.3-3-3.3-3l-2.4 3.9z"/><path class="st7" d="M672.8 236.8s1.7-3.3 1.8-3.9 0-3.2 0-3.2.2 3 .3 3.4c0 .4-1 2.4-1 2.4s.7-.5.9-.7.7-1 .7-1l-1.3 2.2-1.4.8z"/><path class="st11" d="M653.1 265.6s-.6-1-.7-1.1c-.2-.1-1.4.2-1.4.2s1.6-.4 2-.4.9.7.9.7l-.8.6z"/><path class="st24" d="M675 219.2s-2.4 3.2-2.3 3.9 1 7.3 1 7.8 1.1.6 1.1.6l.9.9c.2.2 3.3-1.4 3.6-1.7.1-.5-3.1-9.9-4.3-11.5z"/><path class="st19" d="M654.4 162.3s2.1 2.5 3.7 5.9l-1.1-.4-2.6-5.5zM668.6 152.6l-1.5 1.6s-.5-2.1.2-2.9l1.3 1.3z"/></g><g><path class="st9" d="M795.3 231.4s-3 1.3-3.4 2 1.6 4.8 2.2 6.5c.6 1.7 2.7 7.2 3.1 7.6.4.4 8.1.4 8.3.3.2-.2.2-.6.2-.6s1.3 0 1.4-.2c.1-.1-1-1.6-1.4-1.7-.4-.1-2.7-1.4-3.4-1.8-.7-.4-3.9-11.2-3.9-11.2l-3.1-.9z"/><path class="st10" d="M821.2 214.5v.4c-.2 2.1-1.3 5.2-2.5 7.6-1.1 2.4-2.2 4.3-2.6 4.3-.6 0-1.2-1.5-1.2-1.5-1.9 1.8-7.4 4-11.4 5.6l-.4.1c-1.3.5-2.5.9-3.1 1.2l-.3.1-.3.1 1.1 2.8-1.3-1.5s-1.7 2.5-3 2.1-1.3-3.9-1.3-3.9l-2.2-.1 3.3-.6s10.2-11.3 11.1-14.2c.9-3 2.5-22.1 2.5-22.1s6.4 8.7 9.6 14.8c1.3 1.9 2.1 3.7 2 4.8z"/><path class="st11" d="M821.2 214.9c-.2 2.1-1.3 5.2-2.5 7.6 0 0-6-8.1-6.7-8.1s-3.6 6.4-4.9 7.8c-1.4 1.3-3.4 8.7-3.4 8.7l-.4.1-3.1 1.2-.3.1-.3.1-3.5-1.3s10.2-11.3 11.1-14.2c.9-3 2.5-22.1 2.5-22.1s6.4 8.7 9.6 14.8l1.9 5.3z"/><path class="st7" d="M830.5 199.9s-.1 3.1.5 3.9c.6.7 1.9-2.1 1.9-2.1l-2.4-1.8z"/><path class="st7" d="M830.2 192.5s-.9 4.1-.7 5.2c.2 1.1 2 3.3 2.3 4.4s.7 2.6.7 2.8-1.1 2.5-1.1 3.1c0 .7 1.3.9 1.3.9l1.6-3.3-4.1-13.1z"/><path class="st12" d="M830.1 190.9s.2 5.1.4 6.3c.1.7 1.8 3.5 2.1 4.7.8 2.9.5 4.7.5 4.7s-1.6 3.7-1.3 4.1c.4.4 3.4-2.8 3.5-3.2 0-.9-.4-9.1-.7-10.7s-1.7-7-1.7-7l-2.8 1.1zM838.6 248.4l-1.5.7-1.2.2-.3.8h-.2c-.8 0-4.3.2-7.2.1h-.6c-3.4-.2-9.7-1-9.9-1.3-.3-.3.2-5.9.2-5.9 0-.3 1.3-.3 1.3-.3l3-2.7s1.5 2.1 3 3.3c.5.4 1 .8 1.4.9 3.4.9 10.3 2.2 10.6 2.5.3.4 1.4 1.7 1.4 1.7z"/><path class="st25" d="M855.1 201.4c0 1.5-2 5.4-2.3 6.3-.4.9-9 2.4-10.2 2.1-1.2-.4-4.9-6.8-4.9-8.9.1-2 2.5-4.9 3-5.3.2-.2 1.4-.7 2.6-1.2 1.1-.4 2.1-.8 2.1-.8s1.6-1.3 2.1-1.3c.4 0 6.4 2.2 6.6 2.5.1.3 1 5 1 6.6z"/><path class="st26" d="M855.1 201.4c0 1.5-2 5.4-2.3 6.3-.4.9-9 2.4-10.2 2.1-1.2-.4-4.9-6.8-4.9-8.9.1-2 2.5-4.9 3-5.3.2-.2 1.4-.7 2.6-1.2l.2.1 2.3 4.6s-2.1 7.7-1.7 7.7c.4 0 5.8.1 6.2-.2.3-.3 2-4.1 2-4.1l2.8-1.1z"/><path class="st12" d="M842.6 184.8s-1.2 7.8-.9 8.7.8 3 1.3 4.7c.5 2 .5 3.7 1.1 3.7.5 0 1.5-2.1 1.5-2.8 0-.6-.9-5-.4-5.5.5-.4 1.7-.8 1.7-.8l3.9.7s-2.3-4.1-2.8-5.2-2.9-4.5-2.9-4.5l-2.5 1z"/><path class="st10" d="M846.7 183l-1.1.7s-.1 2.1-.6 2.7c-.6.5-2.1-.6-2.1-.6l-1.2 3 .4-3.6s-12.3-8.2-14-10-4.1-16-4.1-16l5.8-4.2s1 3.6 1.9 6.6c.4 1.4.8 2.7 1.2 3.4.8 1.8 8.3 13.2 10.8 17.1l.9 1.3 2.1-.4z"/><path class="st11" d="M844.6 183.4s-1.8 1.9-2.5 1.9c0 0-12.3-8.2-14-10s-4.1-16-4.1-16l5.8-4.2s1 3.6 1.9 6.6c0 0-2.1 5.7-1.5 8.6.6 2.9 11 11.8 11.8 11.8s1.8.1 1.8.1l.8 1.2z"/><path class="st10" d="M831.8 150.9s-6.5 12.7-6.6 14.8.1 9 .5 11.9c.3 1.6.2 8.3-2.6 12.1-2.3 3.2-5.1 5.8-7.1 5.8-4.4-.1-9.5-6.3-9.4-8.6s2.4-17.9 2.5-22.9c.2-5 1.6-17.1 1.7-20.6.1-3.5 10.1-21 10.9-21.8.5-.4 5.5 3.4 9.1 6.3 1.2.9 2.1 1.8 2.9 2.3.6.5 1 .8 1 .8s-4.5 1.7-4.5 3.2c-.1 1.5 1.7 11.4 1.6 16.7z"/><path class="st9" d="M832.7 151.7s-3.7 2.6-7.5 14c-.7 2 .3 10 .7 13 .3 1.6 0 7.3-2.8 11.1l-5.8-8.6s-4-11.9-3.4-13.4 2.9-4.8 2.9-4.8l-2.3.9s3.9-4.5 4.5-5.6c.5-1.2 1.3-16.8 2.6-19.8s4.7-7.5 4.7-7.5H825c.4-.3.9-.4 1.4-.6 2.2-.8 5.1-.8 5.1-.8l2.2 1c.6.5 1 .8 1 .8s-4.5 1.7-4.5 3.2c-.1 1.1 2.6 11.9 2.5 17.1z"/><path class="st11" d="M834.7 131s-4.5 1.7-4.5 3.2l-3.9-4.2-3-3.3s4 .2 7.4 1.1c1.2.9 2.1 1.8 2.9 2.3s1.1.9 1.1.9z"/><path class="st12" d="M848.2 125.8s-1.9 2.6-4.7 4.8c-1.3 1.1-3 2.1-4.7 2.6 0 0-6.4-3-9.4-5.2-2-1.4-3.8-4.1-4.7-5.6-.4-.7-.7-1.3-.7-1.3l1.8-11.4 5.1-3.6 10.6.3s.1.2.3.5l.2.4.2.4c.6 1.3 1.3 3 1.4 4 .2.8.1 1.1 0 2.2 0 .5 3.8 5.6 4.1 6.4.1.1-.3.6-.7 1s-1.1.8-1.1.8 1 2.2 1.2 3.2l1.1.5z"/><path class="st7" d="M843.5 130.5c-1.3 1.1-3 2.1-4.7 2.6 0 0-6.4-3-9.4-5.2-2-1.4-3.8-4.1-4.7-5.6l1.3-3 2.2-7.2 4.7-5.8 9 .6.2.4.2.4s-7.1 1.3-7.1 2.2 1.6 3 1.8 3.2 5.4-.8 5.4-.8 1.3 6.6-.6 7.4c-1.4.6-7.2-1.4-7.2-1.4-1.2.4-3.7 4.8-.9 8.4 2.7 3.6 9.5 3.8 9.8 3.8z"/><path class="st14" d="M842 115.6h-1.1c-.4 0-2.9 2-2.9 2s1.4 1.3 2.3 1.3c1.3.2 1.7-.8 1.7-.8s.4-2.1.4-2.3-.4-.2-.4-.2z"/><path class="st15" d="M842.7 115.8s-1.3-2-1.8-1.9c-1.7.4-3 3.4-3 3.9 0-.1 1.9-2.3 4.8-2z"/><path class="st16" d="M838.2 117.6s2 1.1 2.8 1.1 1.1-.6 1.1-.6-.4 1-1.3 1c-.7 0-2.6-1.5-2.6-1.5z"/><path class="st17" d="M840.3 115.9s.2 2.5.9 2.5c1.3.1 1.3-2.1 1.3-2.7-.1.1-1.1-.6-2.2.2z"/><path class="st13" d="M837.8 117.9s2.7-2.5 5.2-2.1c0 0-1-.8-1.3-.8-1.9.1-3.9 2.9-3.9 2.9z"/><path class="st16" d="M837.9 117.7s.6-1.5 1.9-3.1c0 .1-1.7 1.3-1.9 3.1z"/><ellipse transform="rotate(-88.356 840.33 117.364) scale(1.00001)" class="st18" cx="840.3" cy="117.4" rx=".2" ry=".4"/><path class="st7" d="M827.6 250.2c-3.4-.2-9.7-1-9.9-1.3-.3-.3.2-5.9.2-5.9 0-.3 1.3-.3 1.3-.3l3-2.7s1.5 2.1 3 3.3c0 0-3.5 2.3-3.5 3.7s3.7 3.1 5.9 3.2z"/><path class="st11" d="M818.4 165.8s-3-8-4.2-11.4c-1.3-3.4-.4-7.6-.4-7.6l-2.1-1.9 3.3.1 3.9 4.1 1 13.9-1.5 2.8z"/><path class="st19" d="M830.5 113.3l-3.3 3.3 3.2-1.4c1.3 5 5.4 6.3 5.4 6.3l-9.5 3 3.9-1.5c-1.3 3.2 1.3 6.1 1.3 6.1-4.4-2.6-11.6-2.8-11.6-2.8l1.6-3.3s-2.3-5.6-2.2-8.2 1.2-10 1.7-10.6c.5-.5 3.1-2.1 10.9-1.8 6.1.2 11.6 2.2 13.8 3.1.6.3.9.4.9.4-1.2 1.2-12.2 1.1-12.2 1.1l4.4.9c-3.3-.1-7.2 1.5-7.2 1.5l-1.1 3.9z"/><path class="st19" d="M836.4 114.2l.7-2.3.2 1.2s2.6-2.9 6.1-3.1l-.1.9.9-.8s-.3 1.7-1 2.3c-.8.6-4.1 1.3-6.2 2.2l-.6-.4z"/><path class="st9" d="M826.5 118.2s-1.7-5.8-4.4-7-5.2 1.7-5.4 5c-.1 2.9 2.3 6.9 4.9 6.6 1.8-.3 2.2-1.8 3.4-3.1.9-.8 1.5-1.5 1.5-1.5z"/><path class="st21" d="M824.7 118.6s-1.2-3.3-2.8-4.4c-1.5-1.1-3.7.6-3.7.6s1.6.1 3.4 1.1c1.8 1 3.1 2.7 3.1 2.7z"/><path class="st21" d="M820.6 120.1s1.2.2 2-.5c1-.9 1-2.5 1-2.5l-.6-1s.3 1.6-.5 3c-.8 1-1.9 1-1.9 1z"/><path class="st7" d="M820.3 111.1s-.1 1.4.7 2.1c1.2.8 2.2 1.6 3.4 4.3 0 0 .9-.1 1.2-1.1.2-.8-2.4-5.7-5.3-5.3z"/><path class="st15" d="M843.8 122s.8-.4 1.3-.7c.9-.4 1.8-.6 2.8-.9 0 0 0 .4-.7 1-.4.4-1.1.8-1.1.8s-.1-.5-.4-.5-.9.2-1.3.3c-.3-.1-.6 0-.6 0z"/><path class="st20" d="M847.2 125.2s-2.8.3-4.6.8c0 0 3.9-.3 5.5-.3l-.9-.5z"/><path class="st19" d="M832.6 216.2c-.3.4-1.2.9-1.2.9-.1 4-9 22.4-9.2 23 0 0 1.7.3 1.7 1 0 .6-2.3.1-2.3.1s.5 2.9-.5 2.9c-1.1 0-3-.8-3-.8l-2 .5 2.1-2.2s1.7-16.9.7-21.6c-1-4.7-12.4-31.1-12.3-33s2.1-17.2 7.3-17.9c4.2-.7 19.1 46.3 18.7 47.1z"/><path class="st7" d="M845.2 193.6s.3-2.1.6-2.1c.4 0 3.9 1.8 3.9 1.8l-2.8-.5-1.7.8z"/><path class="st23" d="M832.6 216.2c-.3.4-1.2.9-1.2.9-.1 4-9 22.4-9.2 23l-4 1.4s1.7-16.9.7-21.6c-1-4.7-12.4-31.1-12.3-33 .1-2 2.1-17.2 7.3-17.9 0 0-3.8 9-2.8 16.8s11 25.7 15 28.2c3.9 2.6 6.5 2.2 6.5 2.2z"/><path class="st7" d="M832.7 151.7s-5.6-1.4-6.8-4.4c-1.1-3-.4-10.7-.3-11.1.4-1.1 4.6-2 4.6-2-.1 1.5 3.4 7.8 2.5 17.5z"/><path class="st20" d="M845.7 105.7c-1.5.4-3.9.9-7.1.6-5.5-.4-17.6-2-17.6-2 .5-.5 3.1-2.1 10.9-1.8 6.1.2 11.6 2.2 13.8 3.2z"/><path class="st22" d="M819.9 126.4s4.1-7.8 7.1-9.4c0 0-1.9 6.6-7.1 9.4z"/><path class="st27" d="M845.3 119.9s.4.6 1.1.8c.6.2 1.4-.3 1.4-.3-.4-.4-.7-.7-1.1-1 0 0-1.2-.2-1.4.5z"/><path class="st14" d="M845.8 121c-.2-.2.6-.5.8-.4.1.3-.7.6-.8.4z"/><path class="st17" d="M844.6 121.8s1-.1 1.3 0 .3.4.3.4 0-.5-.3-.7c-.3-.1-1.3.3-1.3.3z"/><path class="st7" d="M835.4 250.1c-.8 0-4.3.2-7.2.1h-.6c1.9 0 6.8-.1 7.8-.1zM837.3 248.9s-.7-1.3-.9-1.5-1.6-.6-1.6-.6 2.1.4 2.1.5c.1.2.9 1.3.9 1.3l-.5.3zM835.5 250.1s.1-.4-.1-.8l-.4-.8.9.9c-.1-.1 0 .6-.4.7z"/><path class="st11" d="M805.8 247.1s-.4-.9-.5-1.2-1.8-.8-1.8-.8 2.1.5 2.2.7c.2.2.9 1.3.9 1.3h-.8z"/><path class="st28" d="M846.9 192.8l-1.3 2 5 2.7s1.2 4.7 1.4 5 3-1.1 3-1.1-.4-5.4-1.2-6.5c-.6-1.2-6.9-2.1-6.9-2.1z"/><path class="st29" d="M851 198.7s.1 1.5.1 1.8c0 .4.4 1.3.5 1.5s0 1.6 0 1.6l1.8-1.4s-.9-.1-1.2-.1c-.3-.1-1.2-3.4-1.2-3.4zM846.5 195.2s.8.9 1.1 1.2 1.5.3 1.5.3-1.3-1.3-1.5-1.3c-.2-.1-1.1-.2-1.1-.2z"/><path class="st19" d="M835.8 121.5l.4 4.3-1.7-2.6-.3 1.3s-1.6-2.3-2.7-5.6c0-.1 2.9 2.1 4.3 2.6z"/><path class="st19" d="M832.3 119s1.9 2.2 5.7 3c0 0-2.4-.1-3.9-.7-1.4-.6-1.8-2.3-1.8-2.3zM832.5 189.9s.2 1.8-.4 1.8c-.7 0-2-.8-2-.8l-1.4.3 1.4-.9c-.2-.2-.4-.4-.6-.7-.9-1.1-1.9-2.6-3-4.3-.4-.6-.7-1.3-1.1-1.9-1-1.6-1.9-3.4-2.8-5-.1-.2-.2-.4-.3-.4-.1-.2-.2-.3-.3-.4-.9-1.6-1.6-3.1-2.2-4.2l-.2-.4c-.2-.3-3.3-4.5-3.1-6.3.3-2.1 1.5-4.1 1.3-10.9 0-.4 0-1-.1-1.4-.3-4.1-1.2-9.6-2.2-12.4.2-6.9 4-13.9 5.9-13.9.5 0 6.1 3.6 6.5 7 1.1 7.8-2.1 23-1.3 26.8 1 4.9 5 23.4 5.7 26.7l.1.4c3.1-.1 3.3.6.1.9z"/><path class="st19" d="M824.2 129.5s3.6 2.1 5.5 6.5l-1.9-1.1-2.6-1.4-1-4zM816.5 166.4s-.3 2.9 1.4 6.6l.7-3.2-2.1-3.4z"/><path class="st23" d="M832.7 188.6l-2.6 1.5c-.2-.2-.4-.4-.6-.7-.9-1.1-1.9-2.7-3-4.3-.4-.6-.7-1.3-1.1-1.9-1.1-1.8-2.1-3.6-2.8-5-.1-.2-.2-.4-.3-.4-.1-.2-.2-.3-.3-.4-.6-1.3-1.1-2.1-1.1-2.1l-1.3-2.2-.2-.4c-.2-.3-3.3-4.5-3.1-6.3.3-2.1 1.5-4.1 1.3-10.9 0-.4 0-1-.1-1.4.8 2.9 1.8 6.5 2.6 10.3 1.7 8.1 8.3 6.6 8.3 6.6 1.1 3 4.3 17.6 4.3 17.6z"/></g><g><path class="st7" d="M964.4 350.5c.4-.4 5.1-.4 5.1-.4 3.4-2.9 9.4-7.4 9.9-8.1.5-.6 1.2-31.8 1.1-32.5-.1-.7-1.2-4.3-1.3-5.6 0-.7-.2-2.2-.2-4.7 0-1.5.1-3.5.3-5.8.1-1 .3-2.1.4-3.1 1.1-8.3 3.5-24.9 3.5-24.9 7.9-.5 12.8 13.8 11.2 20.4-.6 2.5-1.8 6.4-3 10.6-2 6.5-3.4 13.3-3.3 14.4.2 1.7 2.7 8.5 2.5 11.9-.2 3.5-1.5 5.8-2.6 8.5-1 2.7-3.8 11.9-3.7 12.8.1.4.5 2.3 1 4.1s.8 3.6.4 3.8c-.6.4-5.6.4-6.8.5-1.3.2-4.6 1.3-6.1 1.4-.5 0-1.7 0-3-.1-2.2-.1-4.8-.4-5-.5-.4-.3-.5-2.3-.4-2.7z"/><path class="st12" d="M1005.4 269c.4 1.7.5 9.9 1 18.9.4 8.5 1.2 17.7 2.7 22.7.4 1.3 1.5 3.1 3.1 5 1.3 1.5 3.4 4 3 9.9-.4 5.8 1.2 14.2 1.5 15s4.9 5.1 4.5 6-3 3.2-4.8 5.4c-1.2 1.3-2.2 2.5-3 3.3-.5.4-.9.8-1.3 1-.8.4-3.4.8-3.7.6-.2-.2-.5-.1-.5-.1s-2.4.4-2.7.2c-.3-.2-.4-.4-.4-.4s-1.9.2-2.1 0c-.3-.3-.4-.9-.4-.9s-3.2-.1-3.2-.4.4-2.1 1.1-2.5c.6-.4 4.7-1.4 4.7-1.4 3.3-4.7 6.9-8.4 6.9-8.7v-.2c0-.3-.1-1-.4-2.2-.4-1.6-1.2-4.1-2.7-8-3.1-7.7-7.3-20-9-22-1.3-1.6-2.3-3.8-3.9-9-.4-1.7-1.1-3.7-1.7-6-1.2-3.9-2.3-9.1-3.3-13.9-1.4-7.1-2.6-13.2-2.6-13.2 2.1-4 16.4-2.9 17.2.9z"/><path class="st7" d="M1004.9 284.8l1.5 2.8c.4 8.5 1.2 17.7 2.7 22.7.4 1.3 1.5 3.1 3.1 5 1.3 1.5 3.4 4 3 9.9-.4 5.8 1.2 14.2 1.5 15s4.9 5.1 4.5 6-3 3.2-4.8 5.4c-1.2 1.3-2.2 2.5-3 3.3.1-.6 1.2-2.2 1.8-3 2-2.3 3.8-4.8 3.7-6.3 0-.8-4.8-2.4-7-3.4 0-.3-.1-1-.4-2.2 1.2-2.1 3.2-5.9 1.4-12.1-2-7.1-3.3-11.8-4.5-14.5s-2.6-8.5-4.2-9.8c-2.4-2.1-8.4-2.5-8.4-2.5-.4-1.7-1.1-3.7-1.7-6-1.2-3.9-2.3-9.1-3.3-13.9l14.1 3.6z"/><path class="st30" d="M989.3 320.8c-1-7.2-2.5-12.4-3.5-14.8-1-2.5-6.7-6.8-6.7-6.8 0-1.5.1-3.5.3-5.8l12 3c-2 6.6-3.4 13.3-3.3 14.4.2 1.8 2.7 8.6 2.5 12-.2 3.5-1.5 5.8-2.6 8.5-1 2.7-3.8 11.9-3.7 12.8.1.4.5 2.3 1 4.1 0 0-1.3-3.5-1.4-5.1-.1-1.5 6.5-16 5.4-22.3z"/><path class="st19" d="M970.3 275.4s3.1 2.8 4.1 3.7c1 .8 2.8.7 2.8.7.8-1-.2-2.5-.2-2.5l-2.4-3.7-4.3 1.8z"/><path class="st31" d="M992.7 254.9l5.6 6.3s5.2-10.2 5-12.9-4.7-11.4-4.7-11.4l-5.9 18z"/><path class="st7" d="M980.7 206.3s18.5 13.3 19.4 25c.4 5.1-4.7 19-4.6 20.1.1 1.2 8.8 13.1 9.6 15.6.8 2.6-1.3 9.8-9.1 10.4-7.9.5-13.1-13-13.1-13s-1.3-3.9-1.5-5.8c-.1-1.9-1.3-16.6-1.3-16.6-1.4-1.2-2.2-3.8-2.2-3.8.2-6.7 1.9-15.3 1.8-16 0-.7-1.3-4.3-2.3-4.7-1.2-.3-5.4.4-5.4.4l8.7-11.6z"/><path class="st12" d="M979.1 198.8c1 1.2 2.2 3.4 1.9 6.3-.4 2.6 1.3 7.1-2.9 10.1s-9.3 2.7-9.3 2.7c-1.3-1.1-3.1-6-3.1-6 .2-.2 1-.3 1-.3-.1-.5.2-1.6.2-1.6l-.8-.3c-.8-.3-1.4-1-1.4-1s.2-1.7.8-3.2c.7-1.5 2.2-4 2.2-4-.5-.9-.6-2.3-.6-2.3.5-2.3 1.8-5 1.8-5 3.7.5 8.2 2.2 10.2 4.6z"/><path class="st7" d="M971.5 200.2c.1-.8 1.2-1.3 1.3-2.6.2-1.4-4-3.5-4-3.5l11.8 2-1 6-1.4 10.6-5.3-1.7c1.1-2.5.4-5.7.4-5.7-2.4 1.5-4.6 1.3-4.6 1.3-.8-2.1-.7-5.6-.7-5.6l3.5-.8z"/><path class="st19" d="M970.1 201.1c-1.5-.3-2.7-.2-2.7-.2-.5-.5-.7-1.1-.7-1.1l.6.5c-.6-.5-.5-2.1-.5-2.1 2.6.3 5.5 2.3 5.5 2.3l-.1-.8.7 2.2c0 .2-1.7-.4-2.8-.8z"/><path class="st15" d="M971.8 204.7c-.4-1.4-1.1-2.3-1.4-2.4-.4-.1-1.3 1.2-1.3 1.2 1.1.2 2.7 1.2 2.7 1.2z"/><path class="st16" d="M969.5 205.2c-.2 1-.1 1.2-.1 1.2 1.7-.1 2.3-1.3 2.3-1.3s-2-.9-2.2.1z"/><path class="st14" d="M969.3 203.6c-.1 1.7.3 2.4.3 2.4 1.5.1 2.2-1.3 2.2-1.3-1.1-.9-2.6-1.1-2.5-1.1z"/><path class="st17" d="M969.2 203.6c-.2 1.3.3 2.3.3 2.3.6-.1.7-2 .7-2l-1-.3z"/><path class="st32" d="M1000.6 288.3c-4.3-.4-8.2 9.4-11.1 9.9-2.9.5-10.7-4.2-11.6-4.1-.9 0-2 1.1-2 1.1l1 .1c.6 1.6 5.2 4.2 5.2 4.2l.4-.4c.5 1 3.6 2.5 3.6 2.5v-.5s5 1.8 7.3.9c2.1-1 4.6-3.5 4.6-3.5v.5c.9-1 1-6.7 1-6.7l.5.5-.1-1.4s.7-.4 1.2-.1c.4.4 1.5 2.7 1.5 2.7l-.1-.8.7 1.2s4 1 5.7.5c1.8-.4 2.9-1.2 2.9-1.2l.6.4c-.5-1.2-1.9-1.2-1.9-1.2s-5.3-4.1-9.4-4.6z"/><path class="st19" d="M984.6 209.6s-.7-6.6-1.9-6.3c-1.1.4-1.6 2.1-1.6 2.1l-2.3.6c-.1-2.1-1.9-4.4-2-5.3-.1-.9 1.3-2.8 1.3-2.8-2.5-2.1-9.2-3.6-9.2-3.6s-.1-2.9.5-5.3l.3 3.2s1.7-3.2 7.3-5.6l-1.3 1.1s11.6-1.2 16.8 1.3c2.7 1.3 12.3 12.2 12.3 12.2l-2.4.5s1.3 8.3 1.3 13c-.1 4.7-1.3 14.1-1.3 14.1l-1.8-2.1-.8.6c-6.6-11.1-15.2-17.7-15.2-17.7z"/><path class="st13" d="M970.4 203.6c-1.2-.5-1.9-.3-1.9-.3 1.8.4 3.3 1.3 3.3 1.3s-.4-.5-1.4-1z"/><path class="st30" d="M980.2 242.1c.7 0 4.1-1.6 4.1-1.6l.2-3.9-2 .9c-2.1.9-4.5.8-4.5.8s.7 2.3 2.2 3.8z"/><path class="st32" d="M983.3 263.3l-1.8-.9s5.8-.4 8.5-1.6 4.1-2.5 4.1-2.5l-.3-.4s1.8.1 2.4-.6c.6-.7 1.7-2.1 1.7-2.1l1.6-.1-1.3.7c-3.7 6.4-15 7.5-14.9 7.5z"/><ellipse transform="rotate(-86.474 970.099 204.796)" class="st18" cx="970.1" cy="204.8" rx=".1" ry=".3"/><path class="st15" d="M964.7 208.9s.9.3 2 .4c1.1.2 1.6.6 1.6.6-.8.1-1.3.1-1.3.1-1.7-.2-2.3-1.1-2.3-1.1z"/><path class="st20" d="M966.8 211.7c.6 0 3.8 1 3.8 1-2-.3-4.7-.7-4.7-.7s.2-.3.9-.3z"/><path class="st19" d="M976 195.5c-2.9-.7-5.5-.3-5.5-.3 3.2-.2 4.5 1.2 4.5 1.2l-1.3.5c1.9-.1 4.7.5 4.7.5s.5-1.2-2.4-1.9z"/><path class="st33" d="M982.2 270.6c.1-.4.1-.8.2-1.2.2-1 .4-1.8.4-2.6.1-.4.1-.7.2-1.1.3-1.7.4-2.8.4-2.8s3.4-.5 6.5-1.7c.9-.4 1.8-.7 2.6-1.2 3.3-1.9 5.7-4.5 5.7-4.5s2.1 3.1 4.2 6.4c.2.2.3.4.4.5 1.4 2.4 2.9 4.8 3.2 6.2.6 2.1 2.1 19.3 2.1 20.8.2 1.4 1.9 3.3 1.9 3.3-2.4 1.1-7.1.3-7.1.3s-1.6-3.9-3.1-3.4c-1.4.5-2.7 8.1-2.7 8.1s-.9 1.1-2.3 2c-1.5 1-3.6 1.8-6.1 1.1-2.1-.5-4.4-1.8-6.3-3.1-2.6-1.8-4.7-3.6-4.7-3.6 1.3-4.1 3.2-15.6 4.5-23.5z"/><path class="st34" d="M994.3 264.1c.2.6.8.9 1.4 1 .6 0 1.5-.1 2-.5.1-.2.1-.4-.1-.4-.6-.2-1.3.3-2 0-.1-.1-.4-.2-.4-.4 0-.1.2-.4.3-.4 0 .1.1.1.2.1.3.1.4-.1.5-.4.2-.7-.6-1.2-1.2-.8-.3.3-.7 1.1-.7 1.8zM986.4 281.7c.7 1.3 2.2 1.6 3.4.9.4-.3 1-.7 1.1-1.3.1-.4 0-.8.1-1.3 0-.3.1-.4.1-.5-.1-.6-.8-1.2-1.2-1.6s-.8-.7-1.4-.7c-.7.1-2.8.8-1.9 1.9.2.3.5.2.6-.1.1-.5 1.5-.5 1.9-.4.5.1 1.3.9 1.3 1.4 0 .7-.3 1.4-1 1.7-.8.4-1.5.1-1.9-.6-.5-.7-1.6 0-1.1.6z"/><path class="st34" d="M986.3 280.8c.4-.1.6-.5.4-.9l-.3-.3c-.2-.2-.4-.2-.5 0s-.1.3-.2.4c0 .4.2.8.6.8zM987.1 275.3c.7.8 2.5.9 3.2 0 .3-.3-.1-.6-.4-.4-.4.3-1.4.2-1.9-.1-.3-.2-.5-.4-.4-.8.1-.3.2-.5.4-.8.1-.1.1-.4-.1-.4-.6-.1-.7.5-.9 1-.3.5-.4 1.1.1 1.5zM989.7 273.2c.3-.1.5.1.8.1.1 0 .3-.2.3-.3.1-.6-.7-.9-1.3-.9-.7.1-.5 1.3.2 1.1zM998.7 276.9c.9-.4 1.5-1.5 1.3-2.5-.1-1.1-.7-1.8-1.7-2.2-.3-.1-.4.3-.3.4.9.9 1.8 3.1-.2 3.5-.6.2-1.4-.2-1.9-.7-.4-.5-.1-.9-.1-1.4 0-.2-.2-.3-.4-.3h-.2c-.2 0-.3.2-.4.3-1.1 2 2.3 3.7 3.9 2.9z"/><path class="st34" d="M996 273c0 .4.5.6.8.3.1-.2.2-.4.2-.6 0-.3-.4-.4-.5-.4-.3.1-.5.4-.5.7zM998.3 285.4c.7.3 1.8.7 2.3-.1.2-.3-.1-.6-.4-.4-.4.4-1.3 0-1.8-.2s-.5-.4-.5-1c.1-.4.2-.8.7-1s.9 0 1.3.1c.2.1.3-.1.3-.2-.1-.7-1.3-.7-1.9-.6-.8.2-1.3.9-1.3 1.7.1 1.1.5 1.5 1.3 1.7zM1000.9 284c0 .4.7.4.7 0v-.1c0-.4-.6-.4-.7.1.1 0 .1 0 0 0zM990.9 290.7c-.1-.3-.2-.3-.1-.5.1-.3.4-.4.4-.6.1-.5-.4-.9-.6-1.3-.4-.8-1.1-1.3-1.9-1.3-.4-.7-1.4-.9-1.8.1-.1.3-.1.5.2.6 0 .1.1.1.1.1.1.1.2.1.3 0 .1 0 .3-.2.3-.3-.1.4.3.7.6.5.9-.3 1.3.5 1.5 1.3.1 0 .1.1.2.1 0 .1-.1.2-.2.3-.1.3-.3.3-.3.5 0 .3.1.3.1.5.1.4.4.3-.3.4-.8.3-1.8.1-2.3-.5-.2-.3-.7-.3-.8.2-.4 2.2 5 2.1 4.6-.1z"/><path class="st34" d="M986.3 290c.2.3.5.3.6 0 .2-.4.1-.8-.2-1.2-.1-.2-.4-.2-.4 0-.3.3-.3.9 0 1.2zM985.8 285.2c0-.2.1-.3.2-.4l.2-.2c0-.1.1-.1.1-.1.1.1.3 0 .4-.2.1-.4-.4-.6-.8-.5-.4.2-.9.6-1 1.1-.1.6.7.8.9.3zM996.9 290.9c-.1.7 1.1.9 1.2.2 0-.9-.2-1.8-1-2.1-.2-.1-.4.1-.4.3.2.5.3 1.1.2 1.6zM990.7 297c.8.2 2.1-.4 2.5-1.1.2-.3-.1-.8-.4-.6-.4.2-.6.4-1 .4-.4.1-.7 0-1.1.1-.6.2-.7 1.1 0 1.2zM1000.3 269c.4.1.7-.2 1.1-.2.3 0 .7.1 1 .2s.5-.1.4-.4c-.3-.4-.7-.7-1.3-.8-.5-.1-1.3-.1-1.5.4-.2.4.1.8.3.8zM986.7 266.6c.4.6 1.9.4 2.5 0s1.1-1.4.2-1.7c-.2-.1-.4.1-.4.3 0 .2 0 .3-.2.4-.2 0-.4.1-.6.1-.4.1-1-.1-1.3.2-.3.1-.3.4-.2.7zM993.7 297.7c0 .2.2.4.3.6.2.4.3.7.7.7.3.1.5-.1.6-.4 0-.2-.1-.4-.2-.4 0 0-.2-.4-.3-.7.1-.4.2-.5.2-.9 0-.2-.1-.4-.1-.5v-.1c.3-.2.6-.2.9-.4.3-.2.6-.4.8 0 .2.3.6.1.7-.2.2-.7-.7-1.1-1.3-1-.4.1-.9.4-1.3.5-.4.1-.6.2-.8.5s0 .9-.1 1.3-.2.6-.1 1zM996 259.9c0 .2.1.4.3.4.6.1 1-1 .4-1.3-.2-.1-.4-.1-.4.1-.1.2-.1.4-.2.4-.1.1-.2.2-.1.4z"/><path class="st34" d="M1002.5 270.3c.4.4 1.1.5 1.5.2.3-.3.2-.7-.2-.8-.2-.1-.4 0-.6-.2-.1-.2-.1-.5-.1-.8-.1-.3-.4-1.8.4-1.5.1 0 .3-.2.2-.3-.2-.4-.7-.6-1.2-.4-.5.4-.6 1.2-.5 1.7 0 .6 0 1.4.5 2.1zM999.1 259.5c.4-.4 1.3-.3 1.1.4-.2.8-.2 1.6.5 2.1.4.2.7.3 1.1.3.3 0 .5-.1.8-.1.2.2.3.4.4.5-.4.9-2.2.5-2.9.1-1-.6-1.5-2.1-1-3.3zM1006.1 285c.7.2.9-1 .1-1 0 0-.1-1.3-.1-1.5 0-.5.2-1.1.4-1.5.2-.3-.3-.6-.5-.4-.7.5-.8 1.4-.8 2.3-.1.7 0 1.9.9 2.1zM1005 276.9c0 .1.1.2.2.2h.1c.4-.2-.2-.8-.3-.2zM980.4 284.1c.8.2 1.5-.8 1.6-1.4.2-1-.4-1.5-1.3-1.9-.2 0-.4.1-.3.3.1.3.4 1.1.4 1.4-.1.3-.4.4-.5.5-.2.2-.3.3-.4.5-.1.4.2.6.5.6zM982.3 269.4h.3c.4-.1.3-.4.3-.8v-.6c0-.4.1-.7-.1-1 .1-.4.1-.7.2-1.1.6 0 1.1.9 1.1 1.5v1.1c0 .3.1.6.1.9-.1.5-.4.9-.8 1.2-.4.2-.8.3-1.2.2.1-.5.1-.8.1-1.4zM1003.5 292.4c.5 1 1.9-.1 2.2-.7.4-.7.5-2.1-.6-2.2-.4 0-.4.4-.2.5.5.3.2 1.1-.2 1.4-.4.4-.8.4-1.2.6v.4zM981.1 292.6c.6-.3 1.3-1 1.1-1.7-.1-.5-.9-1.3-1.3-.8-.1.1-.1.2 0 .3.2.3.6.3.6.7s-.5.6-.8.8c-.4.3 0 .8.4.7zM979.6 290.3c.4.2.7 0 .9-.3 0-.2 0-.3-.1-.4.1.2-.1-.1-.1-.1s-.1-.1-.1-.2c0-.2.2-.4.3-.5.3-.4.5-.6.6-1 0-.1 0-.2-.1-.2-.7-.3-1.6.7-1.8 1.3-.1.6 0 1.1.4 1.4zM993 268.9c.1-.2.2-.4.2-.6 0-.4-.4-.5-.6-.4-.3 0-.4.2-.5.4-.7.5.5 1.4.9.6zM992.8 277.7c.1.4.5.5.9.3.2-.2.4-.4.4-.6 0-.4-.5-.4-.8-.4-.4-.1-.7.3-.5.7zM1001.5 278.1c.1-.2.2-.3.4-.4.3-.3.1-.6-.3-.7-.4-.1-.8.2-1.1.5-.3.6.7 1.2 1 .6zM992.6 285.6c.2-.2.4-.3.5-.4.2-.2.2-.4 0-.5-.4-.4-1-.1-1.3.3-.1.2.4.7.8.6zM985.4 297.4c.2.2.4.3.7.4.4.2.7-.2.6-.5-.2-.4-.4-.9-1-1-.4 0-.6.2-.7.4-.1.3.1.6.4.7zM982.2 275c.2.3.4.4.7.4s.5-.4.4-.6c-.1-.4-.2-.7-.4-1.1-.2-.3-.7-.3-.9.1-.1.3-.1.8.2 1.2z"/><path class="st30" d="M991.5 231.8l-6.4 21.2-1.7 12.3-1.8 9.6s1.7-1.7 5.2-5.8 8.4-14.1 8.2-16.2-.6-7.2-1-12.4c-.4-5.3-.4-10.7-.4-10.7l-2.1 2z"/><path class="st12" d="M964.8 269.8s1.3 1.2 2.3.4c1.5-1 1.1-2.3 1.1-2.3l-2.1-1.7s2.2-1.8 3.9-1.9c.3 0 .5 0 .9.1 1.2.3 2.7 1.1 3.8 1.2.4.1.8 0 1-.3.9-1 3.1-5.3 4.1-8.6 1-3.3 3.9-8.4 3.9-8.4.6-2.5-.3-13.4-1.2-18.1-.5-3.2-.3-6.8.4-9.6.3-1.3.7-2.5 1.2-3.3 1.4-2.6 5.6-1.8 5.6-1.8 2.4 1.2 4.8 9.7 4.9 11 .1 1.4-1.9 4.2-3 11.1-1.1 7 .7 15.1.7 15.1s.4 1.8-3.9 6.8c-4.4 5-8.3 8.5-9.1 9-.8.4-1.3 1.2-1.8 2.2-.4 1.1-3.1 3.8-4.8 4.7-.1.1-.3.1-.4.2h-.1c-1.5.7-2.9.6-3.3.5-.5-.2-1-.5-1-.5s-.4 0-.8-.3-.5-.7-.5-.7-.6 0-1-.4-.2-.9-.2-.9-.4-.2-1.3-.5c-.8-.2.7-3 .7-3z"/><path class="st19" d="M966.2 270.6l-1.3-.9s-6.5-1.6-6.8-1.8c-.2-.2-1.1-2.8-1.1-2.8 1.6-1.9 6.7-3.1 6.7-3.1l4.7 6.1c.2 1.8-2.2 2.5-2.2 2.5z"/><path class="st11" d="M982.3 206l-3.3-.1.8 16.4-1.3 9.4c3.8-8.6 6.7-22 6.7-22l-2.9-3.7z"/><path class="st30" d="M964.5 263.1l-3.4 5.7 3.8.9.8-5.2z"/><path class="st27" d="M974.6 189l1.2 1.3s2.6 1.4 3.4 1.7c.8.2 2.5 2.5 3 4s.2 2.3.2 2.3-1.3-2.1-1.9-2.6-2.4-1.9-3.1-2.5c-.7-.6-1.3-1.7-3.3-2.1-2-.4-3.9.1-3.9.1.8-1.6 4.4-2.2 4.4-2.2z"/><path class="st25" d="M946 260.1c.6-.7 9.8-7.1 11.7-7.9.1-.1.1-.1.2-.1h.1c1-.1 6.7 5.9 6.8 6.8 0 .9-.4 5.3-.4 5.3s-3.7 5.9-6 7.1c-.7.3-1.9.5-3.2.7-3.2.4-7.5.3-8.4-.4-1.3-1.1-1.5-10.8-.8-11.5z"/><path class="st26" d="M960.9 265c1.3-2.5 1.2-8 1.2-8l-4.3-4.8c.1-.1.1-.1.2-.1h.1c1-.1 6.7 5.9 6.8 6.8 0 .9-.4 5.3-.4 5.3s-3.7 5.9-6 7.1c-.7.3-1.9.5-3.2.7.5-.3 4.7-5.6 5.6-7z"/><path class="st28" d="M945.9 260c.6-.7 10.6-7.7 11.9-8h.1s3.9 3 4 4.9c.2 2-7.1 7.8-7.9 8.7s-7.3 5.9-7.3 5.9c-1.2-1-1.4-10.7-.8-11.5z"/><path class="st29" d="M952.8 266.6c-.3.3-1.9 1.7-1.9 1.7s2.2-.4 2.4-.6.5-1.1.9-1.5 2.3-1.3 2.7-1.7c.4-.4 1.9-3.1 1.9-3.1s-5.7 4.9-6 5.2z"/><path class="st35" d="M969.5 269.4c.9-2.1 1.3-4.1 1.3-5 1.2.3 2.7 1.1 3.8 1.2l.2.1s6.1 1.6 10.1-5 5.2-11.2 4.8-16.2 2.1-19-1.2-21.8c-3.3-2.9-5.6-2-5.6-2 .3-1.3.7-2.5 1.2-3.3 1.4-2.6 5.6-1.8 5.6-1.8 2.4 1.2 4.8 9.7 4.9 11 .1 1.4-1.9 4.2-3 11.1-1.1 7 .7 15.1.7 15.1s.4 1.8-3.9 6.8c-4.4 5-8.3 8.5-9.1 9s-1.3 1.2-1.8 2.2c-.4 1.1-3.1 3.8-4.8 4.7-.1.1-.3.1-.4.2h-.1s-1.3-.2-1.6-.5c-.4-.4-.8-.8-1.2-1.1-.4-.4-.7-.4-1.3-.9-.4-.4-1.1-.6-1.1-.6s1.3-.5 2.5-3.2z"/><path class="st15" d="M969.4 210h-1.1c.3-.4-.1-1.3-.1-1.3l1.2 1.3z"/><path class="st36" d="M1000.3 230.6c-.2-2.3-2.8-8.1-6.4-12.6-3.1-3.8-9-8.6-9-8.6l3.2 4.9c-1.8.7-2.8 1.9-2.8 1.9 2.1-.8 4.4 2.2 4.4 2.2l-1.3-.1s3.4 2.2 4.6 3.6c1.2 1.3 1.6 3.8 1.6 3.8 1 .9 3.4 4.6 3.4 4.6l-.8-.3c1.8 2 2.7 5.9 2.7 5.9s.4-2.8.4-5.3z"/><path class="st36" d="M987.4 212.9c-1.6-.4-3-.9-3-.9 1.3 1.6 3.5 2.4 3.5 2.4l-.5-1.5z"/><path class="st10" d="M975.5 187.5c1.1-.1 10-.2 14.2 2.5s12.5 11.5 12.5 11.5c-5.2-4.4-11-5.1-11-5.1 2 3 3.4 7.9 3.4 7.9l-3-2.8c3.6 5.7 7.2 16.3 7.2 16.3-3.2-8.6-7.4-13.3-7.4-13.3l-.1 7.6c4.4 6.4 8.1 15.1 8.1 15.1s-1.6-3.2-4.9-7.2c-3.2-3.9-9.9-10.7-9.9-10.7l-4.4-5.5c.4-2.5 2.3-5.2 2.3-5.2-2.9.7-4.3 2.8-4.3 2.8.3-1.9 5.7-4.4 5.7-4.4s-2.1-.6-3.6-.9c-1.3-.2-2.9 0-2.9 0l2.9-1.1c-.4-1.2-2.4-2.4-2.4-2.4-1.4.6-4.3 2.4-4.3 2.4s3.1-3 5.4-3.6c2.2-.5 8.1-.2 8.1-.2s-5.1-1.1-8-.9c-2.5.2-7.1 3.5-7.1 3.5l2.6-4.4c-3.6.3-5.6 3.7-5.6 3.7 1-2.8 5.5-5.4 6.5-5.6z"/><g><path class="st9" d="M980.2 206.1c.3 1.4.5 2.8 1.9 3.5 2 1 5.1-1.6 5.8-3.9.9-2.8-.4-5.7-2.9-5.6-2.4.3-4.7 3.9-4.7 3.9s-.2 1.2-.1 2.1z"/><path class="st21" d="M984.1 204.1c1.7-.4 3 .1 3 .1s-1.3-2-2.8-1.5c-1.5.4-3.4 2.8-3.4 2.8s1.6-1.1 3.2-1.4z"/><path class="st21" d="M982.8 206.2c-.4-1.3.4-2.5.4-2.5l-.8.6s-.4 1.3.1 2.3c.4.8 1.4 1 1.4 1s-.9-.2-1.1-1.4z"/><path class="st7" d="M980.8 203.3c-.1 1 .6 1.3.6 1.3 1.7-1.8 2.8-2.1 3.9-2.5.8-.3 1.2-1.4 1.2-1.4-2.1-1.3-5.6 2-5.7 2.6z"/></g><path class="st19" d="M968.9 215.2c.4-.5 1.2-1.8 1.2-1.8l-.3 1.4c.3-.4 1.6-1.9 1.4-2.2-.2-.4-1.1-.9-1.1-.9l.4-1-.6.9c-1.5-.4-3-.4-3-.4l.1-.4-.5.6c.2-.6.6-1.3.6-1.3 4.6-.5 9.2 1.5 9.2 1.5 2.4-1.6 2.6-5.8 2.6-5.8l1.5-1.9s.8 4.1 1.2 8.5c.3 4.3-.1 9-.1 9l-.8-1.9s-2.1 10.7-3.5 12.2-4.4 2.2-4.4 2.2l-1.1-1.3-.3 1.7c-.5-1.2-1.3-3.4-2-5.6-1.2-3.9-2.1-8.1-2.1-8.1l-.1 3.1c-.4-4.7-.5-9.6-.5-9.6.2.7 1.7 1.4 2.2 1.1z"/><path class="st10" d="M970 224.9c.7 3.1 2.6 5.8 2.6 5.8 1.6-2.3 2.9-10.1 2.9-10.1l.2 6.5.7-4 .4 6c1.7-3.7 2-11.8 2-11.8l.4 1.5c1.3-5 1.2-15 1.2-15s.8 4.1 1.2 8.5c.3 4.3-.1 9-.1 9l-.8-1.9s-2.1 10.7-3.5 12.2-4.4 2.2-4.4 2.2l-1.1-1.3-.3 1.7c-.5-1.2-1.3-3.4-2-5.6.2-2 .4-3.7.6-3.7zM967 210.2l.6.9 1.7.1 1-.8.3 1.3.7.4.8-.4-1.3 1.8s.2-.4.2-.8-1.1-.9-1.1-.9l.4-1-.6.9-3-.4.1-.4-.5.6c.1-.7.6-1.4.7-1.3z"/><path class="st36" d="M998.9 233c0 2.6-2.7 10-2.7 10l.8-.8s-2.2 8.8-2.1 9.2c.2.4 3 3.8 3 3.8s-2.1-3.1-2.2-3.7c-.3-.5 2.6-9.4 3.7-13.5s.9-6.6.9-6.6l-1.4 1.6z"/><path class="st36" d="M998.8 236.3l-.4-3.2.8 1.8-.4 1.4zM994.4 225.7l-2.4-2.5 2.9 1z"/><path class="st30" d="M984.1 275.7l-.4-5 3.1 3s2.3-4.3 4.8-7.2c0 0-1.8 4.9-2.2 10.6-.4 5.6 5.5 22.6 5.5 22.6v.1c-1.5 1-3.6 1.8-6.1 1.1-2.1-.5-4.4-1.8-6.3-3.1l-.1-.4 1.7-21.7zM995.8 260l-5.9 1.5c.9-.4 1.8-.7 2.6-1.2 3.3-1.9 5.7-4.5 5.7-4.5s6.9 9.8 7.8 13.2c.6 2.1 2.1 19.3 2.1 20.8.2 1.4 1.9 3.3 1.9 3.3-.5.3-1.3.4-1.3.4s-6.6-22.7-7.3-24.5c-1.8-4.5-5.5-9-5.6-9zM971.6 353.4c1.6-.3 5.4-2.8 7.8-2.1s6.4.6 6.4.6c-.6.4-5.6.4-6.8.5-1.3.2-4.6 1.3-6.1 1.4-.5 0-1.7 0-3-.1.6-.1 1.3-.2 1.7-.3z"/><path class="st7" d="M1000.5 355.4s.5-1.3 1.2-1.6c.5-.4 3.1-.7 3.1-.7s-1.9.6-2.1.9c-.2.3-.5 1.5-.5 1.5l-1.7-.1zM1005.1 356.8l.3-1.6-.8 1.2z"/><path class="st30" d="M1006.3 293.5l-5.5-21 2.2 20.8c1.5.3 3.3.3 3.3.2z"/><path class="st27" d="M965.2 207.2c-.2.4-.3.8-.4 1.4 0 0 .6.4 1.1-.1.4-.4.3-1.4.3-1.4-.7-.4-1 .1-1 .1z"/><path class="st14" d="M966.4 209.2c.2-.3 1.1.1.9.3-.2.1-1.1 0-.9-.3z"/></g><g><path class="st19" d="M920.8 412.7s-7.8 1.3-15.2 2.5-18 4-18 4l-2.8-.9s-4.5-2.9 0-10.8c4.5-8 23.5-24.9 23.5-24.9l13.2 13s2.9 12.4 2.9 13.4c-.1 1-3.6 3.7-3.6 3.7z"/><path class="st7" d="M919.8 315.2s5.9 14.1 5.9 18.3c0 4.2-9.4 19.4-9.4 19.4l-8-10.4 11.5-27.3z"/><path class="st19" d="M921.8 309.3s.9 7.2.6 8.4-4 3.9-4 3.9l3.4-12.3z"/><path class="st7" d="M861.1 496.8c.5.5 7.6 2.4 9.7 2.4 2 0 5.2-.8 7.7-1.8s13.5.7 14.8-.6c1.3-1.3-2.1-14-2.1-17.1 0-.6.4-1.7.9-3 1.1-2.4 2.9-5.8 4.6-9.3 1.8-3.7 3.6-7.4 4.2-10.4 1.6-7.3-1.6-19.6-1.6-21.4 0-1.1 5.6-22.4 9.9-39 2.9-10.9 5.3-20 5.3-20-9.8-3.9-21.7-15.1-23.5-9-2.1 7.3-3.8 17.5-4.8 27.9-.9 8.3-1.3 16.7-1.5 24.1-.2 9.1.4 16.5 1.5 19.1 2.1 4.7-.7 37.1-2.2 40.3-1.5 3.2-13.9 12.6-15.5 13.3-1.6.7-5.9.5-6.4 1.1-.9.4-1.7 2.8-1 3.4z"/><path class="st7" d="M907.7 266.3s15.4 29.7 14.1 42c-1.2 12.3-6.4 31.9-6.4 33.5s10.2 19.1 10.2 29.2c0 0-9.2 12.6-17.4 11.7-8.1-1-17.5-16.9-17.5-20.1s-1.3-44-1.3-44l-2.1-4.6s-.1-17.9 8.7-31.3l-3.1-8.7c0-.1 4-10.6 14.8-7.7z"/><path class="st12" d="M884.9 242.9s-2.3 4.1-3.3 7.6c0 0-.1 2.2.7 3.7 0 0-2.8 3.7-3.9 6.1-1.3 2.3-1.6 4.9-1.6 4.9s.9 1.3 2.1 1.7l1.3.4s-.4 1.7-.4 2.4c0 0-.4.2-.6.5 0 0 1.4 7.7 3.3 9.5 0 0 8 1.2 14.9-3s4.8-11.5 5.6-15.4c.9-4.5-.7-8.1-2.1-9.9-3.4-4-10.2-7.2-16-8.5z"/><path class="st7" d="M883 253.5s-.5 5.6.4 8.8c0 0 3.3.5 7.3-1.6 0 0 .6 5.2-1.3 8.9l8.1 3.3 3.4-16.3 2.1-9.2-18.2-4.5s6.4 3.8 5.8 5.9c-.4 2.1-2.1 2.6-2.4 3.9l-5.2.8z"/><path class="st19" d="M890.3 255.8l-.9-3.6v1.3s-4.3-3.6-8.1-4.3c0 0-.4 2.4.5 3.3l-.9-.9s.2.9 1 1.8c0 0 1.8 0 4.2.6 1.7.5 4.2 1.8 4.2 1.8z"/><path class="st30" d="M896.8 429.1c0 .9-.5 5.1-.5 7.6s4.8 12.3 2.8 21.7c-.6 2.9-1.3 6-2.5 8.9 1.8-3.7 3.6-7.4 4.2-10.4 1.6-7.3-1.6-19.6-1.6-21.4 0-1.1 5.6-22.4 9.9-39l-10.3-5.5-12.7 4.6c-.9 8.3-1.3 16.7-1.5 24.1v.1c-.1-.2 12.2 6.5 12.2 9.3z"/><path class="st15" d="M884.3 257.4s1.3-1.8 2.1-1.6c.6.1 1.6 1.6 2 3.9 0 0-2.5-1.8-4.1-2.3z"/><path class="st16" d="M888.1 260.1s-1.2 1.8-3.8 1.8c0 0-.1-.4.4-1.9.5-1.4 3.4.1 3.4.1z"/><path class="st14" d="M888.4 259.7s-1.3 2.1-3.7 1.8c0 0-.5-1.1-.2-3.9-.1.1 2.3.5 3.9 2.1z"/><path class="st17" d="M885.9 258.3s-.4 3-1.3 3c0 0-.5-1.7-.1-3.7l1.4.7z"/><path class="st13" d="M888.4 259.7s-2.2-1.5-4.9-2.4c0 0 1.2-.3 3 .6 1.3.7 1.9 1.8 1.9 1.8z"/><ellipse transform="rotate(-82.126 885.626 259.543)" class="st18" cx="885.7" cy="259.6" rx=".2" ry=".4"/><path class="st15" d="M880.1 267.4h2.1s-.8-.8-2.5-1.2c-1.7-.4-3-1-3-1s1 1.6 3.4 2.2z"/><path class="st12" d="M909.8 445.5c1.1 2.4 11 37.9 10.4 41.4-.1.5-.4 1.1-.8 1.6-2.6 3.6-10.5 8.6-11.3 8.9-.9.3-8.8 1-9.2 1.4s-1.3 3.7-1.1 3.9 3.9.4 3.9.4-.4 1.3 0 1.8c.4.4 2.1.8 2.1.8s.8.5 1.6.5 3.3-.4 3.3-.4 1.1.4 3.3.3c.6 0 1.3-.1 2.1-.3 3.9-.7 7.4-1.6 12.8-2.3 5.4-.7 6.2-2.2 6.2-2.2.4-4.5-4.5-13.3-5.3-16.4-.9-3.1 1.6-22.1.7-27.8-.9-5.6-6.8-14.7-8.8-20.4-1.2-3.4-.2-22.7.8-39.4.7-11.4 1.3-21.6 1.3-24.6 0-7.5-6.8-5.5-13.3-7.9-2.5-.9-10.7-1.1-13.2 11.6-.8 4.1-.4 10.9.6 18.5.6 4.6 1.4 9.3 2.2 14 2.1 11.5 4.7 21.8 5.7 24.6 2.5 6 4.9 9.6 6 12z"/><path class="st15" d="M882.2 265.5s.4 1.5 0 2l1.7.2-1.7-2.2z"/><path class="st27" d="M879.2 262.8s.2 1.5-.5 2.2-1.7 0-1.7 0c.2-1 .4-1.5.7-2.2-.1 0 .6-.8 1.5 0z"/><path class="st14" d="M880.8 266.5c.3-.3-1-.9-1.3-.5-.4.4 1 .8 1.3.5z"/><path class="st19" d="M884.3 244.2s-3.3-3.8-3.3-5.3l3 3.6s1.2-3.9 2.5-5.3c1.3-1.3 13.2-6.4 13.2-6.4l-1.5 2.4s14.9 1.7 25.2 15.1l-3.6-1.3s2.6 4.5 2.6 18.7c0 14.1-2.7 28.1-2.7 28.1s-10.5-24.1-12.6-27-4.2-5-4.2-5v2.4l-2.1-1.4s.4-3.6-.5-6.1c-1-2.5-2.3-4.7-2.3-4.7l2-.6c-.6-.1-5.6-5.5-15.7-7.2z"/><path class="st30" d="M894.2 286s-1.5 1.5-1.5 9.7c0 8.1 6.2 18.1 7 19 .9.9 2.3 4.2 2.3 4.2l-.4 2.1s-8.6-5-10.4-9.4-1.3-17.3-1.3-17.3l4.3-8.3z"/><path class="st11" d="M908.9 269.9s-5.7 9.8-12.7 12.8l-.6-1.8 6.7-13.3.9-3.1 4.7 2.2 1 3.2z"/><path class="st27" d="M887.1 237.1s2.2 2.1 3.8 2.2c1.5.2 4.2.7 5.8 1.6 1.6.9 3.6 2.1 4.7 3.2 1.2 1.2 2.7 1.1 3.4 3 .8 1.9.8 4.1.8 4.1s-1.6-4.1-4.2-5.9c-2.6-1.8-6.5-1.3-7.6-2.4-1.1-1.1-3.5-2.5-4.9-3s-3.2-1.6-3.2-1.6.9-1.2 1.4-1.2z"/><path class="st10" d="M883.9 242.5s1.7-4.3 3.6-4.9 4-.8 4-.8-2.6.9-3.7 2-1.4 5.1-1.4 5.1 2.1-3.6 3.9-4.2c1.8-.6 5.6.6 5.6.6s-2.9 2.7-4.4 4.3c0 0 3.8-2.2 6.5-2.2 2.8 0 7.1.5 7.1.5s-5.4.3-7.3 1.6c-1.8 1.3-3 2.3-3 2.3s3.5-1.1 5.9-1.1 5.7 3.5 5.7 3.5l-7.2 2.1h3.9c.5 0-1.6 8.1-1.6 8.1l6.1 9.1s10.9 22.8 11.6 25.3c0 0-4.7-18.6-6.4-23.5l4.7 2.6s-1.4-17.7-5.4-22.7l4.7 4.1s-5.8-10-10.8-13.9l3.6 1s-8.8-4.8-13.3-5.8c-4.6-1-6.1-.7-6.1-.7s-3.7 1.4-4.4 2.8c-.6 1.4-1.9 4.8-1.9 4.8z"/><path class="st7" d="M896.3 395.1c.6 4.6 1.4 9.3 2.2 14 .5.4 16.8 10.5 19.7 13.4v15c0 2.1 5.7 9.5 7.4 20.4 1.8 10.9 1.6 29-5.6 29l-.8 1.6s4.8 1.2 8.2 5.9c0 0 2.2 4.3-4.1 6.7-6.1 2.3-11 4.9-11.3 5.1.6 0 1.3-.1 2.1-.3 3.9-.7 7.4-1.6 12.8-2.3 5.4-.7 6.2-2.2 6.2-2.2.4-4.5-4.5-13.3-5.3-16.4-.9-3.1 1.6-22.1.7-27.8-.9-5.6-6.8-14.7-8.8-20.4-1.2-3.4-.2-22.7.8-39.4l-23.3-3.2-.9.9z"/><path class="st9" d="M901.7 259.4s4-5.4 7.9-5.4c3.9-.1 5.6 4.8 3.9 9-1.4 3.6-6.5 7.3-9.5 5.5-2.1-1.3-2.3-3.3-2.5-5.6-.2-1.6.2-3.5.2-3.5z"/><path class="st21" d="M902.5 261.8s3.2-3.4 5.6-3.9c2.5-.4 4.1 2.7 4.1 2.7s-2.1-.8-4.7-.5c-2.5.4-5 1.7-5 1.7z"/><path class="st21" d="M906.8 265.7s-1.5-.4-2.1-1.8c-.7-1.6.1-3.7.1-3.7l1.3-.8s-1.3 1.9-.9 3.9c.3 1.8 1.6 2.4 1.6 2.4z"/><path class="st7" d="M911.8 254.9s-.6 1.8-2 2.1c-1.8.4-3.6.8-6.4 3.4 0 0-1.1-.5-.9-2 .2-.9 6.1-5.5 9.3-3.5z"/><path class="st20" d="M879 270.4s3.4.7 6.4 1.4c0 0-4.7-2.1-5.7-2-.5.1-.7.6-.7.6z"/><path class="st33" d="M884.8 418.3c-.1-.2-2.5-3.9-1.9-5.6.6-1.8 14.8-13.1 15.8-13.1s9.1 5.2 11.6 5.2c2.4 0 6.8-2.4 6.8-2.4s5.8 4 6.8 5.9c.9 1.7-2.3 3.9-2.9 4.3.6-.4 3.8-2.2 3.8-3.4 0-.3.1-1.6.1-3.7.4-9.6 1.4-34.8 1.4-34.8-.3-2.8-1.3-6.8-2.6-11-.2-.4-.3-1-.4-1.4-.6-2.1-1.3-4.1-2-5.9l-.6-1.8c-.9-2.6-1.7-4.7-2.1-5.7l-.3-.6s.9-1.2.9-2c0-.3-.3-.5-.6-.7-.5-.3-1.3-.4-1.3-.4 0-1.6 6.1-22.2 6.1-22.2 0-2.6-1.3-9.9-1.3-9.9l-.1 1.1s.4 6.5.4 7.3-5.3 6.9-8.4 6.9c-.7 0-1.8-.2-3.1-.5-2.5-.6-5.7-1.8-8.8-3.6-1.3-.7-2.5-1.6-3.6-2.6-1.3-1.1-2.5-2.4-3.3-3.8-2.1-3.5-3-8.8-3.2-13.4-.1-1.1-.1-2.1-.1-3.1 0-3.2.3-5.7.5-6.4.3-.6.5-1.3.8-1.9.4-.8.7-1.5.8-1.8-.2.3-.4.8-.9 1.5-.3.5-.6 1.1-1 1.7-.9 1.5-1.8 3.2-2.1 3.9l-.4.8c-.4.8-.8 2-1.3 3.4-.6 1.7-1.3 3.9-2 6.1l-.3.9c-1.2 4-2.1 8.3-2.1 11.7 0 1 3 6.6 3 7.9 0 1.1 2.9 22.7 3.5 30.4v.4c.1.8.1 1.4.1 1.8 0 .6-.3 2.6-.7 5.4-.2 1.1-.4 2.2-.5 3.4-.1.7-.3 1.4-.4 2.1-.2.9-.3 1.8-.4 2.7l-.4 2.4c-.4 2.4-.9 5-1.3 7.6-.1.6-.3 1.3-.4 2-.1.4-.2.8-.2 1.3l-.2 1c-2.3 13.3-4.7 26.5-4.7 27.3-.4 1.3 3.2 5.1 3.5 5.3z"/><path class="st37" d="M903.4 363c6 .1 14.5.2 20.1-3.3-.2-.4-.3-1-.4-1.4-5.5 3.2-14.5 3.4-19.7 4-.4 0-.4.7 0 .7zM899.1 356.7c6.6 1.4 16.4-.1 22-4.4l-.6-1.8c-.4.4-1 .7-1.4 1-.2.1-.3.3-.3.4-3 1.3-6.2 2.1-9.4 3-2.2.5-4.1.4-6.4.7-1.3.1-2.6.7-3.9.9-.1-.1-.2.1 0 .2zM904 346.9c3.2.2 6.4-.4 9.6-.7 1.3-.1 2.4-.4 3.5-.8.1 0 .3-.1.4-.1.4-.2.6-.4 1-.5l-.3-.6s.9-1.2.9-2c0-.3-.3-.5-.6-.7l-.1.1c-.6.5-1.3 1.1-2 1.5-.4.3-.4.7-.3 1.1-1.4.4-3 .3-4.7.6-2.4.5-4.7 2.1-7.3 2.1-.1-.1-.1 0-.1 0zM910.6 341c.9-.4 1.9-.6 2.8-1 1.1-.4 1.7-1.3 2.8-1.8.2-.1.3-.2.3-.3.2 0 .3 0 .4-.2.2-.3.3-.5.4-.8.1-.1.2-.3.1-.4 0-.1 0-.1-.1-.2-.3-.3-.4-.5-.7-.9-.1-.1-.1-.2-.2-.3-.4-.3-.9 0-.7.4-.1 0-.1.1 0 .2l-.1.1-.3.6c-.3.3-.4.5-.4 1-.7.5-1.4 1.3-2.2 1.7-.8.4-1.7.4-2.3 1.1-.5.6-.2 1 .2.8zM894.4 375.4c.5.2 1.2.1 1.8.3.4.1.9.3 1.3.4.3.1.5.2.9.4.4.1.7.2 1 .4.4.2.7.3 1.1.4.1.1.1.3-.1.2-1.2-.2-2.1-.4-3.3-.6-.5-.2-1-.3-1.5-.5-.5-.3-.9-.7-1.2-1-.1 0-.1 0 0 0z"/><path class="st37" d="M887.8 372.7l.4.4c1.4 1.3 3 2.1 4.9 1.9.7.4 1.4.6 2.3.7.1 0 .1-.1 0-.1-1.8-.8-3.3-1.9-4.5-3.5-.8-1.1-1.4-2.3-2.3-3.4-.2 1.2-.5 2.5-.8 4zM886.1 383.2c.2.1.4.3.6.4.2.1.4.1.5.1 2.1 1.5 4.7 2.9 7.2 2.8.4 0 .4-.5.1-.6-1.6-.3-3-1.6-4.5-2.4-1.3-.7-2.4-1.4-3.6-2.1-.2.6-.3 1.2-.3 1.8zM895.4 386.4c3.4.7 6.9.6 10.2 1.3.2 0 .2.3 0 .3-3.6.5-6.8-.5-10.2-1.6-.1 0-.1 0 0 0zM888.9 366.5c1 .6 2.1 1 3.3 1.4.5.5 1.3.8 2 1 .6.2 1.3.4 2.1.3.6.3 1.3.5 2 .4.1 0 .2-.2.1-.3-.4-.4-1.2-.6-1.8-.9-.2-.1-.4-.3-.6-.4-.5-.3-1.1-.5-1.6-.9-.1-.1-.2-.1-.3 0-1.1-.6-2-1.3-2.9-2.2-.5-.5-1.1-1.3-1.7-1.9-.2 1.1-.4 2.2-.6 3.5zM908.4 385c2.1-1.2 4.9-1.5 7.3-2.1 2.3-.5 4.4-1.6 6.7-2.1.4-.1.6.5.2.6-.6.2-1.3.4-1.9.7-.7 1.3-1.7 2.4-3.3 2.8-.9.2-1.8.1-2.7.2-1 .1-2 .4-3 .1-.1 0-.2-.1-.2-.2-1 .2-2.1.3-3 .2-.2.1-.2-.1-.1-.2zM890.9 330.5c2.3-.9 5.1-.8 7.5-1s4.6-.9 7-1.1c.4 0 .5.6.1.6-.7.1-1.3.3-2 .4-.9 1.3-2.1 2.1-3.8 2.3-.9.1-1.8-.2-2.7-.2-1-.1-2.1 0-3-.4-.1 0-.2-.1-.2-.3-1.1 0-2.1 0-3-.3 0 .2-.1 0 .1 0zM893.1 393.5c1.4 1.2 3.4 1.1 5.1 1.3 1.3.2 2.6.4 3.8.8.1 0 .1-.1.2-.1 2.3.1 4.6.1 7-.2 2.4-.2 5.5-.1 7.7-1.1.4-.2.7.3.4.5-.5.5-1.3.9-2 1.2-.6.3-1.6.4-2.2.7-.7.4-.3.3-1.2.5-2.3.7-4.8.3-7.2-.4-.9-.1-1.7-.3-2.5-.5-3-.2-6.8-.4-9.1-2.7-.2 0-.1 0 0 0zM890 355.7c.2.2.4.4.6.4.4.1.9 0 1.3 0h.9v.1c.4.3.9.2 1.3.2.6 0 1.2-.2 1.8-.3.1 0 .1-.1 0-.1-.2 0-.3 0-.4-.1 0 0 0-.1-.1-.1-1.6-.3-3.1-.9-4.7-1.6-.3-.1-.5 0-.6.1v.1c.1.2 0 .6-.1 1.3z"/><path class="st37" d="M890.2 354.2s0 .1 0 0c-.1.1-.1 0 0 0zM889.3 343.8c.1.6.1 1.3.2 2.1v.4c.4.3.8.2 1.2.2.6-.1 1.3-.2 1.8-.4.2-.1.4-.2.5-.4 2 0 4.1-1.1 5.8-2.1 1-.3 1.9-.7 3-1.1.1 0 .1-.2-.1-.2-.6.2-1.2.3-1.8.4 0-.2-.1-.4-.3-.3-1.2.4-2.3.8-3.5 1.2-2.1.3-4-.1-6.2-.4-.1 0-.2 0-.3.1-.1 0-.2 0-.3.1.1.1 0 .2 0 .4 0-.1 0-.1 0 0zM887.8 298.6c.7.4 1.5.7 2.1 1.1.5.3 1 .4 1.5.6-.1-1.1-.1-2.1-.1-3.1-.7-.6-1.4-1.3-2.2-2-.3.8-.7 2-1.3 3.4zM891.6 290.5c.1.1.3.2.4.4.3-.6.5-1.3.8-1.9 0-.1-.1-.1-.1-.2-.4.5-.7 1-1.1 1.7zM903.2 312.6c-.1 0-.1 0 0 0zM887.6 315.6v.3c4.2 1.3 9.4 3.9 14.1 4.2-1.3-.7-2.5-1.6-3.6-2.6-1.6-.5-3.1-1.3-4.9-1.1h-.2c-1.8-.3-3.7-.8-5.4-.8zM885.6 305.6c.4.2 1 .3 1.4.4.8.1 1.7.3 2.4 0 .3-.1.3-.4 0-.5l-1.2-.3s0-.1-.1-.1c-.3 0-.5-.1-.8-.1h-.2c-.4-.1-.8-.3-1.3-.4 0 .4-.1.7-.2 1zM900.1 353.2c.6-.1 1.3-.1 2-.2.2 0 .2.3 0 .3-.6 0-1.3.1-2 .1-.1 0-.1-.2 0-.2zM895.7 362.3c1 .2 1.8.6 2.7 1.2.8.4 1.8.9 2.4 1.6.2.2 0 .4-.2.4-.9-.3-1.9-.8-2.7-1.2-.9-.4-1.7-.9-2.5-1.5 0-.4.1-.6.3-.5zM915.2 377.9c1-.4 1.8-1.1 2.8-1.6s2-1 3-1.6c.2-1.3.3-2.3.4-2.6 0-.2.2-.5.4-1-.4.3-.9.6-1.3 1-.5.2-1.2.3-1.7.2 0 0-.1.1 0 .1.5.1 1.1.1 1.6-.1-.5.4-1 1-1.4 1.3-.8.6-2.1 1.3-2.7 2.2-.5.4-1 .8-1.3 1.3-.6.4-.2.9.2.8z"/><path class="st30" d="M885.6 385.5l5-1.5 1 19.2 3.8-6s.3-16.8 2-23c1.6-6.2 10-16.9 10-16.9s14.5 7.3 15.9 13.9c1.4 6.7 0 33 0 33l1.4 1.4c.4-9.6 1.4-34.8 1.4-34.8-.3-2.8-1.3-6.8-2.6-11-.2-.4-.3-1-.4-1.4-.6-2.1-1.3-4.1-2-5.9l-.6-1.8c-.9-2.6-1.7-4.7-2.1-5.7l-.3-.6s.9-1.2.9-2c0-.3-.3-.5-.6-.7-.5-.3-1.3-.4-1.3-.4 0-1.6 6.1-22.2 6.1-22.2 0-2.6-1.3-9.9-1.3-9.9l-.1 1.1s.4 6.5.4 7.3-5.3 6.9-8.4 6.9c-.7 0-1.8-.2-3.1-.5 0 0-5.6 23.2-7 26.1-1.4 3-15.3 21-15.3 21l-.1.5-.4 2.4-1.9 10.8-.4.7zM883.5 317.3s3.6 2.4 13.7 1.6l3 2.7s-9.1 1.8-14.1 1.8l-2.6-6.1z"/><path class="st32" d="M920.8 412.7s5.2 1.2 6.4 0l-2.9-.4s2.9-.2 2.9-3-10.8-10.7-10.8-10.7l.6 1.8s-2.2 1.3-4.7 2.2c-2.5.9-12.2-5.1-14.4-5.7-2.1-.6-3.4-.8-3.4-.8l2 .9-8.9 7.6h1.5s-7.9 6.5-8.9 8.9l-1 2.2 1.2-1.5s2.7 3.8 4.1 4.4v-.4s-1.9-3.4-1.5-4.9 3.8-4 3.8-4l-.5.8s5.4-4.8 7.6-7.1c2.2-2.2 4.1-2.7 4.6-2.7.4 0 8.1 4.5 10.7 5.1l-.4-.5s2.4.8 3.9.3 3.4-2.2 4.8-1.7c1.4.5 6.4 4.9 6.4 6 0 .8-3.1 3.2-3.1 3.2z"/><path class="st19" d="M879.6 274.8s-.7 2.9-.8 6.5c0 .8 0 1.6.1 2.5l.5-1s1.3 3.3 2.8 5.6c0 0 7.7-3 13-7.3s7.3-9.2 7.3-9.2l1.2 1s-1.6-10.3-2-13.5l-1.3.4s-2 8.5-7.7 11.1c0 0-6.6-2.7-12.5-3.5l-2.1 1.5h1.3l.7.8s3-.4 4.6 1.2c0 0-.1 4-.8 5.8l-.4-1.4s-1.7 1.5-3.9-.5z"/><path class="st30" d="M916.4 307.6s-3.1 17-2.1 26.4 2.1 15.8 2.1 15.8-3.7 10-12.8 19.3c-7.9 7.9-15.9 9.2-15.9 9.2l2.7-12.6s16.6-20.1 18-26.2 8-31.9 8-31.9z"/><g><path class="st25" d="M836.1 335.3c.1.1.2.2.3.2.7.1 6.2-.3 6.2-.3l3.1-3.4s0-.3.1-.7c.2-1.7.4-6.2.4-7.8 0-.3-.1-.4-.1-.5-.4-.4-5.6-4-8.5-5.7-1-.5-1.7-1-1.9-1-.4 0-1.3-.2-1.8-.4-.3-.1-.5-.3-.7-.4-.4-.5-8.5-6.4-9.9-6.4-.1 0-.2.1-.2.2-.3 1.7 6.4 15.3 7.2 17.4.6 1.6 4.5 7.8 5.8 8.8z"/><path class="st19" d="M956.8 456.6l-111-125.3-4.8 3 15.8 17.1 27.5 27.2 68.7 81.2c-.1.1 3.6-1 3.8-3.2z"/><path class="st19" d="M845.8 331.3s-8.1-6.9-8.6-7.5-2.1 1.3-2.1 1.3l5.9 9.4 4.8-3.2z"/><path class="st28" d="M836.1 335.3l.3.2 1.1-2.3s-3.9-5.7-3.9-6.8c.1-1.1-1.3-4.9-2.4-6.2-1.1-1.3-2.1-2.8-2.1-3.2 0-.5.4-2.6-.2-3.3-.6-.7-5.6-5-5.6-5l-.2.2c-.3 1.7 6.4 15.3 7.2 17.4.6 1.8 4.5 8 5.8 9z"/><path class="st26" d="M841.5 327.5l4.2 3.7.2.2s.4-5.6.2-8c0-.2-.1-.4-.1-.5-.4-.4-5.6-4-8.5-5.7-1.1-.6-1.9-1-1.9-1l-1.8-.4c.4.3 5.8 4.1 6.4 4.9.7.8 1.9 5.1 1.9 5.1l-.6 1.7z"/><path class="st33" d="M847.8 333.4s-.2-2.8-.6-3.3-16.1-2.1-16.1-2.1.1 1.3 1.1 1.9c.6.3 15.6 3.5 15.6 3.5z"/><path class="st33" d="M843.6 337.1s-2.9.3-3.8-.7c-.9-1 .9-17.3.9-17.3s.4-.5 1.3.4c.8.9 0 12.3-.2 13.9s1.8 3.7 1.8 3.7z"/></g><path class="st32" d="M893.7 287s-1.9-.8-3.8-.8l1.4.8s-1.5 3.1-2.1 12.4c-.5 9.2 2.7 15.2 2.7 15.2v-1.1s5.9 8.6 12.4 11c6.4 2.4 12.2 2 12.2 2l-1.2-.7s5.9-4 8.5-6.5c2.5-2.5-.6-9.1-.6-9.1l2.6.5-3.9-1.3s.3 6.8.3 8-6.6 6.9-8.4 6.9-14.7-4.8-18.7-11c-4.1-6.4-4.3-18.4-1.4-26.3z"/><path class="st12" d="M875.9 376.7c.7.7 1.7 1 2.3 1.6s.8 2.1 1.3 2.6c.4.4 2.4 1 2.7 1s.9.7 1.3.7 1.9-.2 2.2-.2 1.6.7 2.5.4c.9-.3 3.8-6.4 5.6-12.5 1.8-6.2 14.7-14.1 18.6-26.1 0 0-.7-16 1.8-26.4 2.5-10.5 2.7-14.2 2.7-19.7s-4.6-16.7-4.6-16.7-9.1.5-12 5.6c-.2.3-.3.6-.4.9-2.3 5-2.3 12.2-1.5 16.7.9 4.7 2.6 25.1 1.3 30 0 0-2.1 4-4 10.1-1.8 6.1-4.7 15.8-6.5 17.6-.4.4-1.1.7-1.9 1.1-2.1.8-5.3 1.3-6.8 2.1-.3.1-.5.3-.7.4-1.3 1.3-1.6 2.1-1.6 2.1l1.5 1.8-1.9 2.8-2.3-2.3c.3-.1-.3 5.7.4 6.4z"/><path class="st10" d="M878.9 281.3c0 .8 0 1.6.1 2.5l.5-1s1.3 3.3 2.8 5.6c0 0 7.7-3 13-7.3s7.3-9.2 7.3-9.2l1.2 1s-1.6-10.3-2-13.5c0 0 .4 9.2-1.7 13.5v-2.1s-3.5 8-9.7 11.6l-1.4-5s-2.1 5.5-3.8 8c0 0-3.1-.4-5-2.4-.6-.5-1-1.1-1.3-1.7zM884.7 270.9l2.8 2s-1.3-2-2.8-2.9-4.3-.7-4.3-.7l-1-.7-1.3.4h1.3l.7.8s3.2.4 4.6 1.1z"/><path class="st35" d="M875.9 376.7c.7.7 1.7 1 2.3 1.6s.8 2.1 1.3 2.6c.4.4 2.4 1 2.7 1s.9.7 1.3.7 1.9-.2 2.2-.2 1.6.7 2.5.4c.9-.3 3.8-6.4 5.6-12.5 1.8-6.2 14.7-14.1 18.6-26.1 0 0-.7-16 1.8-26.4 2.5-10.5 2.7-14.2 2.7-19.7s-4.6-16.7-4.6-16.7-9.1.5-12 5.6c-.2.3-.3.6-.4.9 0 0 8.1 1.1 12.3 9.7s-1 28.6-3.5 40.6c0 0-9.2 22.1-13.6 24.3-4.4 2.1-7.7 1.1-7.7 1.1-2.1.8-5.3 1.3-6.8 2.1.4 1.7 1 4.4.2 6.2-1.1 2.8-4.9 4.8-4.9 4.8z"/><path class="st30" d="M870.6 499.2c2 0 5.2-.8 7.7-1.8s13.5.7 14.8-.6c0 0-7.3-3.2-11.1-2.8-3.7.5-7.7 4.5-11.4 5.2z"/><path class="st7" d="M909.5 506.2s.4-1.1.9-1.7l-1.6 1.5.7.2zM904.8 506.2s.4-1.5 1.2-2.1l-2.2 1.7 1 .4zM901.7 503.1s.9-1.3 1.1-1.5c.3-.3 2.5-1.1 2.5-1.1s-3.3.6-4.5 1.3c-1.2.6-3 .8-3 .8s1.7.9 3.9.5z"/></g><g><path class="st38" d="M798 480.4c-.3.8-8.4 2.1-8.4 2.1L778 478l3-5.4 4-1.4 8.7 5.6 3.1.4c.2.1 1.8 1.6 1.2 3.2z"/><path class="st29" d="M763.2 490.4v2.1c5.1 5.1 15.8 3.4 17.1 3 .9-.3 1.5-2.1 6.4-5.3.2-.1.4-.3.5-.4 4.7-3 10.2-5.7 10.2-5.7v-2.2c-2.4 0-9.6 2.1-14.8 3.7-3.2 1-5.7 1.8-5.7 1.8l-13.7 3z"/><path class="st39" d="M763.2 490.4c1.7 1.7 14.5 2.3 15.4 1.4.9-.9 2.2-2 6.7-5s12.1-4.8 12.1-4.8l-.9-3.7-3.1-4.7-9.5-2.8s-4.8 3.2-5.6 4.7c-.3.5-1.1 2.1-1.9 3.8-1.6 3.1-3.6 7.1-3.6 7.1s-4.9-1-6.4-1c-1.3 0-3.2 5-3.2 5z"/><path class="st40" d="M782.3 486.3c-2 3.3-3.6 5.5-3.7 5.6.3-.2 4.1-3.3 5.7-3.3 1.2 0 2.3.9 2.9 1.3 4.7-3 10.2-5.7 10.2-5.7V482l-.9-3.7-3.1-4.7-9.5-2.8s-4.8 3.2-5.6 4.7c-.3.5-1.1 2.1-1.9 3.8 0 0 6.7-1.3 11 1.2 0 0-2.8 2.1-4.8 5.3-.1 0-.2.2-.3.5z"/><path class="st25" d="M755.9 389.2s2.6 15.5 4.4 23.7c.6 2.7 1.1 4.7 1.4 4.9 1.2 1.2 2.2 2.1 3.5 3.4s13 35 13 38.3c0 2.1-.4 9.2-.7 13.8-.2 2.5-.3 4.3-.3 4.3s1.7-1.8 2.9-2.1c.9-.3 13.4 1.6 15.6 2.4 2.1.7 2.3 2.5 2.3 2.5v-2.1s-3.2-12-4.7-16.8-2.2-20.8-3.5-26-8.6-17.6-8.6-17.6 1.2-1.2 1.2-2.3c0-1.2-2.8-3.5-2.8-3.5-1.2-1.2-8.4-43.1-8.4-43.1l-13.2-3.4-2.1 23.6z"/><path class="st26" d="M755.9 389.2s2.6 15.5 4.4 23.7c0 0 9.5-6.1 10.9-6.1 1.3 0 6.5 6.1 6.5 6.1s3.3 1.4 2.6 2.2c-.8.8-7 4.4-7 4.4l7-.6s6.5 12.7 6.5 18.4 2.3 22.5 2.3 22.5l-2.8-4 4.2 19s-10.4-1.9-13.1-1.3c-.2 2.5-.3 4.3-.3 4.3s1.7-1.8 2.9-2.1c.9-.3 13.4 1.6 15.6 2.4 2.1.7 2.3 2.5 2.3 2.5v-2.1s-3.2-12-4.7-16.8-2.2-20.8-3.5-26-8.6-17.6-8.6-17.6 1.2-1.2 1.2-2.3-2.8-3.5-2.8-3.5c-1.2-1.2-8.4-43.1-8.4-43.1l-13.2-3.4-2 23.4z"/><path class="st41" d="M740.5 277.7s-.9-5 .9-10.8c1.9-5.8 6.5-2.9 6.5-2.9l-7.4 13.7z"/><path class="st38" d="M726.4 480.4s.1-5.6 2.1-5.6 9.8 4.7 9.8 4.7l4.7 5.1.9 1.9v3l-5.8-.4-11.7-8.7z"/><path class="st29" d="M707.8 491.5s1.1 3 4.6 3.8c3.2.6 5.6.9 15.1.9h16.1l-.4-3.9s-3.1-.9-7.1-1.6c-3.1-.6-6.8-1.2-9.9-1.2-7.2 0-18.2.7-18.2.7l-.2 1.3z"/><path class="st39" d="M708 490.2c2.9 1.3 8.2 2.1 13.3 2.2 2.8.1 5.5 0 7.6-.2 6-.5 14.2 0 14.2 0 .8-.8 0-7 0-7 0-3.1-12.2-9.3-12.2-9.3s-2.1 2.1-4.7 4.1c-1.9 1.5-4 3-5.6 3.4-3.9 1.2-9.8 1.9-10.4 2.5-.5.7-2.2 4.3-2.2 4.3z"/><path class="st31" d="M738.3 361.1s-2.5 5.2-2.5 6.5.6 4.7.2 6c-.4 1.3-1.7 2-1.7 2l-1.9-8.4.9-4.9 5-1.2z"/><path class="st7" d="M742.2 338.2s-3.3 8.9-4 10.6c-.8 1.7-3.8 6.3-5.6 10.1-1.9 3.9-2.3 7.2-2.3 8s2.3 9.5 3 10.2 1.9-3.9 1.9-5.3-1.1-3.9-1.1-4.6 2.5-5 3.3-5 .4 2.3 0 3.3-1.8 4.2-1.3 6.5c.6 2.3 1.3 2.6 1.8 2.6.4 0 2.1-7.7 3.7-9.9 1.5-2.3 2.6-4.1 2.6-6.3s-.6-7.7-.6-9.2 1.4-7.9 1.4-7.9l-2.8-3.1z"/><path class="st28" d="M726.4 480.4s1.2-4 1.8-4 13.9 8.6 14.9 9.6 1 3.6 1 3.6 2-15.7 2-17 12-25.3 12-29.5-1.3-17.8-1.3-18.4 1.8-.8 1.8-1.4-1.5-3.3-1.5-3.3 9.1-33.8 13.2-43.7c4-10 3.8-14.6 3.8-16.4 0-1.9-3.4-18.3-3.4-18.3s-9.3-6.2-13.1-4.7c-3.7 1.4-11.8 24.8-11.8 24.8l1.4 4.6c-.2.6-5 21.3-5 34.1 0 10.5.6 17.2.9 19.9.1.6.1 1.1.1 1.3 0 1 1.5 3 1.5 3s-.2.6-.4 1.7c-2.1 7.6-10.7 38.7-12 40.8-1.1 1.8-3.3 5.6-4.7 7.7-.4.8-.8 1.3-.9 1.4-.7.1-.3 4.2-.3 4.2z"/><path class="st7" d="M759 248.9s3 13.4 5.1 18.5l-16.5 9s-3.2-3-4.1-5.5c-1-2.5-1.7-6.9-1.7-6.9h-4.2l6.9-6.3 9.8-10 4.7 1.2z"/><path class="st11" d="M760.2 250.5s-7.4 11.6-18.1 15.8l-.4-2.1h-4.2l18-19.5 4.7 5.8z"/><path class="st12" d="M732.1 249.2c.2.2-.7 3-.3 4.4l.3.3s-.6.9-.6 1.6c0 0 1.2 1.4 1.2 1.8s-1.2 3.7-1.2 5.6c0 0 2.4 1.3 5.5 1.3h.4c.5 0 1-.2 1.4-.3 2.2-.7 4.3-2.5 8.1-3.9 4.8-1.7 4.8-1.9 5.4-3 .4-1 2.6-10.3 3.9-15.5.3-1.3.5-2.2.7-2.9s.2-1.7 0-2.8c-.7-3.6-3.5-8.2-7.6-9.3-.6-.2-1.3-.3-1.9-.4-4.7-.7-9.6.4-9.6.4s-1.6 3.9-3 5.9c-1.3 2.1-2.1 2.6-2.1 2.6s.2 2.1 1.4 3.3c0 0-1.7 2.4-2.9 4.8-1.1 2.4-1.7 4-1.7 4.4.2.2 2.4 1.5 2.6 1.7z"/><path class="st42" d="M747.9 257.9c-1.9 1.9-9.8 5.9-10.4 6.2l1.4-.3c2.2-.7 4.3-2.5 8.1-3.9 4.8-1.7 4.8-1.9 5.4-3 .4-1 2.6-10.3 3.9-15.5l.7-5.6.2-1.4-1.9-6.5-6.1-2-1.7.3-7.3 1s6.4 1.2 6.4 2.9-4.1 8-4.1 8l-3-1.1s-2.7-.2-3.4.5-.9 8-.9 8 1.7.8 5 .8 6.4-2.4 6.4-2.4c1.9 1.6 3.2 12.1 1.3 14z"/><path class="st19" d="M736.9 225l-2.7-1.2 3.2 3.6c1.9-1.4 13 1.5 13.8 2.3s.1 4.6.1 4.6 3.2 2.1 3.2 4.4c0 2.4-3 8.7-3 8.7l1.6.6s.2-.7.9-2 6-1.5 6-1.5.2-1.3.2-2.9c0-1.1 1.2-6.4 1.8-9.7.2-1 .4-1.7.4-2.1v-.3c0-.4-1.3-2.3-3.8-4.4-1.5-1.3-3.5-2.6-5.9-3.7-6.3-2.7-11.5-3.3-11.5-3.3l2 .7c-4.4-.3-10.2 1-10.2 1 2.3 1.6 3.8 5 3.9 5.2z"/><path class="st15" d="M736.9 240.6s1.3-1.6 2.2-1.4c.6.1 1.7 1.4 2.1 3.5-.1-.1-2.6-1.8-4.3-2.1z"/><path class="st16" d="M740.8 242.9s-1.2 1.6-3.9 1.6c0 0-.2-.3.4-1.6.6-1.3 3.5 0 3.5 0z"/><path class="st14" d="M741.1 242.6s-1.3 1.9-3.9 1.6c0 0-.5-1-.2-3.4.1 0 2.5.4 4.1 1.8z"/><path class="st17" d="M738.6 241.4s-.4 2.7-1.3 2.7c0 0-.5-1.5-.1-3.2l1.4.5z"/><path class="st13" d="M741.1 242.6s-2.3-1.3-5.1-2.1c0 0 1.3-.3 3 .5 1.5.6 2.1 1.6 2.1 1.6z"/><path class="st18" d="M737.9 242.5c0 .1.2.2.4.2s.4 0 .4-.1-.2-.2-.4-.2-.4 0-.4.1z"/><path class="st19" d="M744 239.3l-3.8-3.5v.5s-5.1-1.8-6.7-2c0 0 0 1.5.6 2.1 0 0-.8-1-1.1-1.6 0 0 .4 1.7 1.3 2.6 0 0 2.3-.2 4.4.2 2.1.4 2.7.8 2.7.8l-.5-.8c.1.1 2.3.9 3.1 1.7z"/><path class="st43" d="M732.2 253.8s-.4-.2-.4-.6c0 0 .4.1 1.9.5 1.4.4 2.5 1.2 3.1 1 0 0-.4 0-1.5-.2-1.2-.1-3.1-.7-3.1-.7z"/><path class="st19" d="M732 254s1.4.1 2.8.5 1.7.4 2 .4 1.1-.5 1.1-.5l-.2-.1s-.6.4-1.3.3c-.7-.1-2.4-.7-4.1-.9l-.3.3z"/><path class="st7" d="M737.2 253.6s.7.4 1 1c.3.5.2.8.2.8h-.5c0-.1 0-1-.7-1.8z"/><path class="st9" d="M735.8 248.1s-.3 1.6-1.1 2c0 0-.6-1.1-2.6-1.7-2-.6-2.3-1.1-2.3-1.1s.6 1.6 2.3 2.4c0 0 2.3.4 3 .6 0 .2.5-.4.7-2.2z"/><path class="st40" d="M721.4 492.4s7.4.4 8.2 1.3c.4.4.7 1.4 1 2.5h13l-.4-3.9c.8-.8 0-7 0-7 0-3.1-12.2-9.3-12.2-9.3s-2.1 2.1-4.7 4.1l.1.3s4.7 2.3 7.4 5.1c2.9 2.9 2.7 5 2.7 5l-.4.1-14.7 1.8z"/><path class="st25" d="M726.4 480.4s1.2-4 1.8-4 13.9 8.6 14.9 9.6 1 3.6 1 3.6 2-15.7 2-17 12-25.3 12-29.5-1.3-17.8-1.3-18.4 1.8-.8 1.8-1.4-1.5-3.3-1.5-3.3 9.1-33.8 13.2-43.7c4-10 3.8-14.6 3.8-16.4 0-1.9-3.4-18.3-3.4-18.3s-9.3-6.2-13.1-4.7c-3.7 1.4-11.8 24.8-11.8 24.8l1.4 4.6s7.1-6.4 10-5.5c3 1.1 1.6 37.6.4 44.5-1.3 6.9-3 15.5-3 15.5s2.2 1.1 2.2 1.8c0 .8-5.7 2.1-5.7 2.1l4.4 1.4s-1.6 21.3-3.7 26.8-8 17-8 17l-1.5-8.4s-2.1 14.1-2.1 15.5c0 1.3-.8 3.6-.8 3.6s-8.9-6.8-11.9-5.8c-.4.8-.8 1.3-.9 1.4-.6.1-.2 4.2-.2 4.2z"/><path class="st41" d="M742.2 370.6s16.2-24.9 19.7-26.7c3.5-1.8 8.4-2.5 8.4-2.5l-11-4.4-9.3 3-7.8 30.6z"/><path class="st9" d="M735.8 248.1l-1.3-1.4s1.4.3 1.3 1.4z"/><path class="st44" d="M739.7 310.6s2.4 33 2.4 34.7-1 7.1-1 8.3c0 1.2 1.1 16.9 1.1 16.9s10-16.7 13.6-22.7c3.5-6 4.9-6.9 6.4-6.9 1.4 0 11.6.6 11.6.6s-5.1-11.6-5.9-16c-.1-.4-.1-.6-.1-.9s.1-.7.2-1.3c.1-.7.4-1.6.6-2.6 0-.1.1-.3.1-.4.4-1.3.8-2.9 1.3-4.6.1-.4.3-.8.4-1.3.4-1.7 1-3.6 1.5-5.5.4-1.4.8-3 1.2-4.4.5-2.1 1.1-4 1.4-6 .8-3.7 1.3-6.9 1.3-9.2 0-7.9-8.1-22.7-12-31-.4-.9-.7-1.7-1.1-2.4 0 0-14.2 6.9-19.8 12.4 0 0-6.1 14.1-7.1 33.4l3.9 8.9z"/><path class="st45" d="M735.8 301.9s8 .3 10.8-.7c2.9-1 6.3-3.6 6.3-3.6s-3 4.3-6.1 6.3c-3 2-7.6 5.6-7.6 5.6l-3.4-7.6z"/><path class="st27" d="M737.9 285.7s3.1 0 13.5-1.5c11.4-1.7 21.3-6.4 21.3-6.4l1.4 4s-23.9 7.7-37 7.7l.8-3.8zM735.9 299.8s27.8 0 38.8-2.7l-.5 2.7s-26.1 4.8-37.6 3.8l-.7-1.6v-2.2z"/><path class="st45" d="M761.9 343.8s-3.5-15.5-3.5-16.8l-7.6 1.6 10.2-8.1-1.7-18.6-1.4-3.9 10.6 6.4 2.8 17.8-3.7 19.6-5.7 2z"/><path class="st27" d="M741.5 336.4s14.9 1.4 29.6-3v3.5s-19.8 4.7-29.3 4.2l-.3-4.7zM740.4 319.5s19.1.5 32.6-3.3l-1.7 3.3s-23.5 2.9-30.4 2.9l-.5-2.9z"/><path class="st12" d="M759.8 376.8c1.5.5 5.6-1.9 5.6-4.9 0-3.5 2.1-6.4 2.1-6.4s.4 2.5.4 6-1.2 7.3-1.2 7.3c-1.5 3.2-2.1 5.8-1.3 5.8.9 0 3.1-2.4 3.1-2.4l1.4-.6c1.4-.6 2.6-1.8 2.6-1.8s1.3-.3 2.1-1c.6-.6 3-4.1 3.5-6.2.1-.3.1-.4.1-.6 0-2-2.9-17.3-2.9-18.9s4.7-10.7 6.9-17.9c1.8-5.8.7-13.2.2-15.8-.1-.6-.2-1-.2-1l-14.3-7.8s.2 3.5-.2 8.5c-.1 2-.4 4.1-.7 6.4-.1.6-.2 1.3-.3 2.1-.6 8.7 1.5 24.2 1.5 25.8 0 .3-.1.5-.3.9l-.1.2c-1.1 2.1-4.7 5.5-5.3 6-.6.6-.4 3.8-1 7.6-.4 3.8-3.2 8.1-1.7 8.7z"/><path class="st35" d="M767.8 354.4l-.3.6s1.1.3 2.5 3.8 1.2 16.1 1.2 16.8c0 .7 1.7-1.1 2.6-1.1.9 0 1.6-.5 2-.9s1.2-.8 1.2-.8.8.1 1.1-.3c.1-.3.1-.4.1-.6 0-2-2.9-17.3-2.9-18.9s4.7-10.7 6.9-17.9c1.8-5.8.7-13.2.2-15.8l-1.2-1.4h-11.8l-1.7 1.2c-.1 2-.4 4.1-.7 6.4-.1.6-.2 1.3-.3 2.1 0 0 9.4-1.3 12.8 1.1 0 0-4.4 21.6-5.6 24-1.3 2.4-5.9 1.5-5.9 1.5l-.2.2z"/><path class="st46" d="M752.9 280.3c0 7.5 1.3 12.8 2.1 14.3.7 1.4 7.7 12 9.1 16.9s2.3 9 2.3 9h2.1c3.9 0 11.6-.3 13.5-2.2 0 0-2.4-4.5-4.6-10-.8-2.1-1.7-4.4-2.3-6.5-.4-1.1-.6-2.2-.8-3.2-1.3-6.4-.6-11.3-.6-11.3s-3.8-19.5-12-21.8c-.9-.3-2.4.7-3.9 2.4-2.4 2.9-4.9 7.8-4.9 12.4z"/><path d="M762.4 313s1.6 3.6 1.6 6.4c0 1.5.9 2.7 1.8 3.5.7.6 1.3 1 1.3 1s.3-.3.9-.6c1.8-1.1 6.4-3.2 14.4-3.2 0 0 1.1-.9 1.1-2.2 0-1.3-3.8-4.7-4.7-9.4h-1.3c-.7 0-1.6.1-2.7.2-.9.1-2 .2-3 .4-2.7.4-5.6 1.3-7.7 2.6-.7.3-1.3.8-1.7 1.3z" fill="#eb6a29"/><path class="st27" d="M747.5 226.1l4.3 2.9 4.1 3.7 6.2-.4c.2-1 .4-1.7.4-2.1v-.3c0-.4-1.3-2.3-3.8-4.4 0 0-1 .5-4.3 1.2-3.1.4-6.9-.6-6.9-.6z"/><path class="st10" d="M736.9 225l-2.7-1.2 3.2 3.6c1.9-1.4 13 1.5 13.8 2.3s.1 4.6.1 4.6 3.2 2.1 3.2 4.4c0 2.4-3 8.7-3 8.7l1.6.6s.2-.7.9-2 6-1.5 6-1.5.2-1.3.2-2.9c0-1.4 1.9-10 2.1-11.7v-.3l-8-2v3c-2.5-4.3-10.5-8.9-10.5-8.9l3 3.3c-6.7-4.3-13.8-5.1-13.8-5.1 1.5 1.4 3.7 4.9 3.9 5.1z"/><path class="st9" d="M754 245.5s2.1-3.9 4.1-4.4c2.1-.4 3.8 2 3.8 3.6 0 1.5-.9 5.6-2.8 7.6s-3.9 2.2-4.7 1.3c-.9-.9-1.3-2.5-1.3-3.6s.9-4.5.9-4.5z"/><path class="st21" d="M754.5 248.4s1-2.2 3.2-3.7 3.7-.4 3.7-.4-.9-.3-3.1 1.3c-2.3 1.7-3.8 2.8-3.8 2.8z"/><path class="st21" d="M755.7 247.1s-1.3 3.3.9 4.7c0 0-1.3-1.1 0-5.1l-.9.4z"/><path class="st7" d="M760.3 242.6s-2.7.3-5 3.5l-.8-1s2.2-3.4 3.7-3.8 2.1 1.3 2.1 1.3z"/><path class="st27" d="M729.7 247.4c.5.4 1.5 0 1.5 0 1.3-5.4 3.7-9.2 3.7-9.2h-.7s-1.7 2.4-2.9 4.8c-1 2.4-1.6 4.1-1.6 4.4z"/><ellipse transform="rotate(-71.73 732.386 248.262)" class="st14" cx="732.4" cy="248.3" rx=".3" ry=".9"/><path class="st19" d="M733.9 250.1s-.4-.4-1.2-.7-1.2.1-1.2.1h.7c.1-.1.7.7 1.7.6z"/><path class="st7" d="M731.6 255.4s1.4.6 2 1.2l-1.1 1.8s.3-.8.3-1.2c0-.4-1.2-1.8-1.2-1.8zM768.5 382.2l2.7-3.4-1.7 3zM772.4 379.8l1.8-2.3s-.9 2.1-1.2 2.1c-.2.1-.6.2-.6.2z"/><path class="st25" d="M742.9 421.3l4 2.5-2.7 1.1c.1-.1-1.2-2.9-1.3-3.6z"/><path class="st46" d="M761 320.5s-9.3 7.2-10.2 8.1-6.4 10.6-6.4 10.6 5.4-12.5 5.6-13.3c.8-2 11-5.4 11-5.4z"/><path class="st27" d="M751.8 268.2s-4.1 9.8-5 18.4c-1 8.5-.2 14.5-.2 14.5l1.3 1.9 4.7 16.4.3 4.5 2.3 1.3v2.6l2.2 21-3 4-1.6-24.4v-1.3l-2.1-1.8-4.7-21.4-3.1-2.1s2.1-20.2 4.8-27.4 4.1-6.2 4.1-6.2z"/><path class="st30" d="M746.2 275.9s7-5.8 11.7-8c.2.1 6.8 3.9 10.3 12.7 3.5 9 3 17.4 3 19.2 0 .8.8 3 1.7 4.8 1 2.1 2 4 2 4h2.2s.4 4 0 4.3c-.3.3-3.8.6-6.8 1.4-1.5.4-3 1-3.7 1.7 0 0 1.4-.3 3.3-.4 2.2-.3 5-.6 6.6-.6 0 0-4.7 2.9-7.9 5.2-.2.1-.4.3-.5.4-1.2.9-2.1 1.7-2.4 2.2.7.6 1.3 1 1.3 1s.3-.3.9-.6c1.8-1.1 6.4-3.2 14.4-3.2 0 0 1.1-.9 1.1-2.2 0-1.3-3.8-4.7-4.7-9.4h-1.3c-.8-2.1-1.7-4.4-2.3-6.5-.4-1.1-.6-2.2-.8-3.2.8-3.7 1.3-6.9 1.3-9.2 0-7.9-8.1-22.7-12-31l-13.4 4.8-4 12.6z"/><path class="st46" d="M741.3 274.1s1.3-4.6 2.1-4.9c1-.4 2.1 7.3 2.1 7.3s8.7-8.9 13.1-12.4 6.5-4.6 6.5-4.6l-2.7-4.6s-13.4 8.6-19.6 12.8l-1.5 6.4z"/><path class="st27" d="M762.6 254.9s-1.2 1.3-7.5 5.8c-6.4 4.5-10.7 7.5-10.7 7.5l-1.3-.5 19.5-12.8zM761.8 265.5s5.6 7.5 8.2 13.4c2.7 5.9 1.8 17.1 2.3 18.6.4 1.6 3.9 11 3.9 11l1.3-.2s.8 4.4 1.5 6.4 2.1 3.2 2.1 3.2v2.1h-3.2v-2.4c0-.4-3-9-3-9l-1.3.2s-4-10.2-4-10.7.4-14.6-1.7-18.5c-2.1-3.9-8.1-13.3-8.1-13.3l-1-2.1 1.5-1.2 1.5 2.5zM755 272.4s.5 5.9 3.7 14.5c3.1 8.6 5 12.4 6.5 14.7 1.5 2.3 3.9 7.9 3.9 7.9l-1.7.4s.3 4.3 1 5 2.7 6.7 2.7 6.7l-1.7.8s-1.6-1.4-2.2-2.6c-.6-1.2-1.5-6.1-2.1-6.5-.5-.4-.3-2.2-.3-2.2l.7-.4s-.7-6.2-5.1-12.8c-4.3-6.6-7.3-16.9-7.3-20.2l-1.3-7.5 2-1.9 1.2 4.1z"/><path class="st27" d="M753.6 289.5s6.1-.4 11.6-2.1c5.6-1.7 7.3-5.4 7.3-5.4l1.2 2.9s-2.1 3.1-7.9 5.6c-5.7 2.4-11.4 2.6-11.4 2.6l-.8-3.6zM774.7 300s-7.6 5.7-13.3 5.7l1.3 2.6s10.3-3.1 12.9-4.7l-.9-3.6zM741.3 356.2l9.5.2-1.2 3.3h-8.1zM741.9 400.1c0 10.5.6 17.2.9 19.9 1.3.4.4-7.7 1.6-14 .7-3.9 9-40 9-40-3.8-3.8-6.4 0-6.4 0-.3.7-5.1 21.3-5.1 34.1zM730.5 472.2c.5-.7 16.4-22.8 18.2-27.2 1.9-4.4 0-17.4 0-17.4L744 426c-2.1 7.6-10.7 38.7-12 40.8l4.6-6.7-6.1 12.1z"/></g><g><path class="st48" d="M547.7 391.5s-5.6-3.1-11.8-3.8c-6.3-.6-12.7 4.2-12.7 4.2l24.5-.4z"/><path class="st49" d="M581.2 497.1l5.4-99.9h-3.7l-3.9 99.9zM484.4 396.6l6.8 100.5h2l-3.9-100.5z"/><path class="st49" d="M578.4 442.4l-87.8 46.5.3-1.8 89.5-50.1z"/><path class="st49" d="M579.4 489.1l-88.5-49.8v3.3l88.5 48.2z"/><path class="st50" d="M619.9 481.7s19.3.4 21.8 2.1c1.7 1.1 1.2 5.8 1.2 5.8l-22.1-1.8-.9-6.1zM575.1 491.4l4.1.4s1.3-2.1 3.6-3.1c1.6-.7 15.8-.9 22-1h3s-.1-.8-.4-1.8c-.4-1.4-.9-3.2-1.7-4 0 0-1.4.1-3.7.2-6.4.3-18.8 1.1-21.3 2.3-.9.4-1.7 1.3-2.5 2.1-1.9 2.1-3.1 4.9-3.1 4.9z"/><path class="st26" d="M575.1 491.4l4.1.4s1.3-2.1 3.6-3.1c1.6-.7 15.8-.9 22-1l2.7-1.8c-.4-1.4-.9-3.2-1.7-4 0 0-1.4.1-3.7.2 0 0-3.7 4.7-9.5 4.7s-9.1.8-11.3.8c-1.3 0-2.3-.6-3-1.3-2 2.3-3.2 5.1-3.2 5.1z"/><path class="st51" d="M575.4 490s-2.4 1-3.6 3.8h10s-.4-2.2-2.2-3.3l-4.2-.5z"/><circle class="st48" cx="576.9" cy="495.3" r="4.3"/><circle class="st48" cx="639" cy="492.6" r="4.3"/><path class="st48" d="M580 447.3l-10-6.1 1.7-7.2 36.5-2.1s-26.8 14-28.2 15.4zM659.4 321.6s-8.5-1.7-16.4.6c0 0-5.7 21.4-9 49.6-3.2 28.1-1.4 53.1-1.4 53.1l9.4 10.7 19.6-46.4-2.2-67.6zM493.5 392.3l3.5-8.3h3.9l-2.7 8.3zM488.8 384h26s-3-53.4-3-62.1l-28.1-1-2.1 1s0 39.9 4 62.1h3.2z"/><path class="st52" d="M485.7 384h2.1s-4.1-33.2-4.1-63.1l-2.1 1c.1 0-.3 34.9 4.1 62.1z"/><path class="st48" d="M486.2 392.6l5.1-2.7H505l9.1 3.1z"/><path d="M535.5 495.7s1.7 3 5.6 3c3.6 0 6.1-.2 16.1-2.1l3.3-.6c8.1-1.6 13.3-1.8 13.3-1.8l-.9-4.9s-3.5-.3-7.8-.3c-3.4 0-7.3.2-10.7.8-7.5 1.4-19 4.5-19 4.5v1.4h.1z" fill="#aca2ba"/><path d="M535.5 494.3c3.3.9 9.1.4 14.5-.4 3-.4 5.7-1.1 8-1.7 6.2-1.8 15-3 15-3 .7-1.1-1.4-7.3-1.4-7.3-.6-3.3-14.8-7.3-14.8-7.3s-1.9 2.7-4.1 5.4c-1.7 2-3.6 3.9-5.2 4.7-3.9 2.1-9.9 4-10.5 4.7-.5.9-1.5 4.9-1.5 4.9z" fill="#7299b3"/><path class="st40" d="M550 493.9s7.9-1.1 8.9-.4c.4.3 1.1 1.3 1.6 2.4 8.1-1.6 13.3-1.8 13.3-1.8l-.9-4.9c.7-1.1-1.4-7.3-1.4-7.3-.6-3.3-14.8-7.3-14.8-7.3s-1.9 2.7-4.1 5.4l.2.3s5.4 1.4 8.9 3.9c3.6 2.4 3.9 4.7 3.9 4.7l-.4.2-15.2 4.8z"/><path class="st41" d="M624.1 327.3l-1.9-.1 1 1.8z"/><path class="st29" d="M526.7 498.5s1.1 3.2 4.9 4c3.5.7 6 1 16.2 1h17.3l-.4-4.2s-3.3-1-7.6-1.8c-3.3-.6-7.3-1.3-10.7-1.3-7.7 0-19.5.8-19.5.8l-.2 1.5z"/><path class="st39" d="M527 497.1c3 1.5 8.9 2.1 14.3 2.3 3 .1 5.8 0 8.1-.2 6.4-.5 15.2 0 15.2 0 .9-.9 0-7.4 0-7.4 0-3.4-13.1-9.9-13.1-9.9s-2.3 2.2-5.1 4.5c-2.1 1.6-4.3 3.1-6 3.7-4.1 1.3-10.6 2.1-11.2 2.7-.5.6-2.2 4.3-2.2 4.3z"/><path class="st40" d="M541.3 499.4s8 .4 8.8 1.3c.4.4.8 1.5 1.1 2.7h13.9l-.4-4.2c.9-.9 0-7.4 0-7.4 0-3.4-13.1-9.9-13.1-9.9s-2.3 2.2-5.1 4.5l.1.3s4.9 2.4 8 5.5c3 3 2.9 5.4 2.9 5.4l-.4.1-15.8 1.7z"/><path class="st41" d="M638 433.8c-1.6.8-7.9-1.4-7.9-1.4l10.4-4.7c.1 0 1.5 4.2-2.5 6.1z"/><path class="st55" d="M608.2 406.1s-34.7 6.5-49.8 13.6c0 0-3.1 11.1-2 21 1.2 9.8 3.9 26.1 3.9 27.1s-.7 16.2-.7 16.2 9.1 0 14-3c0 0 .3-10.2-1.3-11.8s-7.3-34.4-5.6-36.2c1.8-1.8 53.5-18.2 52.6-22.5-1.3-4.2-11.1-4.4-11.1-4.4z"/><path class="st28" d="M549.1 484.1s5.9 4 10.7 6.2c4.7 2.2 5.8 4.1 5.8 4.1s3.5-10.2 4-13.1 1.3-7.9 1.3-9 5.4-15 5.8-18.4c.4-3.4-.7-15.3-.7-15.3s1.5.6 2.2 0c.6-.6 0-2.8 0-2.8s44.2-.2 51-1.1 11.1-5.6 11.1-5.6-2.5-13.3-4.1-14.9-14.1-7.7-26.1-3.9c-11.5 3.6-41.7 10.4-47.2 15l-.6.6c-1.4 2.3-4.4 42.4-4.4 43.2s-4 4.1-4.4 4.5c-.2.2-.7 1.3-1.3 3-1.4 3.3-3.1 7.5-3.1 7.5z"/><path d="M603.3 349.9s-3.9 4.5-4.7 7.6c0 0-9.6 14.9-10.3 15.5-.7.7-3.4.7-4 1.3-.6.6-1.3 4.6-1.3 4.6s1.3 1.5 3.9 5c2.6 3.5 5.5-3 5.5-3l14.9-15.6 1-15.6-5 .2z" fill="#cd4e19"/><path class="st41" d="M606.1 340s-2.2 1.3-2.8 1.7c-.4.4-.8 7.6.4 10.9 0 0 5.3-3.5 5.6-4.9s0-7.7 0-7.7h-3.2z"/><path class="st7" d="M588.7 381.2s-1.3-4.5-2.6-4.9-10 1.6-16.2 4.2-15.1 5.6-15.1 5.6 22.3-.2 26.8-2c4.4-1.7 7.1-2.9 7.1-2.9z"/><path class="st15" d="M591.1 310.4l-1.3 1.8 1.3.2.6-1.9z"/><path class="st7" d="M618.1 316.6s5.6 12.9 8.7 17.6L612 346.5s-3.8-2.3-5.3-4.7c-1.4-2.3-3-6.6-3-6.6l-4.2.8 5.7-7.6 7.9-12 5 .2z"/><path class="st11" d="M619.7 317.9s-5.2 13.1-15.1 19.4l-.8-2.1-4.2.8 14.3-23.2 5.8 5.1z"/><path class="st12" d="M588.3 320.8c.1.4 2.6 1.2 2.8 1.3.1.1.1.7.1 1.5 0 1 .1 2.1.5 3l.4.3s-.4 1.1-.3 1.8c0 0 1.5 1.2 1.5 1.5.1.4-.4 3.9-.1 5.7 0 0 .1 0 .3.1h.2c.9.3 3 .6 5.4.2.1 0 .3-.1.4-.1.5-.1 1-.4 1.4-.6 2.1-1.2 3.9-3.4 7.4-5.6 4.6-2.7 4.5-2.9 4.7-4.1.2-1.1.6-10.9.9-16.4.1-1.3.1-2.3.2-3 .1-.8-.2-1.7-.5-2.8-1.3-3.5-5.2-7.6-9.5-7.9h-2c-4.9.3-9.6 2.2-9.6 2.2s-.9 4.2-1.9 6.5-1.5 3-1.5 3 .5 2.1 2.1 3c0 0-1.3 2.9-1.9 5.5-.7 2.8-1 4.5-1 4.9z"/><path class="st42" d="M608.7 327.8c-1.5 2.2-8.8 7.9-9.2 8.2l1.4-.5c2.1-1.2 3.9-3.4 7.4-5.6 4.6-2.7 4.5-2.9 4.7-4.1.2-1.1.6-10.9.9-16.4l-.4-5.7-.1-1.4-3.1-6.3-6.5-.7-1.7.5-7.2 2.4s6.7-.1 7.1 1.6-2.6 8.9-2.6 8.9l-3.2-.4s-2.8.4-3.3 1.3c-.6.9.6 8.1.6 8.1s1.9.4 5.3-.2c3.4-.6 6-3.7 6-3.7 2.1 1.5 5.5 11.7 3.9 14z"/><path class="st19" d="M591.2 296.9l-2.9-.7 3.9 3c1.6-1.8 13.3-1 14.3-.4 1 .7 1 4.6 1 4.6s3.7 1.4 4.1 3.9c.4 2.4-1.3 9.3-1.3 9.3l1.7.4s.1-.8.5-2.2c.4-1.4 5.7-2.8 5.7-2.8s-.1-1.3-.4-2.9c-.2-1.1-.1-6.7-.1-10v-2.4c-.1-.4-1.8-2.1-4.7-3.7-1.8-1-4-2-6.6-2.5-6.8-1.5-12.2-1.1-12.2-1.1l2.1.4c-4.5.5-10.1 3-10.1 3 2.7.7 4.9 3.8 5 4.1z"/><path class="st15" d="M595.2 312.1s1.1-1.9 2-1.9c.6 0 2 1.1 2.8 3.1-.1 0-3-1.2-4.8-1.2z"/><path class="st16" d="M599.7 313.7s-.9 1.9-3.6 2.4c0 0-.2-.3 0-1.7.3-1.5 3.6-.7 3.6-.7z"/><path class="st14" d="M599.9 313.3s-1 2.2-3.5 2.3c0 0-.7-.9-.9-3.4 0 0 2.5 0 4.4 1.1z"/><path class="st17" d="M597.1 312.6s.1 2.8-.8 3c0 0-.8-1.3-.8-3.2l1.6.2z"/><path class="st13" d="M599.9 313.3s-2.6-.9-5.6-1.2c0 0 1.2-.5 3.1-.1 1.7.4 2.5 1.3 2.5 1.3z"/><path class="st18" d="M596.6 313.8c0 .1.2.2.4.2.3 0 .4-.1.4-.2s-.2-.2-.4-.2-.4.1-.4.2z"/><path class="st19" d="M601.2 309.9l-4.5-2.8.1.5s-5.6-.8-7.1-.7c0 0 .3 1.5 1 2.1 0 0-1.1-.9-1.3-1.3 0 0 .6 1.7 1.6 2.4 0 0 2.4-.8 4.6-.8 2.2 0 2.9.3 2.9.3l-.7-.6c0-.2 2.4.2 3.4.9z"/><path class="st43" d="M592.2 326.7s-.4-.1-.5-.5c0 0 .4 0 2 .1 1.5.2 2.8.7 3.3.4 0 0-.4.1-1.6.2-1.3 0-3.2-.2-3.2-.2z"/><path class="st19" d="M592.1 327s1.4-.2 2.9 0c1.4.2 1.8.2 2.1.1s1-.7 1-.7l-.2-.1s-.5.5-1.3.5-2.6-.3-4.4-.1l-.1.3z"/><path class="st7" d="M597.2 325.6s.8.3 1.2.8.4.7.4.7l-.5.1c-.2-.1-.4-1-1.1-1.6z"/><path class="st9" d="M594.7 320.4s0 1.7-.7 2.2c0 0-.9-.9-3-1.2-2.1-.3-2.6-.6-2.6-.6s.9 1.5 2.9 2c0 0 2.4 0 3.1.1 0 0 .4-.7.3-2.5zM594.7 320.4l-1.5-1.2c-.1 0 1.3 0 1.5 1.2z"/><path class="st27" d="M602.1 295.8l4.9 2.1 4.8 2.9 6.1-1.7v-2.4c-.1-.4-1.8-2.1-4.7-3.7 0 0-.9.7-4 2-3.1 1.2-7.1.8-7.1.8z"/><path class="st10" d="M591.2 296.9l-2.9-.7 3.9 3c1.6-1.8 13.3-1 14.3-.4 1 .7 1 4.6 1 4.6s3.7 1.4 4.1 3.9c.4 2.4-1.3 9.3-1.3 9.3l1.7.4s.1-.8.5-2.2c.4-1.4 5.7-2.8 5.7-2.8s-.1-1.3-.4-2.9c-.3-1.4-.1-10.5-.1-12.2v-.3l-8.4-.4.6 3c-3.4-3.8-12.3-6.9-12.3-6.9l3.7 2.7c-7.6-3-14.9-2.4-14.9-2.4 1.7 1 4.6 4.1 4.8 4.3z"/><path class="st9" d="M612.4 314.1s1.3-4.4 3.2-5.2c2-.9 4.1 1.3 4.5 2.9.3 1.5.3 5.8-1.3 8.1-1.5 2.3-3.5 3-4.6 2.2-1.1-.7-1.8-2.2-2.1-3.3 0-1.1.3-4.7.3-4.7z"/><path class="st21" d="M613.6 316.9s.6-2.4 2.5-4.4 3.6-1.1 3.6-1.1-1-.1-2.9 2c-2 2.1-3.2 3.5-3.2 3.5z"/><path class="st21" d="M614.5 315.4s-.6 3.6 1.8 4.6c0 0-1.4-.8-1-5.1l-.8.5z"/><path class="st7" d="M618.3 310s-2.7.8-4.4 4.5l-1-.9s1.6-3.9 3-4.5 2.4.9 2.4.9z"/><path class="st27" d="M588.4 320.8c.6.4 1.6-.3 1.6-.3.3-5.6 1.9-10 1.9-10l-.7.2s-1.3 2.8-1.9 5.5c-.7 2.5-1 4.2-.9 4.6z"/><ellipse transform="rotate(-82.75 591.275 321.16)" class="st14" cx="591.3" cy="321.2" rx=".3" ry=".9"/><path class="st19" d="M593.1 322.7s-.5-.4-1.3-.4c-.8-.1-1.1.4-1.1.4l.7-.2c.1-.2.8.5 1.7.2z"/><path class="st7" d="M591.8 328.5s1.6.4 2.2.8l-.7 2s.1-.8.1-1.2c-.1-.4-1.6-1.6-1.6-1.6z"/><path class="st13" d="M590.6 312s-.9-.2-1.5.2l1.3.4.2-.6z"/><path class="st12" d="M591.7 377.2s-8.1.6-15.3 2.1c-7.3 1.5-18.6 6.4-20.6 6.4s-14.6-3.9-17.1-3.9c-2.4 0-11.9 5-11.9 5l.4.7s-2.1 1-2.4 1.3c-.4.4 3 1.4 4.8 1.4 1.9 0 9-.7 10.6-.7s6.8 2.2 9.8 2.2 4.9-1.2 5.9-1.2 30.3 2.5 41.1.6c0 .2 2.5-8.7-5.3-13.9z"/><path class="st44" d="M639.2 433.2c-.5.4-1 .6-1.1.6.1 0 .5-.2 1.1-.6z"/><path class="st30" d="M637.9 345.8s14.5 18.3 15.7 22.6c1.2 4.3 0 10.5 0 10.5l-6.7 40.4-3 14.9-10.9-6.3-.4-60.8 5.3-21.3z"/><path class="st44" d="M605.3 377.2s3 14.6 4.5 21.6c0 0-1.9 3-1.9 3.4s2 .9 2.1 1.1c.2.2-6.7 9.5-6.7 9.5s8.8-2.1 19 0 12.2 3.1 13 3.9 4.4 8.9 4.9 12.5c.4 2.1-.4 3.1-1.1 3.9.7-.5 1.7-1.5 2-2.7.5-2.2-2.8-26.6-2.8-29.6s4.7-29.4 4.7-32c0-2.7-6-23.6-7.8-27.1-.4-.7-1-1.5-1.7-2.4-2.9-3.3-7.8-7.4-8.2-7.7-.6.4-18.3 10-20.6 13.5 0 0-3.2 15.9-2.1 29l2.7 3.1z"/><path class="st27" d="M608.6 346.7s3.7 27.2 4.5 32.5 3.2 18.8 3.2 19.6-1.7 3-1.7 3l1.4.6s-2.2 3.4-2.2 4.2c0 .8-1.7 3.4-1.7 3.4l-3.3.9s4.3-7.1 4.6-7.9c0 0-1.2-.8-1.2-1.1 0-.3 2.4-2.4 2.4-3.2s-2.9-13.9-4.2-17.1-3.9-33.5-3.9-33.5l2.1-1.4z"/><path class="st27" d="M641.1 360.3l.7 2.9s-3 6.1-14.1 10.6-21 6.8-21 6.8v-2.2s16.7-4.9 22.7-8.6c6-3.9 11.7-9.5 11.7-9.5zM641.8 377.8s-6.4 5.8-16.9 7.2c-10.5 1.3-17.6 1.9-17.6 1.9l.4 2s11.1.2 19.3-1.4c8.3-1.6 14.1-6.3 14.1-6.3l.7-3.4zM639.3 393.9s-8.8.9-17.1.9-13.4-.9-13.4-.9l.5 2.7s19.6 1.8 29.5 0l.5-2.7zM639.5 411.7s-7-6.1-15.7-6.8c-8.7-.7-15.6 1.3-15.6 1.3l-2.3 3.2s8.1-3.7 16.1-2.5 18 8.5 18 8.5l-.5-3.7z"/><path class="st27" d="M616.6 338.6s9.7 16.6 10.3 27.2c.6 10.7-.2 21.1.4 26.1.6 4.9 1.9 8.4 1.3 10.2-.5 1.8-1.8 1.7-1.8 2.9v5.4l-4.2-1.2s1.3-4.9 1.3-5.1 2.1-1.2 2.1-1.7-1.8-11-1.8-16.5c0-5.4-.2-18.5-.7-20.8-1.4-6.4-10.4-23.4-10.4-23.4l3.5-3.1z"/><path class="st46" d="M589.4 377.4l1.7-.2s3.7 3.9 3.5 11.6c0 1.2-.1 2.5-.4 3.9 0 0 6.4 1.2 9-1.4 0 0-.6-2.7.7-4.3 1.7-2 4.9-4 7.7-6.4 1-.8 1.9-1.8 2.6-2.7 3.9-5.3 7.7-9.8 7.7-9.8l12 3.8-2.5-3.1s2.5-3 2.5-11.6-7-19.2-12-20.6c0 0-8.6 5.6-11.7 9.7-.4.5-.8 1.1-1.2 1.7l-.1.1c-2.7 4.3-5.1 10.5-5.5 10.8-.4.4-2 .5-2.4.9-.2.2-.4 1.7-.4 3.2v.3c-.1 1.2-.1 2.2-.1 2.5 0 .2-.1.4-.1.4-.9 3-5.7 8.5-5.7 8.5s-4.2.3-4.9 1c-.6.5-.4 1.7-.4 1.7z"/><path class="st30" d="M594.3 392.7s6.4 1.2 9-1.4c0 0-.6-2.7.7-4.3 1.7-2 4.9-4 7.7-6.4l-6.9 3.2-3.9-5c.1.2 1.4 3.3 1.4 6.3 0 2.8-6.7 3.8-7.6 3.9-.1 1-.2 2.4-.4 3.7z"/><path class="st19" d="M469 396.5l-1.2-3.5 127.6-2.5-.4 6.8z"/><path class="st57" d="M591.7 397.3l-.4 1.5-114.9 2.2-2.6-4.4z"/><path class="st25" d="M611.7 424s-3 4.6-6.2 6.9c-6.4 4.5-27.4 5.1-27.4 5.1s44.2-.2 51-1.1c3.1-.4 5.7-1.6 7.6-2.8 2.2-1.3 3.5-2.8 3.5-2.8s-2.5-13.3-4.1-14.9c-1.3-1.3-9.9-5.6-19.6-5.1-2.1.1-4.3.4-6.4 1.2-11.5 3.6-41.7 10.4-47.2 15-.3.3-.4.5-.6.6 0 .2 34.1 1.1 49.4-2.1z"/><path class="st26" d="M626.5 482s5.3 5.7 7.4 6.4c2.1.7-4.3 1.1-4.3 1.1l-10.4-3.3 1.7-4.5 5.6.3z"/><path class="st48" d="M627 447.3s-3.8 7.3-10.4 8.9h-6.4s-6.4-1-10.2-6.8l27-2.1z"/><path class="st51" d="M579.9 437.6l.1 9.8c5.1 1 10.3 1.5 15.4 1.9 26.9 1.6 52.5-4.1 52.5-4.1l-4.8-13.2c-18.8-.1-63.2 5.6-63.2 5.6z"/><path class="st58" d="M640.8 446.4s-10.7-7.2-26.2-7.2c-15.4 0-28 9.1-28 9.1s22 3.1 54.2-1.9z"/><path class="st51" d="M643 431.9l4.8 13.2c2.1-3.9 4.1-8.2 5.9-12.7 11.3-28.8 14.3-66.1 15.1-84.2.3-6.7.3-10.8.3-10.8-2.7-8.3-9.8-15.8-9.8-15.8s-.2 42.4-7.9 63c-9.7 26.1-8.4 47.3-8.4 47.3z"/><path class="st48" d="M624 487.9s-10.4 4.7-22.3 0c0 0 2.9-10.1 11.3-10.1s11 10.1 11 10.1z"/><path class="st59" d="M640.8 446.4s-12.4-6.5-27-5.8-22.9 5.1-22.9 5.1 11.1-6.4 22.9-6.8c14.5-.4 27 7.5 27 7.5z"/><path class="st28" d="M616.6 456.2l-.8 22s-3 1.2-4.4-.3l-.7-21.7h5.9z"/><path class="st25" d="M549.1 484.1s5.9 4 10.7 6.2c4.7 2.2 5.8 4.1 5.8 4.1s3.5-10.2 4-13.1 1.3-7.9 1.3-9 5.4-15 5.8-18.4c.4-3.4-.7-15.3-.7-15.3s1.5.6 2.2 0c.6-.6 0-2.8 0-2.8s-.2.8-1.2 1.1c-1 .3-7.3-1.6-7.6-1.7.4.2 4.7 3 4.7 6.5 0 3.8-5.6 27-6.9 29.1-1.3 2.3-5.6 8.4-7.9 8.4-1.4 0-5.6-2.1-7.3-2.5-1.2 3.2-2.9 7.4-2.9 7.4z"/><path class="st28" d="M617.5 489.6s24.7 4.3 26.9 5.2c1.6.7 1.1 3.9 1.1 3.9h4.1s.4-3.2-.1-5.5c-.2-.7-.4-1.3-.8-1.8-1.5-1.5-26.3-8.4-27-8.6 0 0-3.4.9-4.2 6.8z"/><path class="st26" d="M617.5 489.6s24.7 4.3 26.9 5.2c1.6.7 1.1 3.9 1.1 3.9h4.1s.4-3.2-.1-5.5c-1.1.4-2.3.8-3.4.6-2.3-.4-7.3-2.1-14.6-4.3-7-2.1-9.6-6.4-9.8-6.6 0 0-3.4.8-4.2 6.7z"/><path class="st28" d="M589.3 498.7l4.9.3s.1-.3.3-.8c.4-1.3 1.3-3.6 2.3-4.6 1.3-1.3 13.9-3.7 13.9-3.7s-.2-4.1-2.3-5.5c-.9-.5-1.8-.6-2.7-.5-1.3.1-2.5.5-2.5.5s-8.5 4.1-10.6 6.3c-.5.5-1 1.3-1.4 2.1-.7 1.5-1.2 3.2-1.5 4.4-.3.9-.4 1.5-.4 1.5z"/><path class="st51" d="M649.7 496.3s2.4 1 3.6 3.8h-10s.4-2.2 2.2-3.3l4.2-.5z"/><circle class="st48" cx="648.1" cy="501.6" r="4.3"/><path class="st26" d="M579.9 437.6l.1 9.8c5.1 1 10.3 1.5 15.4 1.9 0 0 7.5-9.8 12.8-12.2 5.3-2.4 34.8-5.1 34.8-5.1-18.7-.1-63.1 5.6-63.1 5.6z"/><path d="M513.4 381.2h-24.5s-1.6-18.4-2.6-33.3c-.8-13.3-1-25.2-1-25.2l25.5.9s2 39.3 2.6 57.6z" fill="#3fffdb"/><path class="st27" d="M622.1 336.3s-10.2 8.7-12.8 14.9c-2.6 6.2-3.3 8.1-3.9 8.6s-2.5 1.9-2.5 2.9-.3 5.4-1.2 6.3-5.3 7.3-6.3 7.3-4.3-.2-4.3 1l1 1.3 1 1.8s1.5-2.1 3.2-2.1 8-7.5 8.7-9.1c.7-1.5.4-5.9 1.2-6.6.7-.7 5.3-8.7 7.6-12.6s10.1-12.8 10.1-12.8l-1.8-.9zM626.3 339.2s-2.3 10.1-5.3 15.6-7.8 9-8.8 9.9c-1 1-1.7 3.9-2.3 5.6-.6 1.6-7.1 11.6-8.7 13.1-1.6 1.6-5.7 1.9-6.7 2.9v4.1s4.9-.9 6.7-2.7c1.8-1.8 8.2-11.1 12-15.8s7.9-10 10.7-14.3c2.7-4.2 5.6-14.7 5.6-14.7l-3.2-3.7z"/><path class="st61" d="M513.4 381.2h-.8l-2.6-57.6h.7c.1 0 2.9 51.6 2.7 57.6z"/><path class="st61" d="M513.4 381.2l-24.5.2c-.9-8-1.7-18.9-2.4-31.4 1 12.2 1.7 24.4 2.9 31.2h24z"/><path fill="#db1564" d="M493.7 382.5l-.2.8h-3.8l-.1-1z"/><path class="st57" d="M585.5 505.8l6.2-108.5h-4.3L583 505.8zM473.8 396.6l7.9 109.2h2.3l-4.6-109.2z"/><path class="st57" d="M585.5 446.3l-101.9 50.8v-2.3l104-54.3z"/><path class="st30" d="M639.2 433.2c-.5.4-1 .6-1.1.6.1 0 .5-.2 1.1-.6z"/><path class="st30" d="M626.1 363.2s-7.8 9.6-11.7 14.7c0 0 8.7 1.3 10.5 1.3s5.4 19.3 5.4 22.5c0 0-8.1 4-16.9 5.2 0 0 9.5-.1 13.7-1.6l9.2 9.4c.8.8 3.5 11.1 4.1 14.9.4 2.1-.4 3.1-1.1 3.9.7-.5 1.7-1.5 2-2.7.5-2.2-2.8-26.6-2.8-29.6s4.7-29.4 4.7-32c0-2.7-6-23.6-7.8-27.1-.4-.7-1-1.5-1.7-2.4l-8.2-7.7-14.1 9.5-4.6 10.1c.4-.7 3.9-6.4 8.7-9.9-.1-.6 15.5 5.8 10.6 21.5z"/><path class="st46" d="M627.6 331.5s-13.5 5.5-21 19.8c0 0-2.2-4.1-2.2-9.6 0 0 7-3.4 12.6-7.5s6.6-6.5 6.6-6.5l-.5-.4s1.6.3 1.8.4c0 0 .3 1.9 2.7 3.8z"/><path class="st30" d="M607.9 402.2s2.7-.3 5.6-.4c2.2-.1 7.9-.8 7.9-.8s-8.8 2.6-11.4 2.2c.1.1-2.1-.5-2.1-1z"/><path class="st58" d="M653.8 432.4c0-.1 0-.1 0 0 11.3-28.8 14.3-66.1 15.1-84.2-.3.6-12.4 25.4-15.7 45.9-3.2 20.4.4 37.7.6 38.3zM643.1 336.3c.4 1.9 1.3 3.2 2.5 3.2 4.7 0 13.8-18 13.8-18-10.6-1.9-16.4.6-16.4.6s-1 9.2.1 14.2z"/><path class="st26" d="M616.5 459.8s-1.3 2.6-3.7 3.2v15.5l-1.1-.4-.4-15.2-.6-2.1-.2-4.7h5.9l.1 3.7zM589.7 497.3l4.9.9c.4-1.3 1.3-3.6 2.3-4.6 1.3-1.3 13.9-3.7 13.9-3.7s-.2-4.1-2.3-5.5c-.9-.5-1.8-.6-2.7-.5.4.3 2.8 1.4 2.4 3-.4 1.7-10.9 4.3-12.9 5.6-1.3.8-3 .7-4 .5-.8 1.3-1.4 3.1-1.6 4.3z"/><path class="st51" d="M590.4 496.3s-2.4 1-3.6 3.8h10s-.4-2.2-2.2-3.3l-4.2-.5z"/><circle class="st48" cx="591.9" cy="501.6" r="4.3"/><path class="st57" d="M583.4 497.1l-102-54.2v3.7l102 52.4z"/><path class="st27" d="M624.9 332.9s7.2 4.3 10.1 13.8c3 9.5 3.7 21.8 3.7 26.2 0 4.4-2.3 24.6-3.1 28.2-.7 3.6.6 13.4.6 13.4l-2.5-1.6s-1.2-8.7-.4-11.9c.7-3.1 3.8-21.9 2.9-32.7-.9-10.7-2.6-19.5-5.6-25.3s-7.8-8.9-7.8-8.9l2.1-1.2zM624.9 368.9l-2.8-.9-.6.9s-.7-10.3-5-16.3c-4.3-6.1-6.1-6.5-6.1-6.5l2.2-2.4s4.8 2.6 8.4 7.3c3.6 4.5 3.9 17.9 3.9 17.9zM615.9 375.8s-1.9-7.2-4.7-9.9c-3.9-3.9-10.2-5.6-10.2-5.6l-.3 3.3s5.8 1.3 8.4 3.9c2.6 2.6 5.1 10.4 5.1 10.4l1.7-2.1zM597.4 371.4s2.1 2.4 4.5 6.5c2.4 4 3 8.3 3 8.3s-1.4 1.2-1.4 2.1c0 0-6.5-11.7-8.5-13.8l2.4-3.1z"/><path class="st30" d="M601 360.3s4.4 3.2 7.7 8.1l-8.1-2.3.4-5.8z"/><path class="st55" d="M616.5 409.4c1.1.5 10.9-.1 16.7 7.2 4.3 5.3 3.5 15.5 3.5 15.5 2.2-1.3 3.5-2.8 3.5-2.8s-2.5-13.3-4.1-14.9c-1.3-1.2-9.9-5.6-19.6-5z"/><path class="st63" d="M596.6 289.6s-6.4 1-8 2.8l2.5 4.5-4.7-4.3c.2 0 5-2.3 10.2-3zM588.3 296.2l.7.2 4.2 2.2-.9.7zM590.5 312.2s-1.5 5.1-1.6 8.5c0 0 .4 1.3 1.7 1.8 0 0-1.6-.4-2.4-1.6-.1 0 .3-4.3 2.3-8.7zM604.8 341.4s.4 6.6 1.8 9.8c0 .1-4.3-7.8-1.8-9.8zM589.4 377.4s.2-1.4 1.3-1.9 4.1-.4 4.5-.7c.4-.4 7-8.4 7-8.4l.2-3c2.4 1.3 6.4 4.9 6.4 4.9-2.1-4.1-7.2-7.6-7.2-7.9s2.4-1.4 2.4-1.4c.4-2.1 4.6-10.2 5.1-11.2-2.7 4.3-5.1 10.5-5.5 10.8-.4.4-2 .5-2.4.9-.2.2-.4 1.7-.4 3.2v.3c-.1 1.2-.1 2.2-.1 2.5 0 .2-.1.4-.1.4-.9 3-5.7 8.5-5.7 8.5s-4.2.3-4.9 1c-.8.8-.6 2-.6 2z"/><path class="st63" d="M591.5 377.6s-9 0-19.3 3.1-15 4.7-15 4.7 10.2-3.9 18.9-6.4c8.7-2.4 13.8-2.8 13.8-2.8s.9.4 1.6 1.4zM538.3 381.9s-1.8.7-4.2 1.9c-2.4 1.2-7 3.4-7 3.4l-.2-.4c0 .1 8.5-4.5 11.4-4.9zM527.3 387.6l4.3-1.4-5.6 3.4c-.8-.2-1.1-.4-1.2-.7l2.5-1.3z"/><path class="st7" d="M529.7 390.3s-.7-.3-.7-.9 7.2-2.9 7.2-2.9-7.5 2.1-7.9 2.5.4 1.2.4 1.2l1 .1zM540.1 382s.1 1.2.4 1.4c.3.3.4 1.6.7 2 .3.3 7.2 3 10.2 3.5 3 .4 5.8-.5 5.8-1.3 0-.7-1.3-2-1.3-2l-15.8-3.6z"/><path class="st59" d="M668.9 348.1l-.3 5.1s-14.4 30.1-16.2 47.8c0 0 2.8-30.6 16.5-52.9zM643.1 336.3c-1.2-6.6 1-13 1-13 5.5-3 15.3-1.7 15.3-1.7-10.6-1.9-16.4.6-16.4.6s-1 9.1.1 14.1z"/><path opacity=".57" fill="#ffffb3" d="M595.4 390.5l-107.8 3.6-.6 2.5h-5.3l-.3-2.7h-3.7l-.1 2.7h-1.8l-.7-3.5-7.3-.1z"/><path d="M611 461.2s1.1 1.7 1.1 3.9c0 2.1-.3 13.1-.3 13.1l-.4-.3-.4-16.7z" fill="#c7c0d0"/><path class="st66" d="M605.5 484.8c.5.5-7.3 4.7-8.8 4.7-1.4 0 6.8-6.4 8.8-4.7zM596.1 489.7c.4.4-1.6 1.3-1.9 1.1-.2-.3 1.6-1.4 1.9-1.1zM630.9 486.4c-.9-.9 14.6 3.7 14.1 4.2s-13-3.1-14.1-4.2z"/><path fill="#330b31" d="M500.9 384l-.4 1.2-4.7 1.6 1.2-2.8z"/><path class="st52" d="M497.2 389.9l-4.2.1-2.6 2.5-4.2.1 5.1-2.7z"/><path class="st68" d="M481.9 335.9l2.4 7.8s.5 9.3.6 10.3l-2.6-5.7c.1-.1-.4-8.8-.4-12.4zM485.3 358.3l-2.8-6s.3 4.9.4 6l3 5.6-.6-5.6z"/><path d="M483.7 320.9s1.2 34.7 2.6 48.6c0 0-3.3-27.8-3.2-48.4l.6-.2z" fill="#b9b0b8"/><linearGradient id="SVGID_1_" gradientUnits="userSpaceOnUse" x1="2696.785" y1="280.4" x2="2696.785" y2="225.1" gradientTransform="matrix(-1 0 0 1 3196.685 100)"><stop offset="0"/><stop offset="1" stop-color="#fff"/></linearGradient><path opacity=".6" fill="url(#SVGID_1_)" d="M508.1 325.1h-3.7l-12.7 55.3h1.5z"/><linearGradient id="SVGID_2_" gradientUnits="userSpaceOnUse" x1="2700.685" y1="280.4" x2="2700.685" y2="225.1" gradientTransform="matrix(-1 0 0 1 3196.685 100)"><stop offset="0"/><stop offset="1" stop-color="#fff"/></linearGradient><path opacity=".6" fill="url(#SVGID_2_)" d="M502 325.1h-12v55.3h1.3z"/></g><path class="st63" d="M629.4 243.4l.4-.6s.4 1.3.7 1.5l-.5-.3s.7.9 1.2 1.3l-.4.1c-.1 0-1.2-.9-1.4-2zM632 256.2s-.5.5-.8 1.1c0 0-.1-.6.2-1l.6-.1zM632.3 259.1s.1 2.5.3 2.9c0 0 .9.4 1.8.4 0 0-1.5 0-2.1-.4 0 .2-.2-1.1 0-2.9z"/></g></svg>