<?xml version="1.0" encoding="utf-8"?>
<!-- Generator: Adobe Illustrator 21.0.0, SVG Export Plug-In . SVG Version: 6.00 Build 0)  -->
<svg version="1.1" id="Capa_1" xmlns="http://www.w3.org/2000/svg" xmlns:xlink="http://www.w3.org/1999/xlink" x="0px" y="0px"
	 viewBox="0 0 264 240" style="enable-background:new 0 0 264 240;" xml:space="preserve">
<style type="text/css">
	.st0{fill:#D4D6D8;}
	.st1{fill:#0E2B3D;}
	.st2{fill:#FFFFFF;stroke:#EAEAEA;stroke-width:0.25;stroke-miterlimit:10;}
	.st3{fill:#2D2D2D;}
	.st4{fill:#BABABA;}
	.st5{fill:#ED4956;}
	.st6{fill:#FAFAFA;}
	.st7{font-family:'Metropolis-SemiBold';}
	.st8{font-size:4.4698px;}
	.st9{fill:#262626;}
	.st10{font-family:'Metropolis-Medium';}
	.st11{font-family:'Metropolis-Regular';}
	.st12{fill:#053569;}
	.st13{fill:#999999;}
	.st14{fill:#FFFFFF;}
	.st15{fill:#B54021;}
	.st16{fill:#FF592C;}
	.st17{fill:#D34A26;}
</style>
<rect x="9.1" y="5.3" class="st0" width="245.4" height="231.7"/>
<g>
	<rect x="6.8" y="36.4" class="st1" width="244.5" height="134.1"/>
</g>
<g>
	<g>
		<rect x="6.8" y="170.6" class="st2" width="244.5" height="64.1"/>
		<rect x="6.8" y="3" class="st2" width="244.5" height="33.4"/>
	</g>
	<g>
		<path class="st3" d="M116.5,6.1c-0.5,0-0.9,0.5-1.2,0.8c-0.6,0.7-1.3,2.1-0.4,2.9c0.1,0.1,0.3,0.3,0.5,0.3
			c0.1,0.1,0.2-0.1,0.2-0.2c-0.1-0.1-0.1-0.3-0.1-0.3c-0.1-0.4-0.1-0.8-0.1-1.2c0.1-0.5,0.3-1.1,0.7-1.5c0,0,0.4-0.3,0.4-0.2
			c0,0,0,4.9,0,5.5c0,0.4,0,0.8-0.1,1.2c0,0.2,0.2,0.3,0.3,0.2c0.3-0.3,0.7-0.7,0.7-1.3c0-1.1,0-4.9,0-5.3
			C117.3,6.7,117.2,6.1,116.5,6.1z"/>
		<path class="st3" d="M151.2,11.5c-0.2,0.1-0.3,0.2-0.3,0.4c0,0.3-0.1,0.8-0.5,0.8c-0.5,0-0.5-1.1-0.5-1.4c-0.1-0.6,0-1.2-0.1-1.7
			c0-0.2-0.1-0.6-0.3-0.7c-0.3-0.3-0.8,0.2-0.9,0.5c-0.3,0.5-0.6,1.4-0.6,1.9c0-0.2-0.1-0.5-0.1-0.7c0-0.5,0.1-1.2-0.1-1.7
			c-0.3-0.8-1.2,0-1.3,0.5c-0.3,0.7-0.3,1.2-0.3,1.2V9.2c0-0.2-0.2-0.4-0.4-0.4h-0.1c-0.2,0-0.4,0.2-0.4,0.4v2.5
			c0,0-0.2,0.8-0.8,0.9c-0.5,0.1-0.4-1.4-0.4-1.8V9.1c0-0.2-0.2-0.3-0.3-0.3h0c-0.2,0-0.3,0.2-0.3,0.3c0-0.2-0.6-0.5-0.7-0.5
			c-0.4-0.2-0.9,0-1.2,0.3c-0.3,0.3-0.5,0.7-0.5,1.1c-0.1,0.4,0,0.9,0,1.3c0,0.2,0.1,0.6,0,0.7c0,0-0.3,0.8-0.6,0.8
			s-0.6-0.7-0.6-1.5c0-0.7,0.5-1.4,0.4-2.1c0,0-1.5,0-1.7,0c0,0,0.1-0.6-0.4-0.6c-0.6,0-0.8,0.8-0.3,1.1c0,0-0.5,2-1.3,2.5V9
			c0-0.2-0.1-0.3-0.3-0.3h-0.1c-0.2,0-0.3,0.1-0.3,0.3v0.1c0-0.2-0.4-0.5-0.6-0.5c-0.5-0.2-1-0.1-1.4,0.3c-0.3,0.3-0.4,0.7-0.5,1.1
			c-0.1,0.5,0,0.9,0,1.4c0,0.2,0.1,0.5,0,0.7c0,0-0.2,0.6-0.7,0.6c-0.5,0-0.5-1-0.5-1.6V9c0-0.2-0.1-0.3-0.3-0.3h-0.3
			c-0.2,0-0.3,0.1-0.3,0.3c0-0.2-0.5-0.4-0.6-0.4c-0.4-0.1-0.9-0.1-1.2,0.2c-0.3,0.2-0.4,0.6-0.5,1c-0.1,0.5,0,1,0,1.5
			c0,0-0.7,1.2-1,1.2c-0.4,0-0.4-0.5-0.4-1.5V8.3h0.9c0.3,0,0.6-0.3,0.6-0.6l0,0c0-0.1-0.1-0.1-0.1-0.1h-1.4V6.9c0-0.1,0-0.2,0-0.2
			l0-0.1c-0.1-0.2-0.3-0.4-0.6-0.4c-0.1,0-0.2,0.1-0.2,0.2v1.2h-0.6c-0.3,0-0.6,0.3-0.6,0.6l0,0c0,0.1,0.1,0.1,0.1,0.1h1.1v2.4
			c0,0-0.9,1.2-0.9,1.2c0.1-0.2-0.1-0.7-0.2-0.8c-0.2-0.4-0.5-0.6-0.8-0.8c-0.1,0-0.6-0.4-0.6-0.4c0-0.2,0.2-0.3,0.3-0.3
			c0.3-0.2,0.4-0.6,0.1-0.9c-0.2-0.2-0.6-0.2-0.8-0.1c-0.2,0.1-0.3,0.2-0.4,0.4c-0.1,0.2-0.2,0.3-0.2,0.5c0,0.4,0.3,0.5,0.2,0.8
			c-0.1,0.4-0.4,0.8-0.7,1.2c-0.3,0.4-0.6,0.7-1,0.9c0-0.8,0-1.7,0-2.5c0-0.5-0.2-1.3-0.8-1.3c-0.6,0-1.6,2.3-1.6,2.3V9.4
			c0-0.3-0.2-0.7-0.6-0.7l-0.1,0c-0.2,0-0.3,0.1-0.3,0.2c0,0,0,2.5,0,3.2c0,0.6,0,1.2,0.6,1.2c0.5,0,0.5-0.9,0.5-1.2
			c0.1-0.7,0.5-1.6,0.9-2.2c0.3-0.3,0.5-0.3,0.5,0.2V12c0,0.4,0.1,1.2,0.6,1.2c0.5,0,1.2-0.9,1.5-1.4c0.3-0.5,0.8-1.3,0.8-1.3
			c0,0,0.5,0.5,0.6,0.5c0.2,0.3,0.4,0.6,0.3,1c0,0.2-0.2,0.4-0.4,0.5c-0.2,0-0.3,0-0.4-0.2c-0.2-0.2-0.5-0.3-0.7,0.1
			c0,0.1-0.1,0.3,0,0.4c0.1,0.4,0.7,0.4,1.1,0.4c1.6,0,1.8-1,2.4-1.7c0,0,0,0.3,0,0.5c0,0.3,0.1,1.2,0.9,1.2s0.9-0.5,1.4-1.2
			c0,0,0.4,1.2,1,1.2c0.6,0,1.2-0.1,1.5-0.8c0,0,0.3,0.8,1,0.8s1-0.8,1-0.8s0.3,0.8,1.2,0.8c0.9,0,1-0.8,1-0.8V13
			c0,0.1-0.3,0.3-0.4,0.3c-0.7,0.6-1.4,1.2-1.5,2.1c0,0.3,0,0.6,0.2,0.9c0.2,0.3,0.6,0.4,0.9,0.5c1,0,1.5-0.9,1.5-1.7
			c0-0.5,0-0.9,0-1.4c0-0.1-0.1-0.9,0-1c0.5-0.4,0.9-0.9,1.2-1.4c0.1-0.2,0.7-1.6,0.7-1.6h0.8c-0.1,0-0.2,1.1-0.2,1.2
			c0,0.6,0,1.2,0.2,1.7c0.1,0.2,0.2,0.4,0.4,0.5c0.4,0.2,0.9,0.1,1.1-0.2c0.1-0.1,0.4-0.4,0.3-0.5c0.1,0.6,0.9,0.9,1.4,0.7
			c0.4-0.1,1-0.6,1-1.1c0,0.5,0.2,1.1,0.8,1.1c0.5,0,0.9-0.4,1.1-0.8v0.3c0,0.2,0.2,0.4,0.4,0.4h0.3c0.2,0,0.4-0.2,0.4-0.4v-1.4
			c0-0.4,0.3-1.1,0.6-1.5c0.1-0.1,0.2-0.2,0.3-0.1c0.1,0.1,0.1,0.1,0.1,0.2c0,0.9-0.1,1.9,0.4,2.7c0,0.1,0.1,0.2,0.2,0.2
			c0.3,0.2,0.5-1,0.5-1.2c0.1-0.7,0.3-1.3,0.6-1.9c0-0.1,0.1-0.1,0.1-0.1c0,0,0,0,0,0.1c0.3,0.9-0.1,1.9,0.2,2.8
			c0.1,0.2,0.2,0.4,0.3,0.5c0.6,0.4,1.4-0.1,1.6-0.6C151.2,12.4,151.3,11.4,151.2,11.5z M131.1,11.6c-0.1,0.5-0.7,1.5-1.2,0.9
			c-0.2-0.2-0.2-0.6-0.3-0.9c-0.1-0.4-0.1-0.9,0-1.3c0-0.2,0.1-0.4,0.1-0.6c0.3-0.6,1.4-0.6,1.4,0.2
			C131.1,9.8,131.1,11.6,131.1,11.6z M135.2,16c-0.4,0.3-0.9,0-0.9-0.7c0-0.6,1.2-1.6,1.2-1.6s0,0.6,0,1
			C135.5,15.2,135.6,15.7,135.2,16z M135.5,11.6c-0.1,0.5-0.7,1.5-1.2,0.9c-0.2-0.2-0.2-0.6-0.3-0.9c-0.1-0.4-0.1-0.9,0-1.3
			c0-0.2,0.1-0.4,0.1-0.6c0.3-0.6,1.4-0.6,1.4,0.2C135.5,9.8,135.5,11.6,135.5,11.6z M143.2,11.6c-0.1,0.5-0.7,1.5-1.2,0.9
			c-0.2-0.2-0.2-0.6-0.3-0.9c-0.1-0.4-0.1-0.9,0-1.3c0-0.2,0.1-0.4,0.1-0.6c0.3-0.6,1.4-0.6,1.4,0.2
			C143.2,9.8,143.2,11.6,143.2,11.6z"/>
	</g>
	<rect x="7.4" y="18.8" class="st4" width="244.5" height="0.2"/>
	<rect x="7.4" y="219.3" class="st4" width="244.5" height="0.2"/>
	<g>
		<path class="st3" d="M18.8,8.3h-0.8c-0.3,0-0.6-0.2-0.8-0.4l-0.2-0.3c-0.2-0.3-0.5-0.4-0.9-0.4h-1.1c-0.3,0-0.7,0.2-0.9,0.4
			l-0.2,0.3c-0.2,0.3-0.5,0.4-0.8,0.4H12c-0.7,0-1.2,0.6-1.2,1.2v4.2c0,0.7,0.6,1.2,1.2,1.2h6.7c0.7,0,1.2-0.6,1.2-1.2V9.5
			C20,8.9,19.4,8.3,18.8,8.3z M19.3,13.7c0,0.3-0.2,0.5-0.5,0.5H12c-0.3,0-0.5-0.2-0.5-0.5V9.5C11.5,9.2,11.8,9,12,9h0.8
			c0.6,0,1.1-0.3,1.4-0.7L14.5,8c0.1-0.1,0.2-0.2,0.3-0.2h1.1c0.1,0,0.2,0.1,0.3,0.2l0.2,0.3C16.8,8.8,17.4,9,17.9,9h0.8
			c0.3,0,0.5,0.2,0.5,0.5V13.7z"/>
		<path class="st3" d="M15.4,9.1c-1.3,0-2.3,1-2.3,2.3c0,1.3,1,2.3,2.3,2.3c1.3,0,2.3-1,2.3-2.3C17.7,10.2,16.7,9.1,15.4,9.1z
			 M15.4,13c-0.9,0-1.6-0.7-1.6-1.6c0-0.9,0.7-1.6,1.6-1.6c0.9,0,1.6,0.7,1.6,1.6C17,12.3,16.3,13,15.4,13z"/>
	</g>
	<g>
		<circle class="st5" cx="241.7" cy="11.3" r="4.2"/>
		<text transform="matrix(1 0 0 1 239.4448 12.7959)" class="st6 st7 st8">16</text>
	</g>
	<g>
		<g>
			<g>
				<path class="st1" d="M15.8,20C12,20,9,23.1,9,26.9c0,3.8,3.1,6.8,6.8,6.8c3.8,0,6.8-3.1,6.8-6.8C22.6,23.1,19.5,20,15.8,20z
					 M15.8,33c-3.4,0-6.1-2.8-6.1-6.1s2.8-6.1,6.1-6.1c3.4,0,6.1,2.8,6.1,6.1S19.2,33,15.8,33z"/>
				<circle class="st1" cx="15.8" cy="26.9" r="5.5"/>
			</g>
			<text transform="matrix(1 0 0 1 26.146 28.2188)" class="st9 st10 st8">@es.gabo</text>
		</g>
		<g>
			<circle class="st3" cx="131" cy="26.9" r="0.6"/>
			<circle class="st3" cx="132.8" cy="26.9" r="0.6"/>
			<circle class="st3" cx="134.5" cy="26.9" r="0.6"/>
		</g>
	</g>
	<path class="st3" d="M23.9,226.6l-3.5-3.3c-0.1-0.1-0.4-0.1-0.5,0l-3.5,3.3c-0.1,0.1-0.2,0.3-0.2,0.5v2.7c0,0.2,0.2,0.4,0.4,0.4
		h2.1c0.2,0,0.4-0.2,0.4-0.4v-1.5c0-0.5,0.4-0.9,0.8-1c0.6-0.1,1,0.4,1,0.9v1.6c0,0.2,0.2,0.4,0.4,0.4h2.1c0.2,0,0.4-0.2,0.4-0.4
		V227C24.1,226.9,24,226.7,23.9,226.6z"/>
	<g>
		<g>
			<path class="st3" d="M75.4,229.6c-0.9,0-1.8-0.3-2.4-1c-1.3-1.3-1.3-3.5,0-4.8c1.3-1.3,3.5-1.3,4.8,0l0,0c1.3,1.3,1.3,3.5,0,4.8
				C77.2,229.3,76.3,229.6,75.4,229.6z M75.4,223.5c-0.7,0-1.4,0.3-1.9,0.8c-1.1,1.1-1.1,2.8,0,3.8c1.1,1.1,2.8,1.1,3.8,0
				c1.1-1.1,1.1-2.8,0-3.8C76.8,223.7,76.1,223.5,75.4,223.5z"/>
		</g>
		<path class="st3" d="M79.5,229.7l-1.6-1.6l-0.5,0.5l1.6,1.6c0.1,0.1,0.4,0.1,0.5,0C79.6,230.1,79.6,229.9,79.5,229.7z"/>
	</g>
	<g>
		<g>
			<path class="st3" d="M142,231h-5.4c-0.9,0-1.7-0.7-1.7-1.7V224c0-0.9,0.7-1.7,1.7-1.7h5.4c0.9,0,1.7,0.7,1.7,1.7v5.4
				C143.7,230.3,143,231,142,231z M136.7,223.1c-0.5,0-0.9,0.4-0.9,0.9v5.4c0,0.5,0.4,0.9,0.9,0.9h5.4c0.5,0,0.9-0.4,0.9-0.9V224
				c0-0.5-0.4-0.9-0.9-0.9H136.7z"/>
		</g>
		<path class="st3" d="M141,226.3h-1.3v-1.3c0-0.2-0.2-0.4-0.4-0.4c-0.2,0-0.4,0.2-0.4,0.4v1.3h-1.3c-0.2,0-0.4,0.2-0.4,0.4
			c0,0.2,0.2,0.4,0.4,0.4h1.3v1.3c0,0.2,0.2,0.4,0.4,0.4c0.2,0,0.4-0.2,0.4-0.4V227h1.3c0.2,0,0.4-0.2,0.4-0.4
			C141.3,226.5,141.2,226.3,141,226.3z"/>
	</g>
	<g>
		<path class="st3" d="M187.6,230.4c-0.3,0-0.5-0.1-0.7-0.3l-1.9-2c-0.3-0.3-0.6-0.5-0.9-0.8l-0.1-0.1c-0.6-0.5-0.9-1.2-0.8-2
			c0.1-1.1,1-2,2.1-2.1c0.9-0.1,1.7,0.3,2.2,1c0.5-0.7,1.3-1.1,2.2-1c1.1,0.1,1.9,1,2.1,2c0.1,0.8-0.2,1.6-0.7,2.1l-1.9,1.9l-1,1
			C188.1,230.2,187.8,230.4,187.6,230.4z M185.6,223.7c-0.1,0-0.1,0-0.2,0c-0.8,0.1-1.4,0.7-1.5,1.5c-0.1,0.5,0.1,1,0.5,1.4l0.1,0.1
			c0.3,0.3,0.6,0.6,0.9,0.9l1.9,2c0.1,0.1,0.3,0.1,0.4,0l1-1l1.9-1.9c0.4-0.4,0.6-0.9,0.5-1.5l0,0c-0.1-0.7-0.7-1.3-1.5-1.4
			c-0.6-0.1-1.2,0.2-1.6,0.8c-0.1,0.2-0.3,0.3-0.5,0.3c-0.2,0-0.4-0.1-0.5-0.3C186.7,224,186.2,223.7,185.6,223.7z"/>
	</g>
	<path class="st5" d="M25.6,177.5c-0.1-1-0.9-1.7-1.9-1.9c-0.9-0.1-1.7,0.3-2.1,1c-0.1,0.2-0.4,0.2-0.5,0c-0.4-0.7-1.2-1.1-2.1-1
		c-1,0.1-1.8,0.9-1.9,2c-0.1,0.7,0.2,1.4,0.7,1.9c0.4,0.3,0.7,0.6,1,1l2,2.2c0.3,0.3,0.7,0.3,1,0l1.1-1.1l2-2.1
		C25.5,179,25.8,178.3,25.6,177.5z"/>
	<g>
		<g>
			<path class="st3" d="M242.4,226.8c-1.2,0-2.2-1-2.2-2.2c0-1.2,1-2.2,2.2-2.2c1.2,0,2.2,1,2.2,2.2
				C244.5,225.8,243.6,226.8,242.4,226.8z M242.4,223.2c-0.8,0-1.5,0.7-1.5,1.5c0,0.8,0.7,1.5,1.5,1.5c0.8,0,1.5-0.7,1.5-1.5
				C243.8,223.8,243.2,223.2,242.4,223.2z"/>
		</g>
		<path class="st3" d="M244.6,227.3h-4.4c-1.1,0-2.1,0.9-2.1,2.1v0.8c0,0.2,0.2,0.4,0.4,0.4c0.2,0,0.4-0.2,0.4-0.4v-0.8
			c0-0.7,0.6-1.3,1.3-1.3h4.4c0.7,0,1.3,0.6,1.3,1.3v0.8c0,0.2,0.2,0.4,0.4,0.4s0.4-0.2,0.4-0.4v-0.8
			C246.6,228.2,245.7,227.3,244.6,227.3z"/>
	</g>
	<circle class="st5" cx="20.2" cy="232.5" r="0.7"/>
	<g>
		<path class="st3" d="M39.5,183.3l-1.9-0.5c-0.6,0.3-1.2,0.4-1.8,0.4c-2.4,0-4.3-2.1-4.1-4.5c0.2-1.9,1.7-3.4,3.6-3.6
			c2.5-0.3,4.5,1.7,4.5,4.1c0,0.7-0.2,1.3-0.5,1.9l0.5,1.9C39.9,183.1,39.7,183.3,39.5,183.3z M35.4,175.8c-1.5,0.2-2.8,1.4-2.9,2.9
			c-0.3,2.2,1.5,4,3.7,3.8c0.5,0,0.9-0.2,1.3-0.4l0,0c0,0,0.1,0,0.1,0l1.3,0.3c0.1,0,0.1,0,0.1-0.1l-0.4-1.3l0.1-0.1
			c0.3-0.5,0.5-1.1,0.5-1.7C39.1,177.1,37.4,175.5,35.4,175.8z"/>
	</g>
	<path class="st3" d="M53.8,176.3L53.8,176.3c0.1-0.3-0.1-0.6-0.4-0.6h0l-7.6,0c-0.4,0-0.6,0.5-0.3,0.8l3.2,2.9l1.6,4
		c0.1,0.4,0.7,0.4,0.8,0L53.8,176.3z M52.4,176.4l-1.4,1l-1.9,1.3l-2.5-2.3L52.4,176.4z M49.5,179.3l3.3-2.3l-2.1,5.4L49.5,179.3z"
		/>
	<g>
		<path class="st3" d="M239.5,183.2c-0.1,0-0.1,0-0.2,0c-0.1-0.1-0.2-0.2-0.2-0.4V176c0-0.3,0.3-0.6,0.6-0.6h5.5
			c0.3,0,0.6,0.3,0.6,0.6v6.7c0,0.2-0.1,0.3-0.2,0.4c-0.1,0.1-0.3,0-0.5-0.1l-2.6-2.2l-2.6,2.2C239.7,183.1,239.6,183.2,239.5,183.2
			z M239.3,182.5C239.3,182.5,239.3,182.5,239.3,182.5L239.3,182.5z M245.5,182.5L245.5,182.5L245.5,182.5z M242.4,180
			c0.1,0,0.2,0,0.3,0.1l2.3,2v-6h-5.2v6l2.3-2C242.2,180.1,242.3,180,242.4,180z M242.2,180.7C242.2,180.7,242.2,180.7,242.2,180.7
			L242.2,180.7z M242.6,180.7L242.6,180.7C242.6,180.7,242.6,180.7,242.6,180.7z"/>
	</g>
	<text transform="matrix(1 0 0 1 17.062 191.7764)" class="st3 st11 st8">1,989 likes</text>
	<g>
		<text transform="matrix(1 0 0 1 17.062 197.3789)" class="st3 st7 st8">es.gabo  </text>
	</g>
	<text transform="matrix(1 0 0 1 39.8608 197.3789)"><tspan x="0" y="0" class="st3 st11 st8">Gabo en Instagram</tspan><tspan x="35.4" y="0" class="st9 st11 st8"> </tspan><tspan x="36.4" y="0" class="st12 st11 st8">@es.gabo</tspan><tspan x="54.3" y="0" class="st9 st11 st8">...</tspan></text>
	<g>
		<text transform="matrix(1 0 0 1 100.4722 197.3789)" class="st13 st11 st8">more</text>
	</g>
	<g>
		<text transform="matrix(1 0 0 1 17.062 205.5449)" class="st13 st11 st8">View all 99 comments</text>
	</g>
	<g>
		<text transform="matrix(1 0 0 1 28.5063 214.7236)" class="st13 st11 st8">Add a comment...</text>
	</g>
	<circle class="st13" cx="20.7" cy="213.2" r="4.5"/>
</g>
<g>
	<path class="st14" d="M162.1,78h-6.8c-2.7,0-5.2-1.3-6.8-3.4l-2-2.6c-1.7-2.2-4.3-3.6-7.1-3.6h-8.9c-2.8,0-5.4,1.3-7.1,3.6l-2,2.6
		c-1.6,2.1-4.1,3.4-6.8,3.4h-6.8c-5.5,0-9.9,4.4-9.9,9.9v34c0,5.5,4.4,9.9,9.9,9.9h54.2c5.5,0,9.9-4.4,9.9-9.9v-34
		C172,82.4,167.5,78,162.1,78z M166.2,121.9c0,2.3-1.9,4.1-4.1,4.1h-54.2c-2.3,0-4.1-1.9-4.1-4.1v-34c0-2.3,1.9-4.1,4.1-4.1h6.8
		c4.5,0,8.7-2.1,11.4-5.7l2-2.6c0.6-0.8,1.5-1.3,2.5-1.3h8.9c1,0,1.9,0.5,2.5,1.3l2,2.6c2.7,3.6,6.9,5.7,11.4,5.7h6.8
		c2.3,0,4.1,1.9,4.1,4.1V121.9z"/>
	<path class="st14" d="M135,84.7c-10.2,0-18.5,8.3-18.5,18.5c0,10.2,8.3,18.5,18.5,18.5s18.5-8.3,18.5-18.5
		C153.5,93,145.2,84.7,135,84.7z M135,115.9c-7,0-12.7-5.7-12.7-12.7S128,90.4,135,90.4c7,0,12.7,5.7,12.7,12.7S142,115.9,135,115.9
		z"/>
</g>
<g>
	<path class="st15" d="M15.3,28.7c0.7,0.4,1.4,0.3,2-0.2c-0.4,0.2-1,0.2-1.4,0c-0.8-0.4-1.1-1.4-0.7-2.2c0.4-0.8,1.3-1.1,2.1-0.7
		c0.3,0.2,0.5,0.4,0.7,0.7c-0.2-0.5-0.5-0.9-1-1.2c-1-0.5-2.1-0.1-2.6,0.9C14,27,14.3,28.2,15.3,28.7z"/>
	<path class="st16" d="M17.5,30.1c-2,0.3-3.8-1-4-2.9c-0.3-1.9,1.1-3.6,3.1-3.9c0.3,0,0.5,0,0.8,0c-0.5-0.2-1.1-0.2-1.7-0.1
		c-2.1,0.3-3.7,2.2-3.4,4.2s2.2,3.4,4.4,3.1c0.6-0.1,1.2-0.3,1.6-0.6C18,30,17.7,30.1,17.5,30.1z"/>
	<path class="st17" d="M17.1,24.8c-1-0.2-2.1,0.1-2.6,1.2c0.5-0.5,1.2-0.8,1.9-0.7c1.2,0.2,2.1,1.4,1.9,2.7
		c-0.2,1.3-1.3,2.2-2.5,1.9c-0.7-0.1-1.2-0.6-1.5-0.9c0.4,0.8,1.3,1.3,2.1,1.4c1.5,0.2,2.9-0.8,3.1-2.3C19.6,26.5,18.6,25,17.1,24.8
		z"/>
</g>
</svg>
