<?xml version="1.0" encoding="utf-8"?>
<!-- Generator: Adobe Illustrator 21.0.0, SVG Export Plug-In . SVG Version: 6.00 Build 0)  -->
<svg version="1.1" id="Capa_1" xmlns="http://www.w3.org/2000/svg" xmlns:xlink="http://www.w3.org/1999/xlink" x="0px" y="0px"
	 viewBox="0 0 800 800" style="enable-background:new 0 0 800 800;" xml:space="preserve">
<style type="text/css">
	.st0{fill:#FFFFFF;stroke:#B2B2B2;stroke-miterlimit:10;}
	.st1{fill:#FFFFFF;stroke:#C1C1C1;stroke-miterlimit:10;}
	.st2{font-family:'Roboto-Bold';}
	.st3{font-size:14.6667px;}
	.st4{font-size:18.9267px;}
	.st5{font-family:'Roboto-Light';}
	.st6{font-size:8.648px;}
	.st7{fill:#2774AF;}
	.st8{fill:#FFFFFF;}
	.st9{font-size:11.2268px;}
	.st10{fill:#EDEDED;stroke:#818281;stroke-width:0.5;stroke-miterlimit:10;}
	.st11{font-size:10.2977px;}
	.st12{fill:#0377B2;}
	.st13{font-size:11.8699px;}
	.st14{fill:#666666;}
	.st15{font-size:7.9459px;}
	.st16{fill:#F4F4F4;}
	.st17{fill:#D9D9D9;}
	.st18{font-family:'Roboto-Regular';}
	.st19{font-size:8.5119px;}
	.st20{font-size:7.7412px;}
	.st21{fill:none;stroke:#666666;stroke-miterlimit:10;}
	.st22{fill:none;stroke:#666666;stroke-miterlimit:10;stroke-dasharray:1.9875,1.9875,1.9875,1.9875;}
	.st23{fill:none;stroke:#666666;stroke-miterlimit:10;stroke-dasharray:1.9875,1.9875,1.9875,1.9875,1.9875,1.9875;}
	.st24{fill:#ABABAB;}
	.st25{opacity:0.5;fill:#ABB2B2;}
	.st26{opacity:0.5;fill:#D4DADB;}
	.st27{fill:#FBFFFC;}
	.st28{fill:#88868A;}
	.st29{fill:#277EB4;}
	.st30{font-size:12.5646px;}
	.st31{font-size:10.7055px;}
	.st32{fill:none;stroke:#636666;stroke-width:0.5;stroke-miterlimit:10;}
	.st33{font-size:8.3265px;}
	.st34{font-size:24.961px;}
	.st35{fill:#333333;}
	.st36{font-size:11.8872px;}
	.st37{font-size:16.0599px;}
	.st38{fill:none;stroke:#B9B9B9;stroke-miterlimit:10;}
	.st39{fill:#EFEFEF;}
	.st40{font-size:9.7257px;}
	.st41{fill:#A7A7A8;}
	.st42{fill:none;stroke:#757577;stroke-miterlimit:10;}
	.st43{font-size:10.4442px;}
</style>
<g>
	<rect x="531.2" y="92.7" class="st0" width="249.8" height="617.2"/>
	<g>
		<rect x="21.2" y="92.7" class="st1" width="500.9" height="617.2"/>
	</g>
	<text transform="matrix(1 0 0 1 549.6738 117.1846)" class="st2 st3">People You May Know</text>
	<text transform="matrix(1 0 0 1 184.7349 123.4932)"><tspan x="0" y="0" class="st2 st4">John Parker</tspan><tspan x="0" y="12.6" class="st5 st6">Graphic Designer in Freepik</tspan><tspan x="0" y="23" class="st5 st6">London Area, United Kingdom/ Graphic Design</tspan></text>
	<text transform="matrix(1 0 0 1 184.7349 162.3994)"><tspan x="0" y="0" class="st5 st6">Current       Freepik</tspan><tspan x="0" y="10.4" class="st5 st6">Previous     London University</tspan><tspan x="0" y="20.8" class="st5 st6">Education   Academy of Design</tspan></text>
	<g>
		<g>
			<g>
				<path class="st7" d="M313.5,262.3c0,0.6-0.5,1.1-1.1,1.1H185.8c-0.6,0-1.1-0.5-1.1-1.1v-21.1c0-0.6,0.5-1.1,1.1-1.1h126.5
					c0.6,0,1.1,0.5,1.1,1.1V262.3z"/>
				<g>
					<text transform="matrix(1 0 0 1 195.3286 255.3916)" class="st8 st2 st9">Complete your profile</text>
				</g>
			</g>
			<g>
				<path class="st10" d="M358,262.3c0,0.6-0.2,1.1-0.3,1.1H318c-0.2,0-0.3-0.5-0.3-1.1v-21.1c0-0.6,0.2-1.1,0.3-1.1h39.6
					c0.2,0,0.3,0.5,0.3,1.1V262.3z"/>
				<text transform="matrix(1 0 0 1 327.7622 255.3916)" class="st2 st11">Edit</text>
			</g>
			<polygon points="363.9,251.7 372.4,251.7 368.1,255.9 			"/>
		</g>
		<g>
			<g>
				<text transform="matrix(1 0 0 1 482.4434 253.8037)" class="st12 st2 st13">954</text>
			</g>
			<g>
				<text transform="matrix(1 0 0 1 461.7852 263.4385)" class="st14 st2 st15">connections</text>
			</g>
		</g>
	</g>
	<g>
		<rect x="21.8" y="277.9" class="st16" width="500.9" height="29.4"/>
		<rect x="428.6" y="277.9" class="st17" width="94.1" height="29.4"/>
		<g>
			<polygon class="st14" points="439.2,295.8 439.2,289.5 442.6,289.5 443.9,290.8 448.9,290.8 448.9,295.8 			"/>
			<g>
				<text transform="matrix(1 0 0 1 453.7891 295.1084)" class="st14 st18 st19">Contact info</text>
			</g>
		</g>
		<g>
			<text transform="matrix(1 0 0 1 54.3403 297.46)" class="st14 st18 st20">es.linkedin.com/pub/johnparker/98/65/937/</text>
		</g>
		<g>
			<g>
				<line class="st21" x1="21.8" y1="277.1" x2="22.8" y2="277.1"/>
				<line class="st22" x1="24.8" y1="277.1" x2="31.8" y2="277.1"/>
				<line class="st23" x1="32.8" y1="277.1" x2="520.7" y2="277.1"/>
				<line class="st21" x1="521.7" y1="277.1" x2="522.7" y2="277.1"/>
			</g>
		</g>
		<line class="st21" x1="428.6" y1="277.9" x2="428.6" y2="307.3"/>
	</g>
	<g>
		<path class="st24" d="M47.6,290H39c-0.3,0-0.5,0.2-0.5,0.5v8.5c0,0.3,0.2,0.5,0.5,0.5h8.5c0.3,0,0.5-0.2,0.5-0.5v-8.5
			C48.1,290.2,47.8,290,47.6,290z"/>
		<polygon class="st8" points="41.4,298.1 40,298.1 40,293.7 41.4,293.7 41.4,298.1 		"/>
		<circle class="st8" cx="40.7" cy="292.2" r="0.8"/>
		<path class="st8" d="M46.6,298.1h-1.4V296c0-0.5,0-1.2-0.7-1.2c-0.7,0-0.8,0.6-0.8,1.2v2.2h-1.4v-4.5h1.3v0.6h0
			c0.2-0.4,0.6-0.7,1.3-0.7c1.4,0,1.7,0.9,1.7,2.1V298.1L46.6,298.1z"/>
	</g>
	<g>
		<rect x="549.7" y="131.9" class="st25" width="48.4" height="48.4"/>
		<rect x="598" y="131.9" class="st26" width="48.4" height="48.4"/>
		<rect x="646.4" y="131.9" class="st25" width="48.4" height="48.4"/>
		<rect x="694.8" y="131.9" class="st26" width="48.4" height="48.4"/>
		<g>
			<circle class="st27" cx="572.6" cy="150.9" r="7.1"/>
			<path class="st27" d="M575.6,158.5h-6c-5,0-9.1,4.1-9.1,9.1v7.4l0,0.1l0.5,0.2c4.8,1.5,8.9,2,12.4,2c6.7,0,10.6-1.9,10.8-2
				l0.5-0.2h0v-7.4C584.7,162.5,580.7,158.5,575.6,158.5z M574,172.8l-1.3,1.9c0,0,0,0-0.1,0h0c0,0-0.1,0-0.1,0l-1.2-1.9
				c0,0,0,0,0-0.1l0.6-9.2c0,0,0-0.1,0.1-0.1h1.3c0,0,0.1,0,0.1,0.1L574,172.8C574.1,172.7,574,172.7,574,172.8z M573.4,163.1H572
				l-1.3-2.7c0-0.3,0.2-0.5,0.5-0.5h3.1c0.3,0,0.5,0.2,0.5,0.5L573.4,163.1z"/>
		</g>
		<path class="st27" d="M615.1,151.4c0-0.1-0.4-1.1-0.4-1.3c0-0.1,0.4-0.3,0.4-0.4c0.3-3.5,2.1-5.9,4.7-6.8v2.9c0,1.7,1.1,3,2.5,3
			c1.4,0,2.5-1.4,2.5-3v-2.8c3.2,1.3,4.4,5,4.8,6.8c0,0.1,0.3,0.1,0.3,0.2c0,0.4-0.6,1.4-0.6,1.4c-1.5,0.7-2.8,1.6-4.3,1.8l-5.6,0
			C617,152.7,615.1,151.4,615.1,151.4z M625,154.2L625,154.2l-5.9,0c-1.7-0.3-3.1-1-4-1.4c0.5,3.5,3.4,6.1,7,6.1
			c3.7,0,6.7-2.8,7.1-6.3c-0.2,0.1-0.4,0.2-0.6,0.3C627.6,153.4,626.4,154,625,154.2z M634.3,168.4v7.4h0l-0.5,0.2
			c-0.2,0.1-4.1,2-10.8,2c-3.4,0-7.6-0.5-12.4-2l-0.5-0.2l0-0.1v-7.4c0-5,4.1-9.1,9.1-9.1h6C630.2,159.3,634.3,163.4,634.3,168.4z
			 M623.9,174.3l-0.8-11.1c0-0.1-0.1-0.1-0.1-0.1h-1.5c-0.1,0-0.1,0-0.1,0.1l-0.7,11.1c0,0,0,0,0,0.1l1.4,2.3c0,0,0.1,0.1,0.1,0.1h0
			c0,0,0.1,0,0.1,0L623.9,174.3C623.9,174.3,623.9,174.3,623.9,174.3z M624.3,161.3c0-0.3-0.2-0.5-0.5-0.5h-3.1
			c-0.3,0-0.5,0.2-0.5,0.5l1.3,2.7h1.5L624.3,161.3z M622.2,148.7c-1.2,0-2.3-1.2-2.3-2.7v-3h4.5v3
			C624.5,147.4,623.5,148.7,622.2,148.7z M620.4,143.3v2.6c0,1.3,0.8,2.3,1.8,2.3c1,0,1.8-1,1.8-2.3v-2.6H620.4z"/>
		<g>
			<path class="st27" d="M708.2,146.8c0.1,0.3,0.3,0.6,0.7,0.9c0.1,0.9,0.3,1.7,0.7,2.3c1-1.4,3.6-2.4,6.8-2.4c3.1,0,5.7,1,6.7,2.3
				c0.4-0.8,0.5-1.7,0.5-2.1c0.4-0.3,0.6-0.6,0.7-0.9c1.3-0.4,2.1-0.9,2.1-1.4c0-1.3-5.1-2.9-10.1-3.3c-5.2,0.5-10.1,2.1-10.1,3.3
				C706.3,146,707,146.4,708.2,146.8z M723.3,146.8l-0.4,0.8c-6.8-3.4-13.5,0-13.6,0l-0.4-0.8C709.3,146.7,716.1,143.2,723.3,146.8z
				"/>
			<path class="st27" d="M719.4,159.6h-6c-5,0-9.1,4.1-9.1,9.1v7.4l0,0.1l0.5,0.2c4.8,1.5,8.9,2,12.4,2c6.7,0,10.6-1.9,10.8-2
				l0.5-0.2h0v-7.4C728.5,163.7,724.4,159.6,719.4,159.6z M718.1,176.4l-1.6,2.4c0,0-0.1,0.1-0.1,0.1h0c0,0-0.1,0-0.1-0.1l-1.5-2.4
				c0,0,0,0,0-0.1l0.8-11.7c0-0.1,0.1-0.1,0.1-0.1h1.6c0.1,0,0.1,0,0.1,0.1L718.1,176.4C718.2,176.3,718.1,176.4,718.1,176.4z
				 M717.4,164.2h-1.9l-1.6-3.4c0-0.3,0.3-0.6,0.6-0.6h3.9c0.3,0,0.6,0.3,0.6,0.6L717.4,164.2z"/>
			<path class="st27" d="M722.1,150.4c-0.7-0.9-2.8-1.9-5.8-1.9c-3.1,0-5.2,1-5.8,2l-0.7,1l-0.4-0.7c-0.1,0.4-0.1,0.8-0.1,1.1
				c0,2,0.8,3.7,2.1,5c1.3,1.3,3.1,2.1,5,2.1c2.2,0,4.2-1,5.5-2.6c1-1.2,1.6-2.8,1.6-4.5c0-0.5,0-0.9-0.1-1.4l-0.4,0.9L722.1,150.4z
				"/>
		</g>
		<path class="st27" d="M660.5,153.8c0-1.6,0.8-2.9,2.1-3.7v-0.8c0-4.5,3.7-8.2,8.2-8.2c4.5,0,8.2,3.7,8.2,8.2v1.1
			c1,0.8,1.6,2,1.6,3.4c0,2-1.4,3.7-3.2,4.1c-0.1,0.3-0.3,0.5-0.5,0.8c-0.6,0.6-1.4,1-2.6,1.1c-0.1,0.2-0.3,0.4-0.5,0.4h-1.1
			c-0.3,0-0.6-0.3-0.6-0.6c0-0.3,0.3-0.6,0.6-0.6h1.1c0.2,0,0.4,0.1,0.5,0.3c1-0.1,1.8-0.5,2.3-1c0.1-0.1,0.2-0.3,0.3-0.4
			c-0.1,0-0.3,0-0.4,0v-8.6c0.5,0,0.9,0.1,1.3,0.2v-0.4c0-3.8-3.1-6.9-6.9-6.9c-3.8,0-6.9,3.1-6.9,6.9v0.3c0.3-0.1,0.6-0.1,0.9-0.1
			v8.6C662.4,158.1,660.5,156.2,660.5,153.8z M672.7,158.8h1.1c0.2,0,0.5,0.1,0.7,0.2c0.3-0.1,0.6-0.1,0.9-0.2
			c0.1-0.1,0.2-0.2,0.4-0.3v-10h0c-1.3-1.3-3.1-2.2-5.1-2.2c-2,0-3.8,0.8-5.1,2.2h0v10c1.3,1.3,3.1,2.1,5.1,2.1c0.4,0,0.8,0,1.2-0.1
			c-0.1-0.2-0.2-0.4-0.2-0.6C671.6,159.2,672.1,158.8,672.7,158.8z M673.6,161h-6c-5,0-9.1,4.1-9.1,9.1v7.4l0,0.1l0.5,0.2
			c4.8,1.5,9,2,12.4,2c6.7,0,10.6-1.9,10.8-2l0.5-0.2h0.1v-7.4C682.7,165.1,678.6,161,673.6,161z"/>
	</g>
	<g>
		<rect x="21.2" y="109.6" class="st25" width="140.5" height="153.8"/>
		<g>
			<path class="st28" d="M61.7,188.8c4.2,14,15.2,28.6,30.1,28.6c14.8,0,25.8-14.6,30.1-28.6c3.7-1.3,6.7-4.9,7.9-9.6
				c1.7-6.5-0.8-12.5-5.4-14.3c0.4-1.7,0.7-3.5,0.7-5.3c0-15.4-15.4-27.8-34.3-27.8c-18.9,0-34.3,12.5-34.3,27.8
				c0,2.2,0.3,4.3,0.9,6.4c-3.4,2.6-4.9,7.7-3.5,13.3C55,183.9,58,187.5,61.7,188.8z M59.4,170.9c0.5-0.8,1.1-1.4,2-1.6
				c0.1,0,0.3,0,0.5,0c0.1,0,0.3,0,0.4,0l2.4,0.2l0.3-2.3c0.7-4.9,2.3-9.2,4.4-13c4,4.5,11.9,7.5,21.1,7.5c10.4,0,19.2-3.9,22.5-9.4
				c2.7,4.1,4.7,9.1,5.5,14.8l0.4,2.3l2.4-0.2c0.3,0,0.7,0,0.9,0c0.2,0,0.3,0.2,0.5,0.2c2.1,1,3.2,4.7,2.3,8.4
				c-0.9,3.8-3.4,6-5.4,6.3l-1.6,0.2l-0.5,1.6c-3.6,13.1-13.5,26.4-25.7,26.4c-12.2,0-22.1-13.2-25.6-26.4l-0.5-1.6l-1.6-0.2
				c-1.9-0.2-4.4-2.5-5.4-6.3C57.9,175.3,58.3,172.5,59.4,170.9z"/>
			<path class="st28" d="M121,206.1c-3.2,5.4-6.9,10-11.8,12.5c-10.1,5.2-17.5,9.3-17.5,9.3l0,0v-0.1l-0.1,0l-0.1,0v0.1l0,0
				c0,0-7.5-4.2-17.6-9.3c-4.9-2.5-8.5-7.1-11.8-12.5c-14.9,6-25.3,20-25.3,32.1c0,12.8,0,25.2,0,25.2h54.6h0.2h54.6
				c0,0,0-12.4,0-25.2C146.3,226.1,135.9,212.2,121,206.1z"/>
		</g>
	</g>
	<g>
		<text transform="matrix(1 0 0 1 549.6738 205.5205)"><tspan x="0" y="0" class="st29 st2 st30">Mery Duncan</tspan><tspan x="0" y="15.5" class="st18 st31">Social Manager</tspan></text>
		<line class="st32" x1="549.7" y1="239" x2="738.8" y2="239"/>
		<line class="st32" x1="549.7" y1="251.6" x2="738.8" y2="251.6"/>
	</g>
	<g>
		<text transform="matrix(1 0 0 1 547.6895 282.6572)" class="st18 st31">Who´s Viewed Your Profile</text>
		<g>
			<g>
				<text transform="matrix(1 0 0 1 583.373 305.2568)"><tspan x="0" y="0" class="st29 st18 st33">Your profile has been viewd by 7</tspan><tspan x="0" y="12.5" class="st29 st18 st33">people in the past 90 days.</tspan></text>
			</g>
			<g>
				<text transform="matrix(1 0 0 1 583.373 345.7002)"><tspan x="0" y="0" class="st29 st18 st33">Your rank for profile views moved</tspan><tspan x="0" y="12.5" class="st29 st18 st33">down by 7% in the past 15 days.</tspan></text>
			</g>
			<g>
				<text transform="matrix(1 0 0 1 563.0938 317.4482)" class="st29 st18 st34">7</text>
			</g>
			<g>
				<text transform="matrix(1 0 0 1 563.0938 359.085)" class="st29 st18 st34">9</text>
			</g>
			<polygon class="st29" points="555.3,353.8 562,353.8 558.8,350.7 			"/>
		</g>
	</g>
	<g>
		<g>
			<rect x="20.6" y="321.5" class="st35" width="99.4" height="23.5"/>
		</g>
		<g>
			<text transform="matrix(1 0 0 1 36.3062 336.3232)" class="st8 st2 st36">Background</text>
		</g>
	</g>
	<g>
		<text transform="matrix(1 0 0 1 63.1558 381.4561)" class="st18 st37">Summary</text>
	</g>
	<g>
		<g>
			<path class="st35" d="M44.7,381c0-1.3,0.4-2.6,1.1-3.6h-7.2c-0.4,0-0.7-0.3-0.7-0.7c0-0.4,0.3-0.7,0.7-0.7h8.5
				c1.1-0.8,2.4-1.3,3.9-1.3c0.5,0,1,0.1,1.5,0.2v-10.8c0-0.8-0.6-1.4-1.4-1.4h-7.7h-2.6v0.5c0,0,0,0.1,0,0.2v3.9c0,1.1-0.9,2-2,2
				h-3.9c0,0-0.1,0-0.1,0h-0.5v15.1c0,0.8,0.6,1.4,1.4,1.4h7.7h3.5C45.5,384.6,44.7,382.9,44.7,381z M38.6,372.3h10.1
				c0.4,0,0.7,0.3,0.7,0.7c0,0.4-0.3,0.7-0.7,0.7H38.6c-0.4,0-0.7-0.3-0.7-0.7C37.9,372.6,38.2,372.3,38.6,372.3z M43.6,380.9h-5
				c-0.4,0-0.7-0.3-0.7-0.7c0-0.4,0.3-0.7,0.7-0.7h5c0.4,0,0.7,0.3,0.7,0.7C44.3,380.6,44,380.9,43.6,380.9z"/>
			<path class="st35" d="M34.8,368.4h3.9c0.7,0,1.2-0.5,1.2-1.2v-3.9c0-0.4-0.3-0.6-0.6-0.6c-0.1,0-0.3,0.1-0.4,0.2l-4.6,4.5
				C34,367.8,34.3,368.4,34.8,368.4z"/>
			<path class="st35" d="M56.2,384.7l-0.3-0.3l-0.3-0.3c0.6-0.9,1-2,1-3.1c0-2.2-1.3-4.1-3.2-5c-0.1-0.1-0.3-0.1-0.4-0.2
				c-0.1,0-0.3-0.1-0.4-0.1c-0.5-0.1-1-0.2-1.5-0.2c-0.8,0-1.6,0.2-2.4,0.5c-0.7,0.3-1.3,0.8-1.8,1.4c-0.8,1-1.4,2.2-1.4,3.6
				c0,2,1.1,3.8,2.7,4.7c0.3,0.2,0.5,0.3,0.8,0.4c0.6,0.2,1.3,0.4,2,0.4c0.2,0,0.4,0,0.7,0c0.9-0.1,1.7-0.4,2.4-0.9l0.3,0.3l0.3,0.3
				l1.8,1.8c0.2,0.2,0.5,0.3,0.7,0.3c0.3,0,0.5-0.1,0.7-0.3c0.4-0.4,0.4-1,0-1.4L56.2,384.7z M51,377.5c0.5,0,1,0.1,1.5,0.3
				c0.1,0.1,0.3,0.1,0.4,0.2c0.1,0.1,0.3,0.2,0.4,0.3c0.7,0.6,1.2,1.6,1.2,2.6c0,1-0.5,2-1.2,2.6c-0.1,0.1-0.3,0.2-0.4,0.3
				c-0.1,0.1-0.3,0.2-0.4,0.2c-0.5,0.2-1,0.3-1.5,0.3c-1.9,0-3.5-1.6-3.5-3.5C47.6,379.1,49.1,377.5,51,377.5z"/>
		</g>
	</g>
	<g>
		<rect x="39.8" y="460.3" class="st38" width="224.2" height="143.7"/>
		<rect x="39.8" y="564.8" class="st39" width="224.2" height="39.2"/>
	</g>
	<g>
		<rect x="276.4" y="460.3" class="st38" width="224.2" height="143.7"/>
		<rect x="276.4" y="564.8" class="st39" width="224.2" height="39.2"/>
	</g>
	<g>
		<text transform="matrix(1 0 0 1 547.6895 453.5557)" class="st2 st40">Profile Strength</text>
		<g>
			<g>
				<circle class="st29" cx="586.7" cy="519.7" r="41.2"/>
				<path class="st41" d="M586.7,563c-23.9,0-43.3-19.4-43.3-43.3c0-23.9,19.4-43.3,43.3-43.3c23.9,0,43.3,19.4,43.3,43.3
					C630,543.6,610.6,563,586.7,563z M586.7,480.6c-21.6,0-39.1,17.5-39.1,39.1c0,21.6,17.5,39.1,39.1,39.1
					c21.6,0,39.1-17.5,39.1-39.1C625.8,498.2,608.3,480.6,586.7,480.6z"/>
			</g>
			<g>
				<line class="st42" x1="612.4" y1="481.9" x2="746.4" y2="481.9"/>
				<text transform="matrix(1 0 0 1 709.5684 477.5283)" class="st18 st43">All-Star</text>
			</g>
		</g>
	</g>
</g>
</svg>
