<?xml version="1.0" encoding="utf-8"?>
<!-- Generator: Adobe Illustrator 21.0.0, SVG Export Plug-In . SVG Version: 6.00 Build 0)  -->
<svg version="1.1" id="Capa_1" xmlns="http://www.w3.org/2000/svg" xmlns:xlink="http://www.w3.org/1999/xlink" x="0px" y="0px"
	 viewBox="0 0 100 100" style="enable-background:new 0 0 100 100;" xml:space="preserve">
<style type="text/css">
	.st0{fill:#B54021;}
	.st1{fill:#FF592C;}
	.st2{fill:#D34A26;}
</style>
<g>
	<path class="st0" d="M43.5,74.8c9,4.8,19.3,3.6,26.8-2.2c-5.8,3-12.9,3.3-19.2-0.1C40.6,67,36.4,53.7,41.6,42.9
		C46.8,32,59.6,27.8,70,33.4c4.1,2.2,7.2,5.6,9.2,9.5c-2.1-6.5-6.5-12.2-12.8-15.6C53.7,20.6,38.3,25.7,32,38.8S30.8,68.1,43.5,74.8
		z"/>
	<path class="st1" d="M72.5,93C46.2,96.6,22,79.4,18.6,54.5s15.2-48,41.6-51.6c3.5-0.5,6.9-0.6,10.2-0.4c-7.2-2.1-15-2.8-23.1-1.7
		C18.8,4.8-1.4,29.8,2.3,56.7s29.9,45.6,58.4,41.7c8-1.1,15.4-3.9,21.7-7.9C79.3,91.7,76,92.5,72.5,93z"/>
	<path class="st2" d="M67.4,22c-14-2.3-27.6,1.7-34.7,15.5c6.4-6.8,15.7-10.6,25.5-9c16.3,2.7,27.6,18.6,25.2,35.6
		c-2.4,17-17.6,29-33.8,25.8c-9.9-1.9-15.8-7.8-20.1-12.2C34.8,88.9,47,94.8,56.9,96.4c19.8,3.3,38.1-10.8,41-31.3
		S87.1,25.3,67.4,22z"/>
</g>
</svg>
