<?xml version="1.0" encoding="utf-8"?>
<!-- Generator: Adobe Illustrator 21.0.0, SVG Export Plug-In . SVG Version: 6.00 Build 0)  -->
<svg version="1.1" xmlns="http://www.w3.org/2000/svg" xmlns:xlink="http://www.w3.org/1999/xlink" x="0px" y="0px"
	 viewBox="0 0 500 385.7" style="enable-background:new 0 0 500 385.7;" xml:space="preserve">
<style type="text/css">
	.st0{fill:#FF4D43;}
	.st1{fill:#454258;}
	.st2{fill:#333333;}
	.st3{fill:#DBE2E8;}
	.st4{opacity:0.3;fill:#FFFFFF;}
	.st5{fill:#FFFFFF;}
</style>
<g id="BACKGROUND">
	<rect x="0.1" y="-0.1" class="st0" width="500" height="500"/>
</g>
<g id="OBJECTS">
	<g>
		<rect x="52" y="83.5" class="st1" width="426.1" height="278.7"/>
		<rect x="43.7" y="74.8" class="st2" width="426.4" height="279.4"/>
		<rect x="50.9" y="315.5" class="st3" width="412.8" height="2.3"/>
		<rect x="50.9" y="315.5" class="st0" width="71.9" height="2.3"/>
		<g>
			<circle class="st4" cx="256.9" cy="201.9" r="50.7"/>
			<polygon class="st5" points="243.4,175 243.4,228.8 284,201.9 			"/>
		</g>
		<g>
			<polygon class="st5" points="130,328.3 130,343.7 140.9,336 			"/>
			<rect x="142.8" y="328.3" class="st5" width="2.6" height="15.4"/>
		</g>
		<g>
			<polygon class="st5" points="98.9,328.3 98.9,343.7 109.9,336 			"/>
		</g>
		<g>
			<polygon class="st5" points="78.9,328.3 78.9,343.7 67.9,336 			"/>
			
				<rect x="63.5" y="328.3" transform="matrix(-1 -1.224647e-16 1.224647e-16 -1 129.4939 672.0509)" class="st5" width="2.6" height="15.4"/>
		</g>
		<path class="st5" d="M385.9,333.2l-0.5-1.2c0,0,1.2-2.6,1.1-2.7l-1.6-1.5c-0.1-0.1-2.8,1.1-2.8,1.1l-1.2-0.5c0,0-1.1-2.7-1.2-2.7
			h-2.2c-0.2,0-1.2,2.7-1.2,2.7l-1.2,0.5c0,0-2.7-1.1-2.8-1l-1.6,1.5c-0.1,0.1,1.1,2.7,1.1,2.7l-0.5,1.2c0,0-2.7,1.1-2.7,1.2v2.1
			c0,0.1,2.7,1.1,2.7,1.1l0.5,1.2c0,0-1.2,2.6-1.1,2.7l1.6,1.5c0.1,0.1,2.8-1.1,2.8-1.1l1.2,0.5c0,0,1.1,2.7,1.2,2.7h2.2
			c0.2,0,1.2-2.7,1.2-2.7l1.2-0.5c0,0,2.7,1.1,2.8,1l1.6-1.5c0.1-0.1-1.1-2.7-1.1-2.7l0.5-1.2c0,0,2.7-1.1,2.7-1.2v-2.1
			C388.7,334.2,385.9,333.2,385.9,333.2z M381.9,335.4c0,1.7-1.4,3.1-3.2,3.1c-1.8,0-3.2-1.4-3.2-3.1c0-1.7,1.4-3.1,3.2-3.1
			C380.4,332.3,381.9,333.7,381.9,335.4z"/>
		<path class="st5" d="M425.6,342.8h-22.8v-15h22.8V342.8z M404.5,341.1h19.4v-11.6h-19.4V341.1z"/>
		<g>
			<polygon class="st5" points="450.1,327.9 455.9,327.9 455.9,333.7 457.6,333.7 457.6,326.2 450.1,326.2 			"/>
			<polygon class="st5" points="441.1,333.7 441.1,327.9 446.8,327.9 446.8,326.2 439.4,326.2 439.4,333.7 			"/>
			<polygon class="st5" points="455.9,336.9 455.9,342.7 450.1,342.7 450.1,344.4 457.6,344.4 457.6,336.9 			"/>
			<polygon class="st5" points="446.8,342.7 441.1,342.7 441.1,336.9 439.4,336.9 439.4,344.4 446.8,344.4 			"/>
		</g>
	</g>
	<g>
		<path class="st5" d="M217.4,31.9c0-0.6-0.1-1.3-0.1-1.9c-0.2-2.7-0.5-5.8-2.3-8c-1.5-1.9-3.9-2.3-6.2-2.5
			c-2.9-0.3-5.8-0.5-8.6-0.6c-5.8-0.2-11.7-0.1-17.5,0c-3,0.1-6,0.1-9,0.4c-3.7,0.3-7.5,0.8-9.2,4.5c-1.5,3.3-1.3,7.5-1.4,11
			c0,3.2,0,6.4,0.1,9.5c0.2,4.1,0.4,9.5,4.9,11.3c2.4,1,5.2,1.2,7.8,1.3c2.7,0.2,5.4,0.2,8.1,0.2c5.7,0.1,11.3-0.1,16.9-0.2
			c3.9-0.1,8-0.1,11.7-1.4c3.2-1.1,4.1-4.6,4.5-7.7c0.4-3,0.3-6.1,0.3-9.1C217.4,36.4,217.5,34.2,217.4,31.9z M184.7,46.1
			c0-5.5,0-11,0-16.5c4.7,2.8,9.3,5.5,14.1,8.3C194.1,40.6,189.4,43.4,184.7,46.1z"/>
		<g>
			<path class="st5" d="M263.9,29.5c1.6,0,3.1,0,4.6,0c0,8.4,0,16.7,0,25.1c-1.5,0-3,0-4.6,0c0-0.9,0-1.7,0-2.6
				c-0.4,0.4-0.8,0.8-1.1,1.1c-1.1,1-2.2,1.9-3.8,1.9c-1.4,0-2.6-0.7-3-2.1c-0.3-1-0.5-2-0.5-3.1c-0.1-6.6-0.1-13.3-0.1-19.9
				c0-0.1,0-0.2,0-0.3c1.5,0,3,0,4.6,0c0,0.2,0,0.4,0,0.6c0,6.4,0.1,12.8,0.1,19.2c0,0.2,0,0.4,0,0.6c0.1,0.8,0.7,1.2,1.4,0.9
				c0.6-0.2,1.1-0.7,1.6-1.1c0.6-0.6,0.8-1.3,0.8-2.1c-0.1-5.7-0.1-11.5-0.1-17.2C263.9,30,263.9,29.8,263.9,29.5z"/>
			<path class="st5" d="M239.7,21.1c-0.8,2.8-1.6,5.5-2.4,8.1c-1.1,3.8-2.3,7.6-3.4,11.4c-0.1,0.3-0.1,0.6-0.1,0.9
				c0,4.1,0,8.3,0.1,12.4c0,0.2,0,0.4,0,0.7c-1.6,0-3.2,0-4.8,0c0-0.2,0-0.4,0-0.6c0-4.2,0-8.3-0.1-12.5c0-0.5-0.2-1-0.3-1.5
				c-1.9-6.1-3.8-12.2-5.8-18.3c-0.1-0.2-0.1-0.3-0.2-0.6c1.6,0,3.2,0,4.8,0c0.1,0,0.3,0.3,0.4,0.5c0.7,2.7,1.5,5.4,2.2,8.1
				c0.4,1.4,0.8,2.8,1.3,4.3c0.2-0.9,0.5-1.9,0.7-2.8c0.8-3.2,1.6-6.4,2.4-9.6c0.1-0.4,0.2-0.5,0.7-0.5
				C236.6,21.1,238.1,21.1,239.7,21.1z"/>
			<path class="st5" d="M238.9,42c0-1.9-0.1-3.8,0-5.7c0-0.9,0.2-1.9,0.5-2.8c0.7-2.2,2.2-3.7,4.6-4c2.6-0.4,5,0.1,6.6,2.5
				c0.8,1.2,1.2,2.6,1.3,4c0.1,1.2,0.1,2.4,0.1,3.7c0,2.7,0,5.3,0,8c0,0.9-0.1,1.9-0.4,2.8c-0.7,2.8-3.2,4.6-6,4.6
				c-2.9,0-5.5-1.8-6.2-4.5c-0.3-1.2-0.4-2.6-0.5-3.8C238.8,45,238.9,43.5,238.9,42L238.9,42z M247.5,42.2
				C247.5,42.2,247.4,42.2,247.5,42.2c-0.1-1.9-0.1-3.9-0.1-5.8c0-0.5-0.1-1-0.2-1.5c-0.3-0.9-0.9-1.3-1.8-1.3
				c-0.9,0-1.5,0.5-1.8,1.4c-0.1,0.5-0.2,1-0.2,1.4c0,3.8,0,7.7,0.1,11.5c0,0.5,0.1,1.1,0.2,1.6c0.3,0.9,0.9,1.3,1.8,1.3
				c0.8,0,1.5-0.5,1.7-1.4c0.1-0.5,0.2-1.1,0.2-1.6C247.5,46,247.5,44.1,247.5,42.2z"/>
			<path class="st5" d="M305,31.6c0.9-0.7,1.8-1.5,2.8-2c2.5-1.3,5-0.1,5.6,2.6c0.3,1.4,0.5,2.9,0.6,4.4c0.1,3.7,0,7.4,0,11.1
				c0,1.4-0.1,2.8-0.4,4.1c-0.7,2.9-3.5,4.1-6.1,2.5c-0.9-0.5-1.6-1.3-2.5-1.9c0,0.4,0,0.9,0,1.4c0,1,0.1,0.9-0.9,0.9c-1,0-2,0-3,0
				c-0.7,0-0.7,0-0.7-0.7c0-5.9,0-11.8,0-17.7c0-4.9,0-9.7,0-14.6c0-0.5,0.2-0.7,0.7-0.7c1.1,0,2.2,0,3.3,0c0.5,0,0.6,0.2,0.6,0.6
				c0,3.1,0,6.2,0,9.2C305,31.1,305,31.4,305,31.6z M305,42C305,42,305,42,305,42c0,2.2,0,4.5-0.1,6.7c0,0.9,0.4,1.3,1.1,1.7
				c0.2,0.1,0.4,0.2,0.7,0.3c1.1,0.3,1.9-0.1,2.2-1.2c0.1-0.5,0.2-1.1,0.2-1.6c0-4,0-7.9,0-11.9c0-0.5-0.1-1-0.2-1.5
				c-0.2-0.7-0.7-1-1.4-1.1c-0.7,0-1.4,0.3-2,0.7c-0.4,0.2-0.5,0.5-0.5,1C305,37.3,305,39.7,305,42z"/>
			<path class="st5" d="M291.9,52c-0.6,0.6-1.1,1.1-1.6,1.5c-0.9,0.8-1.8,1.3-3,1.4c-1.9,0.1-3.2-1-3.5-3c-0.1-0.9-0.2-1.7-0.2-2.6
				c0-6.4,0-12.8,0-19.2c0-0.5,0.1-0.7,0.7-0.7c1.2,0,2.3,0,3.5,0c0.5,0,0.7,0.2,0.7,0.7c0,6.2,0,12.4,0,18.5c0,0.3,0,0.7,0,1
				c0,0.8,0.5,1.1,1.3,1c1-0.2,2.4-1.8,2.4-2.9c0-5.9,0-11.7,0-17.6c0-0.7,0-0.7,0.7-0.7c1.2,0,2.3,0,3.5,0c0.4,0,0.6,0.1,0.6,0.6
				c0,8,0,16,0,24c0,0.4-0.1,0.6-0.5,0.6c-1.3,0-2.5,0-3.8,0c-0.4,0-0.5-0.1-0.5-0.5C291.9,53.5,291.9,52.8,291.9,52z"/>
			<path class="st5" d="M325.8,45.8c1.6,0,3,0,4.5,0c0.1,0,0.3,0.2,0.3,0.3c0,1.9,0.1,3.7-0.8,5.4c-1.2,2.2-3,3.3-5.4,3.4
				c-3.1,0.2-5.4-1.1-6.7-3.7c-0.6-1.2-0.8-2.5-0.8-3.8c0-3.7,0-7.4,0.1-11.1c0.1-2.2,0.8-4.2,2.7-5.7c3.1-2.5,9.5-2,10.7,3.8
				c0.2,1,0.3,2,0.3,3c0.1,1.6,0,3.2,0,4.8c0,0.7,0,0.7-0.7,0.7c-2.5,0-5,0-7.5,0c-0.2,0-0.4,0-0.7,0c0,0.1-0.1,0.1-0.1,0.2
				c0,1.9,0,3.7,0.1,5.6c0,0.3,0.1,0.7,0.3,1c0.3,0.8,1,1.2,1.9,1.1c0.8,0,1.5-0.5,1.7-1.3c0.2-0.7,0.2-1.4,0.2-2.1
				C325.8,46.8,325.8,46.3,325.8,45.8z M325.9,39c-0.1-1.5-0.1-2.9-0.2-4.3c-0.1-1-0.7-1.4-1.9-1.4c-1.2,0-1.8,0.4-2,1.4
				c-0.1,1.3-0.1,2.6-0.2,3.9c0,0.1,0.2,0.3,0.3,0.3C323.3,39,324.5,39,325.9,39z"/>
			<path class="st5" d="M273.8,25.9c-1.2,0-2.3,0-3.5,0c-0.5,0-1.3,0.1-1.6-0.2c-0.3-0.3-0.1-1-0.1-1.5c0-0.9,0-1.7,0-2.6
				c0-0.5,0.2-0.6,0.6-0.6c3.8,0,7.6,0,11.4,0c1.1,0,2.2,0,3.2,0c0.4,0,0.5,0.2,0.5,0.5c0,1.2,0,2.5,0,3.7c0,0.4-0.1,0.6-0.6,0.6
				c-1.3,0-2.6,0-4,0c-0.3,0-0.6,0-0.9,0c0,0.4,0,0.8,0,1.1c0,8.9,0,17.9,0,26.8c0,0.8,0,0.8-0.8,0.8c-1.2,0-2.3,0-3.5,0
				c-0.7,0-0.8,0-0.8-0.8c0-5,0-10,0-15c0-4.1,0-8.2,0-12.3C273.8,26.4,273.8,26.2,273.8,25.9z"/>
		</g>
	</g>
</g>
<g id="DESIGNED_BY_FREEPIK">
</g>
</svg>
